<?xml version="1.0" encoding="UTF-8"?>
<svg width="63px" height="70px" viewBox="0 0 63 70" version="1.1" xmlns="http://www.w3.org/2000/svg" xmlns:xlink="http://www.w3.org/1999/xlink">
    <title>699E1E40-C005-4741-B1E8-7528564E1FD1</title>
    <g id="2_Who-We-Are" stroke="none" stroke-width="1" fill="none" fill-rule="evenodd">
        <g id="02.1_Who-We-Are_v4" transform="translate(-1303.000000, -1982.000000)" fill="#0065A1" fill-rule="nonzero">
            <g id="BODY" transform="translate(0.000000, 1646.000000)">
                <g id="WHAT-WE-DO" transform="translate(160.000000, 0.000000)">
                    <g id="Principle_3" transform="translate(1100.000000, 284.000000)">
                        <g id="034-strategy-1" transform="translate(43.000000, 52.000000)">
                            <path d="M2.59979248,50.8556366 L13.8523864,50.8556366 L13.8523864,51.5921021 C13.8523864,53.1536865 15.1229095,54.4242096 16.684494,54.4242096 L18.2316589,54.4242096 L13.5394287,67.3163605 C13.0651855,68.6189271 14.0318298,70 15.4182435,70 L19.8370361,70 C20.6744385,70 21.429596,69.4712829 21.7158509,68.684082 L26.9063568,54.4242096 L28.4043884,54.4242096 C28.9710236,54.4242096 29.4303131,53.9649201 29.4303131,53.398819 C29.4303131,52.8321839 28.9710236,52.3734284 28.4043884,52.3734284 C25.8254242,52.3734284 18.9360809,52.3734284 16.684494,52.3734284 C16.2535095,52.3734284 15.9031677,52.0230866 15.9031677,51.5921021 L15.9031677,50.8556366 L46.1692809,50.8556366 L46.1692809,51.5921021 C46.1692809,52.0230866 45.8189391,52.3734284 45.3879547,52.3734284 C44.1334534,52.3734284 34.7068024,52.3734284 33.1900788,52.3734284 C32.6234437,52.3734284 32.1646881,52.8321839 32.1646881,53.398819 C32.1646881,53.9649201 32.6234437,54.4242096 33.1900788,54.4242096 L35.166092,54.4242096 L40.356598,68.684082 C40.6428529,69.4712829 41.3980103,70 42.2354126,70 L46.6542054,70 C48.0406188,70 49.0072632,68.6189271 48.53302,67.3163605 L43.8407897,54.4242096 L45.3879547,54.4242096 C46.9495392,54.4242096 48.2200622,53.1536865 48.2200622,51.5921021 L48.2200622,50.8556366 L59.4726562,50.8556366 C60.9060669,50.8556366 62.0729828,49.6892547 62.0729828,48.2558441 L62.0729828,45.3041077 C62.0729828,44.0047454 61.1132812,42.9280853 59.8662567,42.7374268 L59.8662567,27.8206634 C59.8662567,27.2540283 59.4069671,26.7952728 58.8408661,26.7952728 C58.274231,26.7952728 57.8154754,27.2540283 57.8154754,27.8206634 L57.8154754,42.7043151 L4.2569733,42.7043151 L4.2569733,8.15132145 L57.8154754,8.15132145 L57.8154754,23.0349731 C57.8154754,23.6016082 58.274765,24.0603638 58.8414001,24.0603638 C59.4075013,24.0603638 59.8667907,23.6016082 59.8667907,23.0349731 L59.8667907,8.1182098 C61.1138153,7.92755127 62.0729828,6.85089111 62.0729828,5.55152896 L62.0729828,2.59979248 C62.0729828,1.16638184 60.9066009,0 59.4726562,0 L2.59979248,0 C1.16638184,0 0,1.16638184 0,2.59979248 L0,5.55152896 C0,6.85089111 0.95916748,7.92755127 2.20619205,8.1182098 L2.20619205,42.7374268 C0.95916748,42.9280853 0,44.0047454 0,45.3041077 L0,48.2558441 C0,49.6892547 1.16638184,50.8556366 2.59979248,50.8556366 Z M24.7241974,54.4242096 L19.8012542,67.9492188 L15.4919434,67.9492188 L20.4143524,54.4242096 L24.7241974,54.4242096 Z M46.5810394,67.9492188 L42.2717285,67.9492188 L37.3487855,54.4242096 L41.6580963,54.4242096 L46.5810394,67.9492188 Z M2.05078125,2.59979248 C2.05078125,2.30232242 2.30232242,2.05078125 2.59979248,2.05078125 L59.4731903,2.05078125 C59.7706605,2.05078125 60.0222015,2.30232242 60.0222015,2.59979248 L60.0222015,5.55152896 C60.0222015,5.84899902 59.7706605,6.1005402 59.4731903,6.1005402 C58.8648988,6.1005402 3.24066162,6.1005402 2.59979248,6.1005402 C2.30232242,6.1005402 2.05078125,5.84899902 2.05078125,5.55152896 L2.05078125,2.59979248 Z M2.05078125,45.3041077 C2.05078125,45.0066375 2.30232242,44.7550964 2.59979248,44.7550964 L59.4731903,44.7550964 C59.7706605,44.7550964 60.0222015,45.0066375 60.0222015,45.3041077 L60.0222015,48.2558441 C60.0222015,48.5533141 59.7706605,48.8048553 59.4731903,48.8048553 L47.1952057,48.8048553 C46.7097474,48.8048553 3.72131348,48.8048553 2.59979248,48.8048553 C2.30232242,48.8048553 2.05078125,48.5533141 2.05078125,48.2558441 L2.05078125,45.3041077 Z" id="Shape"></path>
                            <path d="M18.9104461,12.7415466 C16.46286,12.7415466 14.4718932,14.7325134 14.4718932,17.1800995 C14.4718932,19.6276855 16.46286,21.6186523 18.9104461,21.6186523 C21.3580322,21.6186523 23.348999,19.6276855 23.348999,17.1800995 C23.348999,14.7325134 21.3580322,12.7415466 18.9104461,12.7415466 Z M18.9104461,19.5678711 C17.5939941,19.5678711 16.5226745,18.4965514 16.5226745,17.1800995 C16.5226745,15.8636475 17.5939941,14.7923278 18.9104461,14.7923278 C20.2268981,14.7923278 21.2982178,15.8636475 21.2982178,17.1800995 C21.2982178,18.4965514 20.2268981,19.5678711 18.9104461,19.5678711 Z" id="Shape"></path>
                            <path d="M35.1708984,33.6755371 C35.1708984,36.1231232 37.1623993,38.11409 39.6094513,38.11409 C42.0570374,38.11409 44.0480042,36.1231232 44.0480042,33.6755371 C44.0480042,31.227951 42.0570374,29.2369842 39.6094513,29.2369842 C37.1618652,29.2369842 35.1708984,31.227951 35.1708984,33.6755371 L35.1708984,33.6755371 Z M41.997223,33.6755371 C41.997223,34.9919891 40.9264373,36.0633088 39.6094513,36.0633088 C38.2929993,36.0633088 37.2216797,34.9919891 37.2216797,33.6755371 C37.2216797,32.3590851 38.2929993,31.2877655 39.6094513,31.2877655 C40.9264373,31.2877655 41.997223,32.3590851 41.997223,33.6755371 L41.997223,33.6755371 Z" id="Shape"></path>
                            <path d="M22.4517822,30.134201 C22.0512389,29.7336579 21.4018249,29.7336579 21.0012817,30.134201 L18.9104461,32.2250366 L16.8196107,30.134201 C16.4190674,29.7336579 15.7701873,29.7336579 15.3696442,30.134201 C14.9691009,30.5347443 14.9691009,31.1841584 15.3696442,31.5847015 L17.4604798,33.6755371 L15.3696442,35.7663727 C14.9691009,36.1669159 14.9691009,36.8163299 15.3696442,37.2163392 C15.7701873,37.6168823 16.4190674,37.6168823 16.8196107,37.2163392 L18.9104461,35.1255036 L21.0012817,37.2163392 C21.4018249,37.6168823 22.0512389,37.6168823 22.4517822,37.2163392 C22.8523255,36.8163299 22.8523255,36.1669159 22.4517822,35.7663727 L20.3609466,33.6755371 L22.4517822,31.5847015 C22.8517913,31.1841584 22.8517913,30.5347443 22.4517822,30.134201 L22.4517822,30.134201 Z" id="Path"></path>
                            <path d="M46.975174,14.9418639 L41.8247223,11.79039 C40.9221649,11.2381745 39.7969056,11.9239045 39.7969056,13.0187225 L39.7969056,15.2094269 C34.861679,15.6836701 30.4391479,17.9560853 26.964035,21.8167878 C24.2125702,24.8731995 23.0264282,27.8260041 22.9772949,27.9499054 C22.7690124,28.4764862 23.0269622,29.0724945 23.5540771,29.280777 C24.0795898,29.4890594 24.6761322,29.2316437 24.8844147,28.7045288 C24.9260711,28.5987855 29.0789032,18.4148407 39.7969056,17.2703552 L39.7969056,19.3216706 C39.7969056,20.4164886 40.9216309,21.1022186 41.8247223,20.5500031 L46.975174,17.397995 C47.8659821,16.8527222 47.8675843,15.4887389 46.975174,14.9418639 L46.975174,14.9418639 Z M41.8476868,18.1312562 L41.8476868,14.209137 L45.0525666,16.1701966 L41.8476868,18.1312562 Z" id="Shape"></path>
                        </g>
                    </g>
                </g>
            </g>
        </g>
    </g>
</svg>