<?xml version="1.0" encoding="UTF-8"?>
<svg width="61px" height="70px" viewBox="0 0 61 70" version="1.1" xmlns="http://www.w3.org/2000/svg" xmlns:xlink="http://www.w3.org/1999/xlink">
    <!-- Generator: Sketch 63.1 (92452) - https://sketch.com -->
    <title>030-cup</title>
    <desc>Created with Sketch.</desc>
    <g id="3_What-We-Believe" stroke="none" stroke-width="1" fill="none" fill-rule="evenodd">
        <g id="03_What-We-Believe_v4" transform="translate(-1303.000000, -2138.000000)" fill="#0065A1" fill-rule="nonzero">
            <g id="BODY">
                <g id="GUIDING-PRINCIPLES" transform="translate(160.000000, 1333.000000)">
                    <g id="Principle_6" transform="translate(1100.000000, 755.000000)">
                        <g id="030-cup" transform="translate(43.000000, 50.000000)">
                            <path d="M0.0303917805,12.1705462 C1.33722083,24.2940956 7.75227199,34.9906541 17.2082241,40.8518918 C18.9519089,43.6615474 21.7637007,45.7208579 25.0769689,46.4845544 L25.0769689,47.4971199 C25.0769689,48.9705737 25.8209055,50.2736643 26.9520309,51.0517803 L26.9520309,57.8582927 L20.050457,57.8582927 C17.7305284,57.8582927 15.8431831,59.745638 15.8431831,62.0655665 L15.8431831,62.9499592 L14.6004406,62.9499592 C13.1163058,62.9499592 11.9088108,64.1569202 11.9088108,65.6415891 L11.9088108,67.3078361 C11.9088108,68.791971 13.1163058,70 14.6004406,70 L28.0842245,70 C28.6503212,70 29.1096073,69.540714 29.1096073,68.9740832 C29.1096073,68.4079864 28.6503212,67.9487004 28.0842245,67.9487004 L14.6004406,67.9487004 C14.2533057,67.9487004 13.9595764,67.655505 13.9595764,67.3078361 L13.9595764,65.6415891 C13.9595764,65.2939202 14.2527717,65.0007248 14.6004406,65.0007248 L46.3531281,65.0007248 C46.7002628,65.0007248 46.9939923,65.2939202 46.9939923,65.6415891 L46.9939923,67.3078361 C46.9939923,67.655505 46.7007969,67.9487004 46.3531281,67.9487004 L32.8693442,67.9487004 C32.3032474,67.9487004 31.8439614,68.4079864 31.8439614,68.9740832 C31.8439614,69.540714 32.3032474,70 32.8693442,70 L46.3531281,70 C47.8372629,70 49.0447579,68.791971 49.0447579,67.3078361 L49.0447579,65.6415891 C49.0447579,64.1574542 47.8372629,62.9499592 46.3531281,62.9499592 L45.1103854,62.9499592 L45.1103854,62.0655665 C45.1103854,59.745638 43.2230403,57.8582927 40.9025775,57.8582927 L34.0015377,57.8582927 L34.0015377,51.0517803 C35.1326631,50.2736643 35.8760656,48.9705737 35.8760656,47.4971199 L35.8760656,46.4845544 C39.3297899,45.6882807 42.2393136,43.4847757 43.9611022,40.4914056 C52.8274592,34.7337744 59.249453,24.4158599 60.5690994,12.1705462 C60.9012806,9.09012532 58.4708029,6.39582523 55.3716901,6.39582523 L48.1064259,6.39582523 C48.6799993,5.90182574 49.0447579,5.17230853 49.0447579,4.35787691 L49.0447579,2.69162986 C49.0447579,1.20749503 47.8372629,0 46.3531281,0 L14.6004406,0 C13.1163058,0 11.9088108,1.20749503 11.9088108,2.69162986 L11.9088108,4.35787691 C11.9088108,5.17230853 12.2735694,5.90182574 12.8466088,6.39582523 L5.22780086,6.39582523 C2.12388167,6.39582523 -0.301255436,9.09546592 0.0303917805,12.1705462 Z M2.06940828,11.9505161 C1.86860414,10.0882714 3.34152375,8.44659084 5.22780086,8.44659084 L14.2629188,8.44659084 L14.3483673,10.5614429 L5.22780086,10.5614429 C4.64247818,10.5614429 4.16610242,11.031944 4.16610242,11.610324 C4.16610242,11.6471737 4.16770461,11.6840235 4.17197704,11.720339 C5.18187232,21.0881723 9.3934185,29.005516 15.3069935,34.2600689 C15.3358323,34.9773028 15.3422409,35.0248335 15.3422409,35.0248335 C15.3951123,35.8146988 15.5195467,36.5832017 15.7080676,37.325002 C8.20568342,31.5492131 3.18558011,22.3042122 2.06940828,11.9505161 L2.06940828,11.9505161 Z M15.1878995,31.3110251 C10.4503105,26.4639552 7.35653835,19.9404911 6.34771124,12.6127425 L14.4316797,12.6127425 L15.1878995,31.3110251 Z M43.0596198,62.0655665 L43.0596198,62.9494252 L17.8939487,62.9494252 L17.8939487,62.0655665 C17.8939487,60.8762293 18.8616539,59.9090583 20.050457,59.9090583 L40.9025775,59.9090583 C42.0919148,59.9090583 43.0596198,60.8762293 43.0596198,62.0655665 Z M31.9507721,51.7919786 L31.9507721,57.8582927 L29.0027966,57.8582927 L29.0027966,51.7919786 C29.1181521,51.8021256 29.2660849,51.8090683 29.3889173,51.8090683 L31.5641173,51.8090683 C31.6981647,51.8090683 31.8493019,51.8010575 31.9507721,51.7919786 Z M33.8253,47.4971199 C33.8253,48.7638949 32.7828275,49.7577685 31.5646514,49.7577685 L29.3889173,49.7577685 C28.170207,49.7577685 27.1282685,48.7633609 27.1282685,47.4971199 L27.1282685,46.7830904 C27.412385,46.8012481 27.711455,46.809793 27.9475068,46.809793 L33.0060619,46.809793 C33.2506584,46.809793 33.5443879,46.8007141 33.8253,46.7830904 L33.8253,47.4971199 Z M33.0060619,44.7590274 L27.9475068,44.7590274 C22.1466171,44.7590274 17.5980831,40.1661669 17.3732466,34.6034652 C17.366838,34.4373746 16.2672217,7.24176604 16.2592108,7.05004079 L44.6943577,7.05004079 C44.6617805,7.85859792 44.3621764,15.2675227 44.2131755,18.9476857 C44.1902111,19.5137824 44.6302713,19.9906922 45.196368,20.0136566 C45.7672712,20.0328825 46.2393747,19.5960266 46.2623389,19.0304639 L46.521889,12.6127425 L54.2523139,12.6127425 C53.2712576,19.7327443 50.3083285,26.1178885 45.7816907,30.9265066 L46.0690116,23.8161178 C46.0919758,23.250021 45.6513816,22.7725771 45.085819,22.7496129 C44.5218585,22.7261144 44.0428124,23.1672427 44.019848,23.7328054 L43.5803221,34.6039993 C43.350145,40.2927377 38.6985387,44.7590274 33.0060619,44.7590274 L33.0060619,44.7590274 Z M58.5300829,11.9505161 C57.4406136,22.0606838 52.5812604,31.1817842 45.3277453,36.9816057 C45.6006465,35.7666339 45.6161342,35.0152205 45.6599265,33.9300237 C51.6568138,28.4239318 55.4747626,20.5583912 56.4275141,11.7267478 C56.4953388,11.1088477 56.0029415,10.5614429 55.3722243,10.5614429 L46.6052013,10.5614429 L46.6906499,8.44659084 L55.3722243,8.44659084 C57.2088343,8.44659084 58.7367616,10.034332 58.5300829,11.9505161 Z M13.9595764,2.69162986 C13.9595764,2.34449512 14.2527717,2.0507656 14.6004406,2.0507656 L46.3531281,2.0507656 C46.7002628,2.0507656 46.9939923,2.34449512 46.9939923,2.69162986 L46.9939923,4.35787691 C46.9939923,4.7055458 46.7007969,4.99927518 46.3531281,4.99927518 C43.8927434,4.99927518 15.2343622,4.99927518 14.6004406,4.99927518 C14.2533057,4.99927518 13.9595764,4.7055458 13.9595764,4.35787691 L13.9595764,2.69162986 Z" id="Shape"></path>
                        </g>
                    </g>
                </g>
            </g>
        </g>
    </g>
</svg>