<?xml version="1.0" encoding="UTF-8"?>
<svg width="66px" height="71px" viewBox="0 0 66 71" version="1.1" xmlns="http://www.w3.org/2000/svg" xmlns:xlink="http://www.w3.org/1999/xlink">
    <!-- Generator: Sketch 63.1 (92452) - https://sketch.com -->
    <title>039-idea</title>
    <desc>Created with Sketch.</desc>
    <g id="2_Who-We-Are" stroke="none" stroke-width="1" fill="none" fill-rule="evenodd">
        <g id="02.1_Who-We-Are_v4" transform="translate(-608.000000, -3690.000000)" fill="#0065A1" fill-rule="nonzero">
            <g id="BODY" transform="translate(0.000000, 1437.000000)">
                <g id="CULTURE" transform="translate(160.000000, 2038.000000)">
                    <g id="Pillar_2" transform="translate(412.000000, 165.000000)">
                        <g id="039-idea" transform="translate(35.980121, 50.392157)">
                            <path d="M59.7900864,16.4626915 C60.0569683,16.4626915 60.3238502,16.3577334 60.5245454,16.1499698 L63.8344147,12.7207956 C64.2293999,12.3117276 64.2208597,11.6572187 63.8151992,11.259454 C63.4095387,10.8611509 62.760482,10.8703011 62.3660305,11.2788309 L59.0556274,14.7080051 C58.4231173,15.3635904 58.8890931,16.4626915 59.7900864,16.4626915 L59.7900864,16.4626915 Z" id="Path"></path>
                            <path d="M60.5245454,32.6703971 C60.1300939,32.2618675 59.4810371,32.2527172 59.0753766,32.6510204 C58.6697161,33.0487851 58.6611759,33.7032939 59.0556274,34.112362 L62.3660305,37.540998 C62.760482,37.950066 63.4095387,37.9592161 63.8151992,37.5609131 C64.2208597,37.16261 64.2293999,36.5086394 63.8344147,36.0995714 L60.5245454,32.6703971 Z" id="Path"></path>
                            <path d="M64.2454129,23.3764794 L60.9355435,23.3764794 C60.3692201,23.3764794 59.910717,23.8393722 59.910717,24.4099144 C59.910717,24.9809949 60.3692201,25.4433494 60.9355435,25.4433494 L64.2454129,25.4433494 C64.8117363,25.4433494 65.2702394,24.9809949 65.2702394,24.4099144 C65.2702394,23.8393722 64.8117363,23.3764794 64.2454129,23.3764794 Z" id="Path"></path>
                            <path d="M1.45610766,11.259454 C1.05044717,11.6577571 1.04190695,12.3122659 1.43689216,12.7207956 L4.74782908,16.1499698 C5.1428143,16.5590378 5.79133722,16.5676498 6.19699771,16.1693467 C6.6026582,15.7710436 6.61119842,15.1170731 6.21621334,14.7080051 L2.90527643,11.2788309 C2.51029121,10.8703011 1.86123442,10.8611509 1.45610766,11.259454 Z" id="Path"></path>
                            <path d="M6.19753158,32.6510204 C5.79187109,32.2527172 5.1428143,32.2613291 4.74836281,32.6703971 L1.43689216,36.0995714 C1.04190695,36.5086394 1.05044717,37.16261 1.45610766,37.5609131 C1.86176815,37.9592161 2.51082494,37.9506042 2.90527643,37.5415362 L6.21674707,34.112362 C6.61119842,33.7038321 6.6026582,33.0493233 6.19753158,32.6510204 Z" id="Path"></path>
                            <path d="M5.36112366,24.4104526 C5.36112366,23.8393722 4.90262052,23.3764794 4.33629715,23.3764794 L1.02482651,23.3764794 C0.458503143,23.3764794 0,23.8393722 0,24.4104526 C0,24.9809949 0.458503143,25.4438876 1.02482651,25.4438876 L4.33629715,25.4438876 C4.90262052,25.4438876 5.36112366,24.9809949 5.36112366,24.4104526 Z" id="Path"></path>
                            <path d="M32.9401657,2.06887964 C44.1732251,2.22281833 53.45431,10.8331621 54.5282429,22.0976036 C54.582153,22.6659929 55.0817559,23.0825963 55.646478,23.0276951 C56.2101325,22.9727938 56.6227319,22.4679178 56.5688218,21.8995286 C55.4036155,9.68400383 45.2765147,0.171019386 32.9679214,0.0025478745 C19.730579,-0.188530014 8.71956552,10.3907226 8.59039475,24.0116114 C8.52794428,30.6121391 11.0515796,36.8079049 15.6963923,41.4567478 C19.5426942,45.3062932 20.4607679,49.1224672 22.1490629,54.1340887 C21.3014459,54.6734126 20.7367238,55.6255722 20.7367238,56.7090643 L20.7367238,57.6294673 C20.7367238,58.3991611 21.0217537,59.1021122 21.4903984,59.6387448 C21.0217537,60.1748393 20.7367238,60.8777904 20.7367238,61.6474842 L20.7367238,62.5684254 C20.7367238,64.2456043 22.089815,65.6105997 23.7535569,65.6105997 L25.6142575,65.6105997 L25.6142575,67.5068453 C25.6142575,69.1845624 26.9673488,70.5490196 28.6310905,70.5490196 L36.6391489,70.5490196 C38.3028907,70.5490196 39.6565157,69.1845624 39.6565157,67.5068453 L39.6565157,65.6105997 L41.5166825,65.6105997 C43.1804242,65.6105997 44.5340493,64.2456043 44.5340493,62.5684254 L44.5340493,61.6474842 C44.5340493,60.8777904 44.2484857,60.1748393 43.779841,59.6387448 C44.2484857,59.1021122 44.5340493,58.3991611 44.5340493,57.6294673 L44.5340493,56.7090643 C44.5340493,55.6255722 43.9693272,54.6734126 43.1211766,54.1340887 C44.8286869,49.0648747 45.7302141,45.3175964 49.6048055,41.4249912 C53.4756605,37.5372302 55.935778,32.3910468 56.5330596,26.9348329 C56.5955101,26.3675202 56.1893158,25.8572616 55.6267287,25.7942867 C55.0646755,25.734003 54.5581337,26.1414563 54.4956832,26.7087691 C53.9496428,31.6977842 51.6992946,36.4042194 48.1583056,39.9609583 C43.9260924,44.2120361 42.9210151,48.3021781 41.1142247,53.6663517 L39.6559819,53.6663517 L39.6559819,52.9224938 C39.6559819,51.3938712 38.4576821,50.1456755 36.9588733,50.0746268 C37.0672274,44.3460598 38.0530892,40.186484 38.4907755,38.6088808 L39.4851775,38.6088808 C41.1489193,38.6088808 42.5025443,37.2438854 42.5025443,35.5667065 L42.5025443,34.6457652 C42.5025443,32.9680481 41.1489193,31.6035909 39.4851775,31.6035909 L35.0271822,31.6035909 C34.4613926,31.6035909 34.0023557,32.0659454 34.0023557,32.6370259 C34.0023557,33.2081063 34.4613926,33.6704609 35.0271822,33.6704609 L39.4851775,33.6704609 C40.0189413,33.6704609 40.4528913,34.108056 40.4528913,34.6457652 L40.4528913,35.5667065 C40.4528913,36.1044157 40.0189413,36.5420108 39.4851775,36.5420108 L25.7845282,36.5420108 C25.2512981,36.5420108 24.8173482,36.1044157 24.8173482,35.5667065 L24.8173482,34.6457652 C24.8173482,34.108056 25.2512981,33.6704609 25.7845282,33.6704609 L30.2446585,33.6704609 C30.8109819,33.6704609 31.269485,33.2081063 31.269485,32.6370259 C31.269485,32.0659454 30.8109819,31.6035909 30.2446585,31.6035909 L25.7845282,31.6035909 C24.1213202,31.6035909 22.7676951,32.9680481 22.7676951,34.6457652 L22.7676951,35.5667065 C22.7676951,37.2438854 24.1213202,38.6088808 25.7845282,38.6088808 L26.7794639,38.6088808 C27.2166165,40.1870222 28.2024781,44.3465981 28.311366,50.0746268 C26.8125572,50.1456755 25.6142575,51.3938712 25.6142575,52.9224938 L25.6142575,53.6663517 L24.1560148,53.6663517 C22.3593657,48.3317818 21.3484172,44.2012712 17.1402233,39.9894853 C12.8914634,35.7373309 10.582935,30.0695857 10.6400478,24.0315265 C10.7569419,11.7175024 20.6545242,1.90686721 32.9401657,2.06887964 L32.9401657,2.06887964 Z M37.6068627,67.5068453 C37.6068627,68.0445545 37.1729127,68.4821496 36.6396826,68.4821496 L28.6310905,68.4821496 C28.0978604,68.4821496 27.6639105,68.0445545 27.6639105,67.5068453 L27.6639105,65.6105997 L37.6068627,65.6105997 L37.6068627,67.5068453 Z M42.4843962,62.5684254 C42.4843962,63.1061346 42.0504463,63.5437297 41.5166825,63.5437297 C40.9135295,63.5437297 24.3572437,63.5437297 23.7535569,63.5437297 C23.2203269,63.5437297 22.7863768,63.1061346 22.7863768,62.5684254 L22.7863768,61.6474842 C22.7863768,61.109775 23.2203269,60.6721798 23.7535569,60.6721798 L41.5166825,60.6721798 C42.0504463,60.6721798 42.4843962,61.109775 42.4843962,61.6474842 L42.4843962,62.5684254 Z M36.3642605,38.6088808 C35.8486446,40.5966284 35.0063654,44.6388664 34.9086866,50.0681678 L30.3615527,50.0681678 C30.263874,44.6388664 29.4215947,40.5966284 28.9065126,38.6088808 L36.3642605,38.6088808 Z M27.6639105,52.9224938 C27.6639105,52.4881281 28.0140596,52.1350378 28.4442731,52.1350378 L36.8259662,52.1350378 C37.2567136,52.1350378 37.6068627,52.4881281 37.6068627,52.9224938 L37.6068627,53.6663517 L27.6639105,53.6663517 L27.6639105,52.9224938 Z M41.5204189,55.73376 C42.0477775,55.7369894 42.4843962,56.1681256 42.4843962,56.7090643 L42.4843962,57.6294673 C42.4843962,58.1671765 42.0504463,58.6053098 41.5166825,58.6053098 L23.7535569,58.6053098 C23.2203269,58.6053098 22.7863768,58.1671765 22.7863768,57.6294673 L22.7863768,56.7090643 C22.7863768,56.1643579 23.2272657,55.7332217 23.7535569,55.7332217 C24.0118985,55.7332217 41.5204189,55.73376 41.5204189,55.73376 Z" id="Shape"></path>
                        </g>
                    </g>
                </g>
            </g>
        </g>
    </g>
</svg>