<?xml version="1.0" encoding="UTF-8"?>
<svg width="95px" height="70px" viewBox="0 0 95 70" version="1.1" xmlns="http://www.w3.org/2000/svg" xmlns:xlink="http://www.w3.org/1999/xlink">
    <title>FBB00415-C6CA-4418-8E81-36DD8B7EBC63</title>
    <g id="2_Who-We-Are" stroke="none" stroke-width="1" fill="none" fill-rule="evenodd">
        <g id="02.1_Who-We-Are_v4" transform="translate(-203.000000, -1981.000000)" fill="#0065A1" fill-rule="nonzero">
            <g id="BODY" transform="translate(0.000000, 1646.000000)">
                <g id="WHAT-WE-DO" transform="translate(160.000000, 0.000000)">
                    <g id="Principle_1" transform="translate(0.000000, 284.000000)">
                        <g id="050-exchanging" transform="translate(43.000000, 51.000000)">
                            <path d="M3.392856,70 L41.117825,70 C42.9883837,70 44.5099628,68.4777027 44.5099628,66.607144 C44.5099628,55.632242 44.5164255,56.254086 44.4956017,55.8720756 C44.1990408,50.387497 39.445452,48.3697349 39.2372133,48.2842851 C39.2278785,48.2806948 39.2192616,48.2771046 39.210645,48.2735143 L28.1438305,43.9881037 L28.1438305,41.8310372 C29.8614415,40.432247 31.0713807,38.4353089 31.4555454,36.1604797 C33.7756126,35.8165266 35.3187337,33.8935491 35.3187337,31.7400728 C35.3187337,30.7168305 34.9683181,29.7373902 34.3400116,28.9539815 L34.3400116,25.5955926 C34.3400116,18.8752245 28.8733843,13.4085973 22.1530163,13.4085973 C15.4333661,13.4085973 9.96673902,18.8752245 9.96673902,25.5955926 L9.96673902,29.0430217 C9.33196976,29.8156592 8.98873489,30.7505796 8.98873489,31.740791 C8.98873489,33.9337607 10.5849927,35.8373505 12.8497691,36.164788 C13.2432686,38.5336837 14.5207059,40.5751417 16.3539252,41.9689056 L16.3539252,43.9888217 C15.1978408,44.4368942 6.7131875,47.7263488 5.29931801,48.2742323 C5.29070123,48.2778226 5.28208445,48.2806948 5.27346768,48.2842851 C5.05804825,48.3726071 0,50.5196209 0,56.4134965 L0,66.607144 C0,68.4777027 1.52229731,70 3.392856,70 Z M31.5876694,33.2774496 L31.5876694,30.2055684 C32.2059231,30.5014111 32.561365,31.1038675 32.561365,31.7400728 C32.561365,32.3985383 32.1858173,32.9923778 31.5876694,33.2774496 Z M12.7241077,25.5948746 C12.7241077,20.3953676 16.9542273,16.165248 22.1530163,16.165248 C27.3525232,16.165248 31.5826429,20.3953676 31.5826429,25.5948746 L31.5826429,27.3361816 C31.5804886,27.3354636 31.5783344,27.3354636 31.5768983,27.3354636 C31.5352505,26.8206112 31.2207382,26.432138 30.8832477,26.0443832 C30.5069817,25.6106719 29.733626,24.8021311 28.4856295,23.4607861 C27.7826441,22.7046639 26.6445113,22.5660773 25.7806795,23.1311943 C22.4897886,25.2803623 18.5361241,26.2928335 14.9917564,26.0386387 C14.069761,25.9675502 13.215264,26.5154337 12.8763375,27.3512609 C12.8253548,27.3598779 12.7743724,27.3699307 12.7241077,27.3807017 L12.7241077,25.5948746 Z M11.7461036,31.7400728 C11.7461036,31.11033 12.1640172,30.5861428 12.7197993,30.2888639 L12.7197993,33.2774496 C12.1072901,32.9866332 11.7461036,32.3834588 11.7461036,31.7400728 Z M15.477168,34.6073056 C15.477168,34.5656577 15.477168,28.8656597 15.477168,28.8240118 C19.2111048,28.9453649 23.3076644,27.8991444 26.8312083,25.7298708 C27.8838912,26.8586686 28.536612,27.5429843 28.8303804,27.8768845 C28.8303804,27.960898 28.8310187,34.5950983 28.8281464,34.679112 C28.7154103,38.5322475 25.6550181,41.1661091 22.2686247,41.1661091 C18.1835542,41.1653911 15.487939,38.0109326 15.477168,34.6073056 Z M22.2686247,43.9234778 C23.2925851,43.9234778 24.3811711,43.7446797 25.3864618,43.3863654 L25.3864618,44.1949064 C25.3864618,45.0774079 25.8711556,45.8931295 26.6229694,46.3254044 C25.4101581,47.5418062 23.8311336,48.2117606 22.1530163,48.2117606 C20.5043396,48.2117606 18.9504474,47.5662203 17.7462527,46.3885941 C18.5720272,45.9627818 19.1112939,45.0967957 19.1112939,44.1561308 L19.1112939,43.4272952 C20.1201749,43.758323 21.2188141,43.9234778 22.2686247,43.9234778 L22.2686247,43.9234778 Z M2.75736872,56.4134965 C2.75736872,53.6195064 4.56042941,51.5995903 6.3146615,50.8370054 L14.9766769,47.4793345 L15.5382036,48.0760464 C17.29459,49.9415788 19.6433799,50.9691293 22.1537343,50.9691293 C24.6633707,50.9691293 27.0128787,49.9415788 28.768547,48.0760464 L29.3817744,47.4240436 L38.192429,50.8362874 C39.9473793,51.6031806 41.7525941,53.5541625 41.7525941,56.4127783 L41.7525941,66.607144 C41.7525941,66.9568416 41.4675224,67.2419133 41.117825,67.2419133 L36.9896705,67.2419133 L36.9896705,58.1440325 C36.9896705,57.3828839 36.3721348,56.7653482 35.6109861,56.7653482 C34.8491195,56.7653482 34.2323018,57.3828839 34.2323018,58.1440325 L34.2323018,67.2419133 L10.278379,67.2419133 L10.278379,58.1440325 C10.278379,57.3828839 9.66156154,56.7653482 8.89969468,56.7653482 C8.137828,56.7653482 7.52101032,57.3828839 7.52101032,58.1440325 L7.52101032,67.2419133 L3.392856,67.2419133 C3.04244039,67.2419133 2.75736872,66.9568416 2.75736872,66.607144 L2.75736872,56.4134965 Z" id="Shape"></path>
                            <path d="M58.590495,4.23747405 L52.0884185,0.258677203 C50.8957129,-0.470876605 49.399984,0.428858507 49.399984,1.88078557 L49.399984,2.58089858 L37.5289372,2.58089858 C35.72085,2.58089858 34.2495353,4.05149523 34.2495353,5.85958241 C34.2495353,7.6676696 35.72085,9.13898427 37.5289372,9.13898427 L49.399984,9.13898427 L49.399984,9.83837926 C49.399984,11.2917424 50.897149,12.1893234 52.0884185,11.4612056 L58.590495,7.48169078 C59.7702755,6.76075375 59.7702755,4.9598473 58.590495,4.23747405 L58.590495,4.23747405 Z M52.1573527,8.18539425 L52.1573527,7.76029991 C52.1573527,6.99915125 51.540535,6.38161555 50.7786683,6.38161555 L37.5289372,6.38161555 C37.2417113,6.38161555 37.006904,6.14752634 37.006904,5.86030043 C37.006904,5.57235651 37.2409933,5.3382673 37.5289372,5.3382673 L50.7786683,5.3382673 C51.540535,5.3382673 52.1573527,4.72073178 52.1573527,3.95958294 L52.1573527,3.53448859 L55.9587875,5.86030043 L52.1573527,8.18539425 Z" id="Shape"></path>
                            <path d="M56.195749,17.275376 L52.2657805,17.275376 C51.5039138,17.275376 50.8870962,17.8929119 50.8870962,18.6540604 C50.8870962,19.4159273 51.5039138,20.0327448 52.2657805,20.0327448 L56.195749,20.0327448 C58.003836,20.0327448 59.4751508,18.5621481 59.4751508,16.7533431 C59.4751508,14.9452559 58.003836,13.4739412 56.195749,13.4739412 L44.3247022,13.4739412 L44.3247022,12.7745462 C44.3247022,11.3226192 42.8289732,10.4236021 41.6362677,11.1524379 L35.1341911,15.1312347 C33.9551289,15.8528898 33.9536926,17.6530782 35.1341911,18.3761695 L41.6362677,22.3549663 C42.8289732,23.0845201 44.3247022,22.184785 44.3247022,20.732858 L44.3247022,20.033463 L45.831202,20.033463 C46.5930688,20.033463 47.2098863,19.4159273 47.2098863,18.6540604 C47.2098863,17.8929119 46.5930688,17.275376 45.831202,17.275376 L42.9460178,17.275376 C42.1841511,17.275376 41.5666154,17.8929119 41.5666154,18.6540604 L41.5666154,19.079873 L37.7658985,16.7540611 L41.5666154,14.4275313 L41.5666154,14.8533436 C41.5666154,15.6144923 42.1841511,16.232028 42.9460178,16.232028 L56.195749,16.232028 C56.4829749,16.232028 56.7170639,16.4661172 56.7170639,16.7533431 C56.7170639,17.041287 56.4829749,17.275376 56.195749,17.275376 Z" id="Path"></path>
                            <path d="M88.844718,48.2842851 C88.8361012,48.2799768 88.8274844,48.2771046 88.8181496,48.2735143 L80.2602536,44.9589273 L77.7513354,43.9873855 L77.7513354,41.8310372 C79.4689463,40.432247 80.6788854,38.4345907 81.0630501,36.1597615 C83.3831172,35.8158086 84.9262386,33.8928311 84.9262386,31.7400728 C84.9262386,30.7168305 84.5758229,29.7373902 83.9482342,28.9539815 L83.9482342,25.5948746 C83.9482342,18.8752245 78.4808892,13.4078793 71.761239,13.4078793 C65.0415889,13.4078793 59.5742437,18.8752245 59.5742437,25.5948746 L59.5742437,29.0423035 C58.9394744,29.8156592 58.5962395,30.7505796 58.5962395,31.7400728 C58.5962395,33.9330427 60.1924974,35.8366324 62.4572738,36.164788 C62.8507733,38.5336837 64.1289285,40.5751417 65.9621479,41.9681876 L65.9621479,43.9881037 L54.9068227,48.2742323 C54.8982059,48.2771046 54.8895891,48.2806948 54.8809723,48.2842851 C54.8680472,48.2900296 54.8350162,48.3036729 54.7861878,48.3252149 C54.0530437,48.6555247 49.6082228,50.8879881 49.6082228,56.4134965 L49.6082228,66.607862 C49.6082228,68.4777027 51.129802,70 53.0003606,70 L90.7253296,70 C92.5958883,70 94.1181856,68.4784207 94.1181856,66.607862 L94.1181856,63.6465629 C94.1181856,62.8846962 93.501368,62.2678785 92.7395013,62.2678785 C91.9776346,62.2678785 91.3608169,62.8846962 91.3608169,63.6465629 L91.3608169,66.607144 C91.3608169,66.9575596 91.0757452,67.2419133 90.7253296,67.2419133 L86.5978933,67.2419133 L86.5978933,58.1447507 C86.5978933,57.3828839 85.9803576,56.7660664 85.219209,56.7660664 C84.4573421,56.7660664 83.8398066,57.3828839 83.8398066,58.1447507 L83.8398066,67.2419133 L59.8866019,67.2419133 L59.8866019,58.1447507 C59.8866019,57.3828839 59.2690662,56.7660664 58.5071995,56.7660664 C57.7460508,56.7660664 57.1285151,57.3828839 57.1285151,58.1447507 L57.1285151,67.2419133 L53.0003606,67.2419133 C52.6506632,67.2419133 52.3655916,66.9575596 52.3655916,66.607144 L52.3655916,56.4134965 C52.3655916,52.6192423 55.4223932,51.0675043 55.8762102,50.8585475 C55.896316,50.8492127 55.9135496,50.8413139 55.9228843,50.8370054 L64.5848997,47.4793345 L65.1464263,48.0760464 C66.9020946,49.9415788 69.2516025,50.9691293 71.761239,50.9691293 C74.2708754,50.9691293 76.6203833,49.9415788 78.3760516,48.0760464 L78.989997,47.4240436 L87.8006517,50.8362874 C89.6360254,51.6390837 91.3608169,53.6625903 91.3608169,56.4134965 L91.3608169,57.2119845 C91.3608169,57.9738512 91.9776346,58.5913869 92.7395013,58.5913869 C93.501368,58.5913869 94.1181856,57.9738512 94.1181856,57.2119845 L94.1181856,56.4134965 C94.1181856,50.5196209 89.0601374,48.3726071 88.844718,48.2842851 L88.844718,48.2842851 Z M81.195174,33.2774496 L81.195174,30.2055684 C81.8112735,30.4999751 82.1688698,31.1017133 82.1688698,31.7400728 C82.1688698,32.3985383 81.7933219,32.9923778 81.195174,33.2774496 Z M62.3316124,25.5948746 C62.3316124,20.3953676 66.561732,16.165248 71.761239,16.165248 C76.9607459,16.165248 81.1901475,20.3953676 81.1901475,25.5948746 L81.1901475,27.3361816 C81.1887113,27.3354636 81.1865572,27.3354636 81.184403,27.3354636 C81.1434733,26.8242015 80.8426042,26.4479355 80.4914705,26.0443832 C80.0800193,25.5704603 79.4861798,24.9579511 78.0938522,23.4607861 C77.3901487,22.7046639 76.2520161,22.5660773 75.3881842,23.1311943 C72.1511482,25.2458952 68.1881487,26.2964238 64.599261,26.0386387 C63.6650588,25.966114 62.8184604,26.5262045 62.4838421,27.3512609 C62.4328595,27.3598779 62.382595,27.3699307 62.3316124,27.3807017 L62.3316124,25.5948746 Z M61.3536083,31.7400728 C61.3536083,31.109612 61.7736761,30.5854246 62.3273041,30.2888639 L62.3273041,33.2774496 C61.7155129,32.9866332 61.3536083,32.3834588 61.3536083,31.7400728 Z M65.0846728,34.6073056 C65.0846728,34.6058693 65.0846728,34.6051513 65.0846728,34.6044333 L65.0846728,28.8240118 C68.8861076,28.948237 72.9683058,27.8668315 76.438713,25.7298708 C77.492114,26.8586686 78.1448349,27.5429843 78.4378053,27.8768845 L78.4378053,34.6065874 C78.424162,38.2902597 75.4341403,41.1661091 71.8761293,41.1661091 C67.7106356,41.1653911 65.0961618,37.9305093 65.0846728,34.6073056 Z M67.3544755,46.3885941 C68.1795319,45.9627818 68.7195166,45.0967957 68.7195166,44.1561308 L68.7195166,43.4272952 C69.721935,43.7561688 70.819138,43.9234778 71.8761293,43.9234778 C72.9000898,43.9234778 73.989394,43.7446797 74.9939666,43.3863654 L74.9939666,44.1949064 C74.9939666,45.0766899 75.4786602,45.8924115 76.2304741,46.3254044 C73.7395074,48.825706 69.8590854,48.8379131 67.3544755,46.3885941 Z" id="Shape"></path>
                        </g>
                    </g>
                </g>
            </g>
        </g>
    </g>
</svg>