<?xml version="1.0" encoding="utf-8"?>
<!-- Generator: Adobe Illustrator 25.3.1, SVG Export Plug-In . SVG Version: 6.00 Build 0)  -->
<svg version="1.1" id="Capa_1" xmlns="http://www.w3.org/2000/svg" xmlns:xlink="http://www.w3.org/1999/xlink" x="0px" y="0px"
	 viewBox="0 0 512 318.9" style="enable-background:new 0 0 512 318.9;" xml:space="preserve">
<g>
	<g>
		<path d="M407.5,110c-13.2,0-25.9,2.5-37.5,7c-9.1-20.3-17-41.7-20.9-61.7C342.8,23.3,314.5,0,281.8,0c-8.3,0-15,6.7-15,15
			s6.7,15,15,15c3.6,0,7,0.5,10.4,1.4c10.1,2.8,18.6,9.6,23.6,18.8c-0.4,0.5-0.8,1-1.1,1.6l-4.7,7.8l-23.6,39.7h-126l-7.2-18h3
			c8.3,0,15-6.7,15-15s-6.7-15-15-15h-51.7c-8.3,0-15,6.7-15,15s6.7,15,15,15h16.5l13.1,32.9c-9.4-2.8-19.3-4.3-29.6-4.3
			C46.9,110,0,156.9,0,214.5s46.9,104.5,104.5,104.5c52.5,0,96.1-38.9,103.4-89.5h27.5c5.3,0,10.2-2.8,12.9-7.3l78.8-132.7
			c4.6,14.3,10.4,28.6,16.7,42.3c-24.7,19.1-40.7,49.1-40.7,82.7c0,57.6,46.9,104.5,104.5,104.5S512,272.1,512,214.5
			S465.1,110,407.5,110z M104.5,229.5h73c-7,33.9-37,59.5-73,59.5c-41.1,0-74.5-33.4-74.5-74.5S63.4,140,104.5,140
			c35.9,0,66,25.6,73,59.5h-73c-8.3,0-15,6.7-15,15S96.2,229.5,104.5,229.5z M226.9,199.5h-19c-3.5-24.1-15.2-45.6-32.2-61.4
			c-0.2-0.6-0.3-1.2-0.6-1.8l-2.7-6.9h96.2L226.9,199.5z M407.5,288.9c-41.1,0-74.5-33.4-74.5-74.5c0-21.8,9.4-41.4,24.3-55
			c18.4,35.3,36.5,61.5,37.8,63.5c2.9,4.2,7.6,6.5,12.4,6.5c2.9,0,5.9-0.9,8.5-2.7c6.8-4.7,8.5-14,3.8-20.9
			c-0.3-0.5-18.5-26.9-36.7-61.9c7.6-2.6,15.8-4.1,24.3-4.1c41.1,0,74.5,33.4,74.5,74.5S448.6,288.9,407.5,288.9z"/>
	</g>
</g>
</svg>
