<?xml version="1.0" encoding="UTF-8"?>
<svg width="70px" height="70px" viewBox="0 0 70 70" version="1.1" xmlns="http://www.w3.org/2000/svg" xmlns:xlink="http://www.w3.org/1999/xlink">
    <!-- Generator: Sketch 63.1 (92452) - https://sketch.com -->
    <title>040-steering-wheel</title>
    <desc>Created with Sketch.</desc>
    <g id="3_What-We-Believe" stroke="none" stroke-width="1" fill="none" fill-rule="evenodd">
        <g id="03_What-We-Believe_v4" transform="translate(-203.000000, -2138.000000)" fill="#0065A1" fill-rule="nonzero">
            <g id="BODY">
                <g id="GUIDING-PRINCIPLES" transform="translate(160.000000, 1333.000000)">
                    <g id="Principle_4" transform="translate(0.000000, 755.000000)">
                        <g id="040-steering-wheel" transform="translate(43.000000, 50.000000)">
                            <path d="M40.0545497,34.0517879 C40.0545497,34.0517879 40.0545497,34.0517879 40.0545497,34.0512539 L38.3482488,31.0963357 C38.0107269,30.511547 37.3816118,30.1478566 36.7060341,30.1478566 L33.2934319,30.1478566 C32.6183882,30.1478566 31.988739,30.511547 31.6512172,31.0963357 L29.9449162,34.0512539 C29.6073944,34.6360426 29.6073944,35.3634234 29.9449162,35.9482121 L31.6512172,38.9031303 C31.988739,39.487919 32.6183882,39.8516094 33.2934319,39.8516094 L36.7060341,39.8516094 C37.3810778,39.8516094 38.0107269,39.487919 38.3482488,38.9031303 L40.0545497,35.9476781 C40.3920716,35.3628894 40.3920716,34.6365766 40.0545497,34.0517879 L40.0545497,34.0517879 Z M36.6168471,37.8003098 L33.3831529,37.8003098 L31.7660388,34.999733 L33.3831529,32.1991562 L36.6168471,32.1991562 L38.2339612,34.999733 L36.6168471,37.8003098 Z" id="Shape"></path>
                            <path d="M46.7878968,23.2121032 C46.7558536,23.180594 46.7222083,23.1522892 46.6874947,23.1255866 C43.677035,20.1615894 39.5488011,18.3292516 34.999733,18.3292516 C30.451199,18.3292516 26.322431,20.1615894 23.3119712,23.1255866 C23.2772577,23.1522892 23.2436124,23.180594 23.2121032,23.2121032 C23.180594,23.2436124 23.1522892,23.2772577 23.1261206,23.3119712 C20.1615894,26.322431 18.3297856,30.451199 18.3297856,34.999733 C18.3297856,39.5488011 20.1615894,43.677035 23.1261206,46.6880289 C23.1522892,46.7222083 23.180594,46.7558536 23.2121032,46.7873628 C23.2436124,46.818872 23.2772577,46.8471768 23.3119712,46.8738794 C26.322431,49.8378766 30.451199,51.6702144 34.999733,51.6702144 C39.5488011,51.6702144 43.677035,49.8378766 46.6874947,46.8744136 C46.7222083,46.8477108 46.7558536,46.819406 46.7878968,46.7873628 C46.819406,46.7558536 46.8477108,46.7222083 46.8744136,46.6874947 C49.8384106,43.6765009 51.6702144,39.548267 51.6702144,34.999733 C51.6702144,30.451199 49.8384106,26.322965 46.8744136,23.3125053 C46.8477108,23.2777918 46.819406,23.2436124 46.7878968,23.2121032 L46.7878968,23.2121032 Z M46.032211,44.5817217 L42.320539,40.8700495 C43.4116104,39.5124854 44.1336508,37.8467725 44.3328527,36.0251158 L49.582599,36.0251158 C49.3556262,39.2860467 48.055206,42.2553844 46.032211,44.5817217 Z M20.416867,36.0251158 L25.6671473,36.0251158 C25.8658152,37.8467725 26.5878556,39.5124854 27.678927,40.8700495 L23.967255,44.5817217 C21.94426,42.2559185 20.6438397,39.2860467 20.416867,36.0251158 Z M23.967255,25.4177443 L27.678927,29.1294164 C26.5878556,30.4869806 25.8658152,32.1526935 25.6671473,33.9743502 L20.417401,33.9743502 C20.6438397,30.7134193 21.94426,27.7435475 23.967255,25.4177443 Z M34.999733,42.3386968 C30.9532093,42.3386968 27.6607691,39.0462567 27.6607691,34.999733 C27.6607691,30.9526753 30.9532093,27.6602351 34.999733,27.6602351 C39.0467907,27.6602351 42.3392309,30.9526753 42.3392309,34.999733 C42.3392309,39.0462567 39.0467907,42.3386968 34.999733,42.3386968 L34.999733,42.3386968 Z M40.8705836,27.678927 C39.5124854,26.5878556 37.8467725,25.8658152 36.0251158,25.6666133 L36.0251158,20.416867 C39.2860467,20.6438397 42.2559185,21.94426 44.5817217,23.967255 L40.8705836,27.678927 Z M33.9743502,25.6666133 C32.1526935,25.8658152 30.4869806,26.5878556 29.1294164,27.678927 L25.4177443,23.967255 C27.7435475,21.94426 30.7134193,20.6438397 33.9743502,20.416867 L33.9743502,25.6666133 Z M29.1294164,42.320539 C30.4875146,43.4116104 32.1526935,44.1336508 33.9743502,44.3323187 L33.9743502,49.582599 C30.7134193,49.3556262 27.7440816,48.055206 25.4177443,46.032211 L29.1294164,42.320539 Z M36.0251158,44.3328527 C37.8467725,44.1336508 39.5124854,43.4116104 40.8705836,42.320539 L44.5817217,46.032211 C42.2559185,48.055206 39.2860467,49.3556262 36.0251158,49.582599 L36.0251158,44.3328527 Z M44.3328527,33.9743502 C44.1341848,32.1526935 43.4121444,30.4869806 42.321073,29.1294164 L46.032211,25.4177443 C48.055206,27.7440816 49.3556262,30.7134193 49.582599,33.9743502 L44.3328527,33.9743502 Z" id="Shape"></path>
                            <path d="M35.2005371,33.9946443 C34.5938523,33.8691417 33.9738162,34.3294958 33.9738162,34.999733 C33.9738162,35.5685 34.4379087,36.0251158 34.999733,36.0251158 C35.5652957,36.0251158 36.0251158,35.5652957 36.0251158,34.999733 C36.0251158,34.5084037 35.6747767,34.0848993 35.2005371,33.9946443 Z" id="Path"></path>
                            <path d="M67.1155768,32.0378721 L61.6949333,32.0378721 C61.6447324,31.0119552 60.7966553,30.1921831 59.7579212,30.1921831 L58.6476239,30.1921831 C57.5768466,30.1921831 56.7058052,31.0632243 56.7058052,32.1340016 L56.7058052,33.9743502 L55.5170019,33.9743502 C55.2750757,29.0813517 53.3140311,24.6337538 50.2261336,21.2238218 L51.0736765,20.3762788 L52.374631,21.6777674 C52.753275,22.0564113 53.2504788,22.2454663 53.7476826,22.2454663 C54.2454205,22.2454663 54.7420903,22.0564113 55.1212683,21.6777674 L55.9063271,20.8927086 C56.6401166,20.158385 56.6604107,18.9791947 55.9704135,18.2176345 L59.8033157,14.3847322 C60.9274984,13.2605495 60.9274984,11.430348 59.8033157,10.3056312 L59.6938348,10.1961502 C58.569118,9.07196757 56.7394506,9.07196757 55.6147338,10.1961502 L51.7818315,14.0290525 C51.0202712,13.3390553 49.841615,13.3593494 49.1072914,14.0936731 L48.3222326,14.8787317 C47.5649447,15.6354855 47.5649447,16.8675471 48.3222326,17.624835 L49.6231872,18.9263235 L48.7756442,19.7738664 C45.3657122,16.6859689 40.9181143,14.7243903 36.0256498,14.482464 L36.0256498,13.2936608 L37.8659984,13.2936608 C38.9367757,13.2936608 39.8078171,12.4226194 39.8078171,11.3518421 L39.8078171,10.2415448 C39.8078171,9.20334467 38.9875108,8.35526765 37.9615939,8.30453266 L37.9615939,2.88442315 C37.9615939,1.29401177 36.6675822,0 35.0771707,0 L34.9222953,0 C33.3318837,0 32.0384061,1.29401177 32.0384061,2.88442315 L32.0384061,8.30453266 C31.0119552,8.35526765 30.1921831,9.20334467 30.1921831,10.2415448 L30.1921831,11.3518421 C30.1921831,12.4226194 31.0632243,13.2936608 32.1340016,13.2936608 L33.9743502,13.2936608 L33.9743502,14.482464 C29.0813517,14.7243903 24.6337538,16.6859689 21.224356,19.7738664 L20.376813,18.9263235 L21.6777674,17.624835 C22.0446622,17.2579403 22.2465344,16.7703493 22.2465344,16.2517834 C22.2465344,15.7332174 22.0446622,15.2450924 21.6777674,14.8787317 L20.8927086,14.0936731 C20.158385,13.3593494 18.9791947,13.3390553 18.2181685,14.0290525 L14.3852662,10.1961502 C13.2605495,9.07196757 11.430882,9.07143341 10.3066994,10.1961502 L10.1966843,10.3056312 C9.07196757,11.430348 9.07196757,13.2600154 10.1966843,14.3847322 L14.0290525,18.2176345 C13.3395893,18.9791947 13.3593494,20.158385 14.0936731,20.8927086 L14.8787317,21.6777674 C15.2573756,22.0564113 15.7545795,22.2454663 16.2517834,22.2454663 C16.7489871,22.2454663 17.246191,22.0558773 17.624835,21.6777674 L18.9263235,20.3762788 L19.7738664,21.2238218 C16.6859689,24.6337538 14.7243903,29.0813517 14.4829981,33.9743502 L13.2941948,33.9743502 L13.2941948,32.1340016 C13.2941948,31.0632243 12.4231536,30.1921831 11.3518421,30.1921831 L10.2420788,30.1921831 C9.20334467,30.1921831 8.35526765,31.0119552 8.30506668,32.0378721 L2.88442315,32.0378721 C1.29401177,32.0378721 -5.44005132e-14,33.3318837 -5.44005132e-14,34.9222953 L-5.44005132e-14,35.0771707 C-5.44005132e-14,36.6675822 1.29401177,37.9615939 2.88442315,37.9615939 L8.30506668,37.9615939 C8.35526765,38.9875108 9.20334467,39.8072829 10.2420788,39.8072829 L11.3518421,39.8072829 C12.4231536,39.8072829 13.2941948,38.9362417 13.2941948,37.8654644 L13.2941948,36.0251158 L14.4829981,36.0251158 C14.7243903,40.9181143 16.6859689,45.3657122 19.7738664,48.7756442 L18.9263235,49.6231872 L17.624835,48.3216986 C16.8675471,47.5649447 15.6354855,47.5649447 14.8787317,48.3216986 L14.0936731,49.1067574 C13.3593494,49.841081 13.3395893,51.0208053 14.0290525,51.7818315 L10.1966843,55.6147338 C9.07196757,56.7394506 9.07196757,58.569118 10.1972184,59.6943688 L10.3061652,59.8033157 C11.430348,60.9274984 13.2605495,60.9280326 14.3852662,59.8033157 L18.2176345,55.9704135 C18.5866655,56.3047309 19.0523602,56.4740259 19.5196571,56.4740259 C20.0168608,56.4740259 20.5140647,56.284437 20.8927086,55.9063271 L21.6777674,55.1212683 C22.0446622,54.7543736 22.2465344,54.2667826 22.2465344,53.7476826 C22.2465344,53.2291167 22.0441281,52.7415257 21.6777674,52.375165 L20.3762788,51.0736765 L21.2238218,50.2261336 C24.6337538,53.3140311 29.0813517,55.2756099 33.9743502,55.5170019 L33.9743502,56.7058052 L32.1340016,56.7058052 C31.0632243,56.7058052 30.1921831,57.5768466 30.1921831,58.6476239 L30.1921831,59.7579212 C30.1921831,60.7966553 31.0119552,61.6447324 32.0378721,61.6949333 L32.0378721,67.1155768 C32.0378721,68.7059882 33.3318837,70 34.9222953,70 L35.0771707,70 C36.6067001,70 37.8708048,68.802118 37.9546512,67.2736567 C37.9861604,66.708094 37.5525089,66.2242415 36.9869462,66.1932663 C36.4229856,66.1601551 35.938065,66.5954086 35.90709,67.1609714 C35.8830576,67.595691 35.5108222,67.9492344 35.0771707,67.9492344 L34.9222953,67.9492344 C34.4630092,67.9492344 34.0891717,67.5753969 34.0891717,67.1155768 L34.0891717,61.7002739 L35.9108283,61.7002739 L35.9108283,62.4319273 C35.9108283,62.9985581 36.3695803,63.4573101 36.9362111,63.4573101 C37.502308,63.4573101 37.9615939,62.9985581 37.9615939,62.4319273 L37.9615939,61.6954675 C38.9875108,61.6447324 39.8072829,60.7966553 39.8072829,59.7584552 L39.8072829,58.6481579 C39.8072829,57.5773806 38.9362417,56.7063392 37.8654644,56.7063392 L36.0251158,56.7063392 L36.0251158,55.5175361 C40.9181143,55.2756099 45.3657122,53.3140311 48.7756442,50.2261336 L49.6231872,51.0736765 L48.3216986,52.375165 C47.5649447,53.1324529 47.5649447,54.3639804 48.3216986,55.1212683 C49.0934061,55.8929756 49.512104,56.4740259 50.4798089,56.4740259 C50.9471058,56.4740259 51.4133346,56.3047309 51.7818315,55.9709475 L55.6147338,59.8033157 C56.7389164,60.9280326 58.569118,60.9280326 59.6938348,59.8033157 L59.8027817,59.6938348 C60.9274984,58.5696521 60.9274984,56.7394506 59.8033157,55.6147338 L55.9704135,51.7823655 C56.6604107,51.0208053 56.6401166,49.841615 55.9057929,49.1072914 L55.1207343,48.3222326 C54.3634463,47.5649447 53.1319189,47.5649447 52.374631,48.3222326 L51.0731424,49.6237212 L50.2255996,48.7756442 C53.3134971,45.3662463 55.2750757,40.9186484 55.5170019,36.0256498 L56.7058052,36.0256498 L56.7058052,37.8659984 C56.7058052,38.9367757 57.5768466,39.8078171 58.6476239,39.8078171 L59.7579212,39.8078171 C60.7961213,39.8078171 61.6441983,38.9880448 61.6949333,37.9615939 L62.4313932,37.9615939 C62.998024,37.9615939 63.456776,37.502842 63.456776,36.9362111 C63.456776,36.3701144 62.998024,35.9108283 62.4313932,35.9108283 L61.6997399,35.9108283 L61.6997399,34.0897058 L67.1150428,34.0897058 C67.5743289,34.0897058 67.9487004,34.4635432 67.9487004,34.9228293 L67.9487004,35.0777047 C67.9487004,35.5113564 67.5951569,35.8835916 67.1604373,35.90709 C66.5948746,35.938065 66.1617573,36.4219176 66.1927323,36.9874802 C66.2237074,37.5525089 66.7091621,37.9861604 67.2725887,37.9551854 C68.8015838,37.8713389 69.9989321,36.6072341 69.9989321,35.0777047 L69.9989321,34.9228293 C69.9989321,33.3318837 68.7059882,32.0378721 67.1155768,32.0378721 L67.1155768,32.0378721 Z M57.0646892,11.6466397 C57.3899277,11.3219351 57.9186408,11.3219351 58.2433454,11.6466397 L58.3528263,11.7561206 C58.6759287,12.0786889 58.6759287,12.6122085 58.3528263,12.9347768 L54.5236625,16.7639408 L53.2355252,15.4758035 L57.0646892,11.6466397 Z M50.4798089,15.6210661 C51.5244178,16.6651408 54.2069686,19.3476918 54.3789339,19.5196571 L53.7476826,20.1503743 L49.8490917,16.2517834 L50.4798089,15.6210661 Z M34.0891717,2.88442315 C34.0891717,2.42460308 34.4630092,2.0507656 34.9222953,2.0507656 L35.0771707,2.0507656 C35.5369909,2.0507656 35.9108283,2.42460308 35.9108283,2.88442315 L35.9108283,8.29972608 L34.0891717,8.29972608 L34.0891717,2.88442315 Z M32.2429487,10.3504917 L37.7565173,10.3504917 L37.7565173,11.2428952 L32.2429487,11.2428952 L32.2429487,10.3504917 Z M11.6461056,11.7566548 L11.7566548,11.6466397 C12.0813593,11.3219351 12.6100723,11.3214011 12.9347768,11.6466397 L16.7639408,15.4758035 L15.4758035,16.7639408 L11.6466397,12.9347768 C11.3219351,12.6100723 11.3219351,12.0808252 11.6461056,11.7566548 Z M16.2517834,20.1503743 L15.6210661,19.5196571 C15.6531094,19.4870797 15.2114471,19.928742 19.5196571,15.6210661 L20.1503743,16.2517834 C15.5073127,20.8948448 22.1648242,14.2373334 16.2517834,20.1503743 Z M2.0507656,35.0771707 L2.0507656,34.9222953 C2.0507656,34.4630092 2.42460308,34.0891717 2.88442315,34.0891717 L8.29972608,34.0891717 L8.29972608,35.9102942 L2.88442315,35.9102942 C2.42460308,35.9102942 2.0507656,35.5364568 2.0507656,35.0771707 Z M11.2428952,37.7565173 L10.3510258,37.7565173 C10.3510258,35.6475399 10.3510258,34.0085296 10.3510258,32.2429487 L11.2428952,32.2429487 L11.2428952,37.7565173 Z M12.9347768,58.3528263 C12.6100723,58.6775309 12.0813593,58.6780649 11.7561206,58.3522923 L11.6466397,58.2433454 C11.3219351,57.9181067 11.3219351,57.3893937 11.6466397,57.0646892 L15.4758035,53.2355252 L16.7639408,54.5236625 L12.9347768,58.3528263 Z M19.5196571,54.3783999 L18.9407429,53.8000199 C18.9402089,53.7994857 18.9402089,53.7989517 18.9396748,53.7984177 L16.2015823,51.0603252 C16.2010483,51.0597911 16.2005143,51.0592571 16.1999802,51.0587231 L15.6210661,50.4798089 L16.2517834,49.8490917 L18.2000107,51.797319 C18.2000107,51.797319 18.2010788,51.7983872 18.2010788,51.7983872 C18.2010788,51.7983872 18.2021469,51.7994553 18.202681,51.7999893 L20.1509083,53.7476826 L19.5196571,54.3783999 Z M37.7565173,59.6489743 C35.6480741,59.6489743 34.0085296,59.6489743 32.2429487,59.6489743 L32.2429487,58.7565708 L37.7565173,58.7565708 L37.7565173,59.6489743 Z M58.3528263,58.2433454 L58.2433454,58.3528263 C57.9186408,58.6775309 57.3893937,58.6775309 57.0646892,58.3528263 L53.2355252,54.5236625 L54.5236625,53.2355252 L58.3528263,57.0646892 C58.6759287,57.3872575 58.6759287,57.920777 58.3528263,58.2433454 Z M53.7476826,49.8490917 L54.3783999,50.4798089 C54.2614422,50.5973008 54.9893572,49.8693858 50.4798089,54.3783999 L49.8490917,53.7476826 L53.7476826,49.8490917 Z M34.999733,53.4913369 C24.8035827,53.4913369 16.5081291,45.1958832 16.5081291,34.999733 C16.5081291,24.8035827 24.8035827,16.5081291 34.999733,16.5081291 C45.1964173,16.5081291 53.4918709,24.8035827 53.4918709,34.999733 C53.4918709,45.1958832 45.1964173,53.4913369 34.999733,53.4913369 L34.999733,53.4913369 Z M59.6489743,37.7565173 L58.7571048,37.7565173 L58.7571048,32.2429487 L59.6489743,32.2429487 L59.6489743,37.7565173 Z" id="Shape"></path>
                        </g>
                    </g>
                </g>
            </g>
        </g>
    </g>
</svg>