<?xml version="1.0" encoding="UTF-8"?>
<svg width="71px" height="71px" viewBox="0 0 71 71" version="1.1" xmlns="http://www.w3.org/2000/svg" xmlns:xlink="http://www.w3.org/1999/xlink">
    <!-- Generator: Sketch 63.1 (92452) - https://sketch.com -->
    <title>017-chart</title>
    <desc>Created with Sketch.</desc>
    <g id="2_Who-We-Are" stroke="none" stroke-width="1" fill="none" fill-rule="evenodd">
        <g id="02.1_Who-We-Are_v4" transform="translate(-1034.000000, -3692.000000)" fill="#0065A1" fill-rule="nonzero">
            <g id="BODY" transform="translate(0.000000, 1437.000000)">
                <g id="CULTURE" transform="translate(160.000000, 2038.000000)">
                    <g id="Pillar_3" transform="translate(825.000000, 165.000000)">
                        <g id="017-chart" transform="translate(49.972391, 52.407843)">
                            <path d="M55.0741712,36.3160164 C55.6559727,24.6516807 46.4112024,14.9858535 34.9806737,14.9858535 C23.8864155,14.9858535 14.8610216,24.0870604 14.8610216,35.2745098 C14.8610216,46.461421 23.8869493,55.5631661 34.9806737,55.5631661 C45.6073556,55.5631661 54.5265308,47.1853622 55.0741712,36.3160164 Z M53.0207862,34.2410769 L36.0054981,34.2410769 L36.0054981,17.0828611 C45.1296381,17.6006542 52.5062388,24.9794727 53.0207862,34.2410769 Z M37.4514613,36.3079427 L53.0207862,36.3079427 C52.7837954,40.5611651 51.0933689,44.4290029 48.4437708,47.4141169 L37.4514613,36.3079427 Z M46.9930037,48.8743792 C45.7162432,50.0224585 44.2772189,50.9907637 42.715963,51.7400025 L37.8379055,39.6246164 L46.9930037,48.8743792 Z M16.9106704,35.2745098 C16.9106704,25.5736966 24.4671494,17.6205692 33.9558492,17.0828611 L33.9558492,35.2745098 C33.9558492,35.4160686 33.9873413,35.5608568 34.0375149,35.6787328 L40.817369,52.5199214 C38.9854954,53.1523608 37.022316,53.4957619 34.9806737,53.4957619 C25.0169249,53.4963003 16.9106704,45.3219536 16.9106704,35.2745098 Z" id="Shape"></path>
                            <path d="M68.9365229,36.7272366 C68.3702007,36.7272366 67.9116985,37.1895902 67.9116985,37.7606695 L67.9116985,38.336593 C67.9116985,38.8527712 67.4953636,39.2726034 66.9834851,39.2726034 L61.6197035,39.2726034 C60.6696059,39.2726034 59.8614892,39.9271109 59.6533217,40.8647359 C59.0192115,43.7260533 57.9063163,46.4339704 56.3466616,48.9131329 C55.8363844,49.7248084 55.9484747,50.7647002 56.6199481,51.441814 L60.4133998,55.2665923 C60.775291,55.6315232 60.775291,56.2257472 60.4133998,56.5901399 L56.1192787,60.9208697 C55.7573875,61.2858008 55.1681135,61.2858008 54.8067562,60.9208697 L51.0133045,57.0955532 C50.341831,56.4184394 49.3111352,56.3054076 48.506221,56.8199711 C46.0471761,58.3927269 43.361816,59.5144322 40.5243332,60.154407 C39.5950523,60.3643231 38.9454631,61.1792279 38.9454631,62.1367682 L38.9454631,67.5456052 C38.9454631,68.0617835 38.5291282,68.4816156 38.0172497,68.4816156 L37.1333387,68.4816156 C36.5670165,68.4816156 36.1085143,68.9445074 36.1085143,69.5150485 C36.1085143,70.0861278 36.5670165,70.5484814 37.1333387,70.5484814 L38.0172497,70.5484814 C39.6596377,70.5484814 40.995112,69.2017891 40.995112,67.5456052 L40.995112,62.1663716 C44.047701,61.4752635 46.9369586,60.267977 49.5844217,58.5778836 L53.3570566,62.3822085 C54.5185243,63.5534324 56.4075106,63.5528941 57.5684445,62.3822085 L61.8630993,58.0514786 C63.0240333,56.880793 63.0240333,54.9759393 61.8630993,53.8052536 L58.0899307,50.0003905 C59.7659456,47.331227 60.9631754,44.4176998 61.6485266,41.3394692 L66.9834851,41.3394692 C68.6253392,41.3394692 69.9613473,39.9922386 69.9613473,38.336593 L69.9613473,37.7601312 C69.9613473,37.1895902 69.5023114,36.7272366 68.9365229,36.7272366 L68.9365229,36.7272366 Z" id="Path"></path>
                            <path d="M66.9834851,29.2095504 L61.6485266,29.2095504 C60.9631754,26.1313198 59.7664794,23.2177926 58.0904644,20.5480909 L61.8630993,16.743766 C63.0240333,15.5730803 63.0240333,13.6676884 61.8630993,12.4970026 L57.5684445,8.16627293 C56.4043079,6.99289599 54.5211931,6.99289599 53.3570566,8.16627293 L49.5844217,11.9705978 C46.9374923,10.2810426 44.047701,9.07375613 40.995112,8.38264801 L40.995112,3.00287617 C40.995112,1.34723053 39.6596377,0 38.0172497,0 L31.9440976,0 C30.3017096,0 28.9662353,1.34723053 28.9662353,3.00287617 L28.9662353,8.38264801 C25.9136463,9.07375613 23.0243887,10.2810426 20.3769256,11.971136 L16.6042907,8.16627293 C15.4433568,6.99558718 13.5543705,6.99558718 12.3929028,8.16627293 L8.098248,12.4970026 C6.93731405,13.6676884 6.93731405,15.5730803 8.098248,16.743766 L11.8714166,20.5480909 C10.194868,23.2177926 8.99817188,26.1313198 8.31282068,29.2095504 L2.97786225,29.2095504 C1.33600812,29.2095504 -2.33018096e-14,30.5562426 -2.33018096e-14,32.2124266 L-2.33018096e-14,38.336593 C-2.33018096e-14,39.9922386 1.33600812,41.3394692 2.97786225,41.3394692 L8.31282068,41.3394692 C8.99817188,44.4176998 10.1954017,47.331227 11.8714166,50.0009287 L8.09878173,53.8052536 C7.53566216,54.3725651 7.22607964,55.1266483 7.22607964,55.9286352 C7.22607964,56.7306223 7.53566216,57.4847053 8.098248,58.052017 L12.3929028,62.3827467 C13.5543705,63.5534324 15.4433568,63.5534324 16.6042907,62.3827467 L20.3769256,58.5778836 C23.0243887,60.267977 25.9136463,61.4752635 28.9662353,62.1663716 L28.9662353,67.5461434 C28.9662353,69.2017891 30.3017096,70.5490196 31.9440976,70.5490196 L32.3508247,70.5490196 C32.9166132,70.5490196 33.3756491,70.0861278 33.3756491,69.5155867 C33.3756491,68.9445074 32.9166132,68.4821538 32.3508247,68.4821538 L31.9440976,68.4821538 C31.4322191,68.4821538 31.0158842,68.0623217 31.0158842,67.5461434 L31.0158842,62.1373064 C31.0158842,61.1797662 30.3668287,60.3643231 29.4370141,60.154407 C26.5995314,59.5149704 23.9141712,58.3932651 21.4551263,56.8199711 C20.6507459,56.3054076 19.6195163,56.4189776 18.9480429,57.0960915 L15.1545912,60.9208697 C14.7932338,61.286339 14.2039598,61.2858008 13.8426025,60.9208697 L9.54794755,56.5906782 C9.37233965,56.4135951 9.27572849,56.1789198 9.27572849,55.9286352 C9.27572849,55.6788889 9.37233965,55.4436753 9.54794755,55.2671305 L13.3413992,51.441814 C14.0128727,50.7647002 14.1249629,49.7248084 13.6146857,48.9136712 C12.055031,46.4339704 10.9421358,43.7260533 10.3080257,40.8647359 C10.0998581,39.9271109 9.29174144,39.2726034 8.34217753,39.2726034 L2.97786225,39.2726034 C2.46598377,39.2726034 2.04964885,38.8527712 2.04964885,38.336593 L2.04964885,32.2124266 C2.04964885,31.6962484 2.46598377,31.2764163 2.97786225,31.2764163 L8.34217753,31.2764163 C9.29174144,31.2764163 10.0998581,30.6213705 10.3080257,29.6837454 C10.9421358,26.8229663 12.055031,24.1150492 13.6146857,21.6353485 C14.1249629,20.8242112 14.0128727,19.7843194 13.3413992,19.1072056 L9.54794755,15.2818891 C9.18605635,14.916958 9.18605635,14.3232724 9.54794755,13.9583414 L13.8426025,9.62814989 C14.2039598,9.26321883 14.7932338,9.26321883 15.1545912,9.62814989 L18.9480429,13.4529281 C19.6195163,14.130042 20.6507459,14.243612 21.45566,13.7290485 C23.9141712,12.1562928 26.5995314,11.0340492 29.4370141,10.3946126 C30.3668287,10.1846965 31.0158842,9.36979167 31.0158842,8.41171324 L31.0158842,3.00287617 C31.0158842,2.48669793 31.4322191,2.06686581 31.9440976,2.06686581 L38.0172497,2.06686581 C38.5291282,2.06686581 38.9454631,2.48669793 38.9454631,3.00287617 L38.9454631,8.41171324 C38.9454631,9.36979167 39.5950523,10.1846965 40.5248671,10.3946126 C43.361816,11.0340492 46.0471761,12.1557545 48.506221,13.7285102 C49.3111352,14.243612 50.341831,14.1305802 51.0133045,13.4529281 L54.8067562,9.62814989 C55.1691811,9.26214241 55.7563201,9.26214241 56.1192787,9.62814989 L60.4133998,13.9583414 C60.775291,14.3232724 60.775291,14.916958 60.4133998,15.2818891 L56.620482,19.1072056 C55.9484747,19.7843194 55.8363844,20.823673 56.3466616,21.6353485 C57.9063163,24.1150492 59.0192115,26.8229663 59.6533217,29.6837454 C59.8614892,30.6213705 60.6696059,31.2764163 61.6197035,31.2764163 L66.9834851,31.2764163 C67.4953636,31.2764163 67.9116985,31.6962484 67.9116985,32.2124266 L67.9116985,32.9374443 C67.9116985,33.5085237 68.3702007,33.9708772 68.9365229,33.9708772 C69.5028451,33.9708772 69.9613473,33.5085237 69.9613473,32.9374443 L69.9613473,32.2124266 C69.9613473,30.5562426 68.6253392,29.2095504 66.9834851,29.2095504 L66.9834851,29.2095504 Z" id="Path"></path>
                        </g>
                    </g>
                </g>
            </g>
        </g>
    </g>
</svg>