<?xml version="1.0" encoding="UTF-8"?>
<svg width="70px" height="70px" viewBox="0 0 70 70" version="1.1" xmlns="http://www.w3.org/2000/svg" xmlns:xlink="http://www.w3.org/1999/xlink">
    <!-- Generator: Sketch 63.1 (92452) - https://sketch.com -->
    <title>048-search-1</title>
    <desc>Created with Sketch.</desc>
    <g id="3_What-We-Believe" stroke="none" stroke-width="1" fill="none" fill-rule="evenodd">
        <g id="03_What-We-Believe_v4" transform="translate(-751.000000, -2138.000000)" fill="#0065A1" fill-rule="nonzero">
            <g id="BODY">
                <g id="GUIDING-PRINCIPLES" transform="translate(160.000000, 1333.000000)">
                    <g id="Principle_5" transform="translate(550.000000, 755.000000)">
                        <g id="048-search-1" transform="translate(41.000000, 50.000000)">
                            <path d="M3.25441681,68.9079177 C4.71239542,70.3653623 7.08201128,70.362692 8.53731964,68.9079177 L23.2292587,54.2154446 L25.2159549,52.2287484 C25.9817942,51.4629089 26.3796676,50.4049398 26.2968886,49.3042461 L30.9576139,44.6429868 C34.4439453,47.1471853 38.5583291,48.7210546 42.8655078,49.1557778 C42.9002216,49.1595163 42.9349353,49.1611185 42.9696492,49.1611185 C43.4898218,49.1611185 43.9352263,48.7675177 43.9886321,48.2388001 C44.0452422,47.6753689 43.6345515,47.172286 43.0711202,47.1156759 C38.6026558,46.6643967 34.4348664,44.8801086 31.1322509,42.1996708 C14.503283,28.7515532 24.2936365,2.0507832 45.3611614,2.0507832 C57.21832,2.0507832 66.6946473,11.0517989 67.8348613,22.3514006 C67.8920056,22.914832 68.3956224,23.3255226 68.9579856,23.2689124 C69.521951,23.2117683 69.9326416,22.7092195 69.8754975,22.1457883 C68.6343464,9.84642961 58.3174115,0 45.3611614,0 C25.2672245,0 13.6568009,22.8219058 25.3558782,39.0481938 L20.6999594,43.7041125 C19.5827098,43.6202654 18.5364899,44.0234793 17.7738549,44.7866484 C16.8835801,45.6763893 1.59456402,60.9659393 1.09468562,61.4652837 C-0.364895205,62.9253985 -0.364895205,65.2880716 1.09468562,66.7481866 L3.25441681,68.9079177 Z M23.7659871,50.7782465 L22.5040077,52.0402259 L17.9623774,47.4985956 L19.2238228,46.2366162 C19.8999404,45.5604987 20.9685907,45.5989509 21.606256,46.2366162 L23.7659871,48.3963473 C23.7665213,48.3968813 23.7670553,48.3979495 23.7675893,48.3984835 C24.4095271,49.0425576 24.4303554,50.1138782 23.7659871,50.7782465 Z M26.6317431,40.6722646 C27.4077295,41.5774931 28.3385928,42.5206397 29.3303387,43.3703262 L25.4717688,47.2288961 C25.3921941,47.1311636 25.3067448,47.0366352 25.2159549,46.9458454 L23.0567579,44.7861143 C22.9659681,44.6958585 22.8714397,44.6104092 22.7737072,44.5308346 L26.6317431,40.6722646 Z M2.54518762,62.9157855 L16.5118757,48.9485634 L21.053506,53.4907277 L7.08681791,67.4574158 C6.43046037,68.1143072 5.3618101,68.1143072 4.70491854,67.4574158 L2.54465346,65.2976848 C1.88669385,64.639191 1.88669385,63.5742792 2.54518762,62.9157855 L2.54518762,62.9157855 Z" id="Shape"></path>
                            <path d="M65.4988912,24.6414419 C65.4988912,19.2543975 63.4059173,14.195265 59.6066279,10.3954414 C51.751701,2.54051446 38.970622,2.54051446 31.1151611,10.3954414 C23.260234,18.2509024 23.260234,31.0319813 31.1151611,38.8869084 C35.0431585,42.8143717 40.2021599,44.7781034 45.3611614,44.7781034 C56.4257777,44.7781034 65.4988912,35.8641392 65.4988912,24.6414419 Z M45.3611614,42.7283884 C40.7276731,42.7278544 36.0925828,40.9638604 32.5656628,37.4369405 C25.510221,30.3814986 25.510221,18.9013851 32.5656628,11.8459432 C36.0931168,8.31848935 40.7271391,6.55449533 45.3611614,6.55449533 C55.3005172,6.55449533 63.4475739,14.5610947 63.4475739,24.6414419 C63.4475739,34.7121759 55.3095962,42.7294565 45.3611614,42.7283884 Z" id="Shape"></path>
                            <path d="M49.8205468,22.6729037 C50.9271153,21.5449729 51.6107097,20.0010109 51.6107097,18.3000356 C51.6107097,14.8537586 48.8069044,12.0499535 45.3611614,12.0499535 C41.9148844,12.0499535 39.1110792,14.8537586 39.1110792,18.3000356 C39.1110792,20.0010109 39.7952077,21.5449729 40.9017762,22.6729037 C37.9713992,23.3554299 35.7812269,25.9867343 35.7812269,29.1216554 L35.7812269,33.5020002 C35.7812269,34.593081 36.6688314,35.4812196 37.7604462,35.4812196 L52.9618767,35.4812196 C54.0529574,35.4812196 54.940562,34.593081 54.940562,33.5020002 L54.940562,29.1216554 C54.940562,25.9867343 52.7503896,23.3554299 49.8205468,22.6729037 L49.8205468,22.6729037 Z M45.3611614,14.1007367 C47.6763034,14.1007367 49.5599265,15.9843596 49.5599265,18.2995016 C49.5599265,20.6151776 47.6763034,22.4988007 45.3611614,22.4988007 C43.0454854,22.4988007 41.1623965,20.6151776 41.1623965,18.2995016 C41.1623965,15.9843596 43.0460194,14.1007367 45.3611614,14.1007367 Z M52.8897788,33.4299024 L50.6371217,33.4299024 L50.6371217,28.9208496 C50.6371217,28.354748 50.1783657,27.895458 49.6117301,27.895458 C49.0450944,27.895458 48.5863385,28.354748 48.5863385,28.9208496 L48.5863385,33.4299024 L42.1359844,33.4299024 L42.1359844,28.9208496 C42.1359844,28.354748 41.6766945,27.895458 41.1100588,27.895458 C40.5439571,27.895458 40.0846672,28.354748 40.0846672,28.9208496 L40.0846672,33.4299024 L37.8320101,33.4299024 L37.8320101,29.1216554 C37.8320101,26.6009011 39.8833273,24.5495839 42.4040816,24.5495839 L48.3177072,24.5495839 C50.8384615,24.5495839 52.8897788,26.6009011 52.8897788,29.1216554 L52.8897788,33.4299024 Z" id="Shape"></path>
                            <path d="M69.8754975,27.1370955 C69.9326416,26.5736642 69.521951,26.0705814 68.9579856,26.0139713 C68.3945542,25.9568271 67.8920056,26.3675177 67.8348613,26.9309491 C66.7598024,37.5816702 58.3366376,46.0368784 47.6506686,47.1151418 C47.0872373,47.172286 46.6765466,47.6748347 46.7336909,48.2388001 C46.7865627,48.7669835 47.2325011,49.1611185 47.7526738,49.1611185 C47.7868535,49.1611185 47.8215672,49.1595163 47.856815,49.1557778 C59.4752495,47.9835204 68.6989674,38.7934481 69.8754975,27.1370955 L69.8754975,27.1370955 Z" id="Path"></path>
                        </g>
                    </g>
                </g>
            </g>
        </g>
    </g>
</svg>