<?xml version="1.0" encoding="UTF-8"?>
<svg width="226px" height="77px" viewBox="0 0 226 77" version="1.1" xmlns="http://www.w3.org/2000/svg" xmlns:xlink="http://www.w3.org/1999/xlink">
    <!-- Generator: Sketch 63.1 (92452) - https://sketch.com -->
    <title>Clavis Logo 2C</title>
    <desc>Created with Sketch.</desc>
    <defs>
        <polygon id="path-1" points="0 0 79.4675206 0 79.4675206 63.1038284 0 63.1038284"></polygon>
        <polygon id="path-3" points="0 0 135.518997 0 135.518997 59.3047112 0 59.3047112"></polygon>
    </defs>
    <g id="_Symbols" stroke="none" stroke-width="1" fill="none" fill-rule="evenodd">
        <g id="Header_2" transform="translate(-160.000000, -37.000000)">
            <g id="Clavis-Logo-2C">
                <g transform="translate(160.000000, 37.000000)">
                    <path d="M97.3199088,74.9270517 C96.499924,75.2722644 95.6180851,75.4461246 94.7287234,75.4369301 C93.5994681,75.5037994 92.4919453,75.1017477 91.6694529,74.325228 C90.2267477,72.512234 90.2267477,69.9444529 91.6694529,68.131459 C92.481079,67.3591185 93.5768997,66.9587386 94.6952888,67.0281155 C95.5428571,67.0356383 96.3862462,67.1543313 97.2028875,67.3791793 L97.2028875,69.0509119 L96.4338906,69.0509119 L96.4338906,68.9506079 C96.4798632,68.6262918 96.3987842,68.2969605 96.2082067,68.031155 C95.7827508,67.7076748 95.2544833,67.5471884 94.7203647,67.5797872 C94.0031915,67.5547112 93.3278116,67.9149696 92.9483283,68.5243161 C92.4844225,69.3417933 92.2662614,70.2771277 92.3214286,71.2158055 C92.2528875,72.1603343 92.500304,73.1015198 93.0235562,73.8905775 C93.5392857,74.5082827 94.3191489,74.8401216 95.1215805,74.7849544 C95.8972644,74.7490122 96.6553951,74.5467325 97.3449848,74.1914894 L97.3199088,74.9270517" id="Fill-1" fill="#000000"></path>
                    <path d="M101.783435,72.2940729 L104.566869,72.2940729 L103.154255,69.1838146 L101.783435,72.2940729 Z M101.532675,72.8290274 L101.139818,73.6648936 C101.000228,73.9256839 100.904103,74.2082067 100.855623,74.5007599 C100.855623,74.6169453 100.964286,74.6762918 101.18997,74.6762918 L101.482523,74.6762918 L101.482523,75.1778116 L99.4095745,75.1778116 L99.4095745,74.6762918 L99.5098784,74.6762918 C99.6962766,74.6888298 99.8818389,74.6395137 100.036474,74.5341945 C100.226216,74.2449848 100.386702,73.9365502 100.512918,73.6147416 L103.405015,67.1117021 L103.93997,67.1117021 L106.857143,73.6147416 C106.990881,73.9365502 107.156383,74.2441489 107.350304,74.5341945 C107.514134,74.631155 107.70304,74.681307 107.893617,74.6762918 L107.968845,74.6762918 L107.968845,75.1778116 L104.725684,75.1778116 L104.725684,74.6762918 L104.825988,74.6762918 C105.268997,74.6762918 105.494681,74.5759878 105.50304,74.4673252 C105.442857,74.1756079 105.341717,73.893921 105.202128,73.631459 L104.809271,72.7955927 L101.532675,72.8290274 L101.532675,72.8290274 Z" id="Fill-2" fill="#000000"></path>
                    <path d="M112.181611,71.449848 L112.490881,71.449848 C112.989058,71.4908055 113.479711,71.3077508 113.828267,70.9483283 C114.156763,70.5253799 114.315578,69.993769 114.271277,69.4604863 C114.271277,68.3479483 113.761398,67.7887538 112.75,67.7887538 L112.181611,67.7887538 L112.181611,71.449848 Z M112.181611,71.9764438 L112.181611,73.6983283 C112.150684,73.9825228 112.191641,74.2692249 112.298632,74.5341945 C112.37386,74.6261398 112.62462,74.6930091 113.050912,74.7180851 L113.151216,74.7180851 L113.151216,75.2196049 L109.807751,75.2196049 L109.807751,74.7180851 L109.908055,74.7180851 C110.259119,74.7180851 110.468085,74.6344985 110.534954,74.5341945 C110.631915,74.2675532 110.669529,73.9816869 110.643617,73.6983283 L110.643617,68.8168693 C110.668693,68.5343465 110.634422,68.2493161 110.543313,67.981003 C110.476444,67.8806991 110.259119,67.8221884 109.908055,67.7887538 L109.807751,67.7887538 L109.807751,67.2788754 L113.636018,67.2788754 C115.165653,67.2788754 115.93465,67.981003 115.93465,69.3927812 C115.978951,70.1484043 115.670517,70.8797872 115.098784,71.3746201 C114.384119,71.8652736 113.523176,72.0993161 112.658055,72.0349544 L112.181611,71.9764438 L112.181611,71.9764438 Z" id="Fill-3" fill="#000000"></path>
                    <path d="M121.292553,75.2613982 L117.949088,75.2613982 L117.949088,74.7598784 L118.049392,74.7598784 C118.400456,74.7598784 118.609422,74.6762918 118.68465,74.5759878 C118.774088,74.3068389 118.807523,74.0226444 118.784954,73.7401216 L118.784954,68.8168693 C118.81003,68.5343465 118.77576,68.2493161 118.68465,67.981003 C118.617781,67.8806991 118.400456,67.8221884 118.049392,67.7887538 L117.949088,67.7887538 L117.949088,67.2788754 L121.292553,67.2788754 L121.292553,67.7887538 L121.200608,67.7887538 C120.841185,67.7887538 120.632219,67.8806991 120.56535,67.981003 C120.465881,68.2476444 120.428267,68.5335106 120.456687,68.8168693 L120.456687,73.6983283 C120.430775,73.9816869 120.468389,74.2675532 120.56535,74.5341945 C120.632219,74.6344985 120.849544,74.6930091 121.200608,74.7180851 L121.300912,74.7180851 L121.292553,75.2613982" id="Fill-4" fill="#000000"></path>
                    <path d="M126.157295,67.7887538 L124.895137,67.7887538 C124.676976,67.7594985 124.455471,67.8071429 124.268237,67.9224924 C124.141185,68.1807751 124.091033,68.4716565 124.12614,68.7583587 L124.12614,68.9088146 L123.348784,68.9088146 L123.348784,67.2370821 L130.612462,67.2370821 L130.612462,68.9088146 L129.835106,68.9088146 L129.835106,68.7583587 C129.869377,68.4716565 129.820897,68.1807751 129.693009,67.9224924 C129.505775,67.8071429 129.284271,67.7594985 129.066109,67.7887538 L127.795593,67.7887538 L127.795593,73.6899696 C127.780547,73.9984043 127.823176,74.3076748 127.920973,74.6010638 C128.155851,74.7113982 128.414134,74.762386 128.673252,74.7515198 L128.723404,74.7515198 L128.723404,75.2530395 L125.154255,75.2530395 L125.154255,74.7515198 L125.254559,74.7515198 C125.680851,74.7515198 125.931611,74.6595745 126.006839,74.5676292 C126.114666,74.3034954 126.154787,74.0159574 126.12386,73.7317629 L126.157295,67.7887538" id="Fill-5" fill="#000000"></path>
                    <path d="M134.816869,72.2940729 L137.608663,72.2940729 L136.18769,69.1838146 L134.816869,72.2940729 Z M134.574468,72.8290274 L134.181611,73.6648936 C134.04035,73.9256839 133.941717,74.2082067 133.889058,74.5007599 C133.889058,74.6169453 134.006079,74.6762918 134.223404,74.6762918 L134.524316,74.6762918 L134.524316,75.1778116 L132.451368,75.1778116 L132.451368,74.6762918 L132.551672,74.6762918 C132.73807,74.6863222 132.92196,74.6361702 133.078267,74.5341945 C133.264666,74.2433131 133.420973,73.9357143 133.546353,73.6147416 L136.446809,67.1117021 L136.981763,67.1117021 L139.898936,73.6147416 C140.031839,73.9357143 140.194833,74.2433131 140.383739,74.5341945 C140.551748,74.6294833 140.742325,74.6787994 140.93541,74.6762918 L141.00228,74.6762918 L141.00228,75.1778116 L137.767477,75.1778116 L137.767477,74.6762918 L137.867781,74.6762918 C138.31079,74.6762918 138.528116,74.5759878 138.536474,74.4673252 C138.480471,74.174772 138.379331,73.8922492 138.235562,73.631459 L137.851064,72.7955927 L134.574468,72.8290274 L134.574468,72.8290274 Z" id="Fill-6" fill="#000000"></path>
                    <path d="M148.784195,75.2613982 L142.799392,75.2613982 L142.799392,74.7598784 L142.933131,74.7598784 C143.284195,74.7598784 143.50152,74.6762918 143.568389,74.5759878 C143.662006,74.3076748 143.698784,74.0234802 143.677052,73.7401216 L143.677052,68.8168693 C143.701292,68.5335106 143.663678,68.2484802 143.568389,67.981003 C143.50152,67.8806991 143.292553,67.8221884 142.933131,67.7887538 L142.832827,67.7887538 L142.832827,67.2788754 L146.134498,67.2788754 L146.134498,67.7887538 L146.042553,67.7887538 C145.683131,67.7887538 145.465805,67.8806991 145.398936,67.981003 C145.303647,68.2484802 145.266033,68.5335106 145.290274,68.8168693 L145.290274,73.6899696 C145.290274,74.2917933 145.365502,74.6094225 145.49924,74.6512158 C145.776748,74.6746201 146.056763,74.6746201 146.335106,74.6512158 L146.987082,74.6512158 C147.24035,74.6645897 147.494453,74.6645897 147.74772,74.6512158 C147.841337,74.6512158 147.928267,74.5993921 147.973404,74.5174772 C148.025228,74.168921 148.041945,73.8161854 148.023556,73.4642857 L148.023556,73.3556231 L148.784195,73.3556231 L148.784195,75.2613982" id="Fill-7" fill="#000000"></path>
                    <path d="M157.978723,71.449848 L158.287994,71.449848 C158.78617,71.4908055 159.27766,71.3077508 159.62538,70.9483283 C159.957219,70.5262158 160.118541,69.9954407 160.076748,69.4604863 C160.076748,68.3479483 159.566869,67.7887538 158.547112,67.7887538 L157.978723,67.7887538 L157.978723,71.449848 Z M157.978723,71.9764438 L157.978723,73.6983283 C157.952812,73.9825228 157.992933,74.2683891 158.095745,74.5341945 C158.170973,74.6261398 158.421733,74.6930091 158.856383,74.7180851 L158.956687,74.7180851 L158.956687,75.2196049 L155.613222,75.2196049 L155.613222,74.7180851 L155.713526,74.7180851 C156.06459,74.7180851 156.281915,74.6344985 156.348784,74.5341945 C156.442401,74.2667173 156.479179,73.9816869 156.457447,73.6983283 L156.457447,68.8168693 C156.481687,68.5335106 156.444073,68.2484802 156.348784,67.981003 C156.281915,67.8806991 156.072948,67.8221884 155.713526,67.7887538 L155.613222,67.7887538 L155.613222,67.2788754 L159.424772,67.2788754 C160.954407,67.2788754 161.715046,67.981003 161.715046,69.3927812 C161.76269,70.1484043 161.453419,70.8822948 160.879179,71.3746201 C160.164514,71.8669453 159.303571,72.100152 158.43845,72.0349544 L157.978723,71.9764438 L157.978723,71.9764438 Z" id="Fill-8" fill="#000000"></path>
                    <path d="M165.969605,72.2940729 L168.75304,72.2940729 L167.340426,69.1838146 L165.969605,72.2940729 Z M165.718845,72.8290274 L165.325988,73.6648936 C165.186398,73.9256839 165.090274,74.2082067 165.041793,74.5007599 C165.041793,74.6169453 165.150456,74.6762918 165.37614,74.6762918 L165.668693,74.6762918 L165.668693,75.1778116 L163.595745,75.1778116 L163.595745,74.6762918 L163.696049,74.6762918 C163.882447,74.6888298 164.068009,74.6395137 164.222644,74.5341945 C164.412386,74.2449848 164.572872,73.9365502 164.699088,73.6147416 L167.591185,67.1117021 L168.12614,67.1117021 L171.043313,73.6147416 C171.177052,73.9365502 171.342553,74.2441489 171.536474,74.5341945 C171.703647,74.6328267 171.894225,74.6821429 172.088146,74.6762918 L172.18845,74.6762918 L172.18845,75.1778116 L168.945289,75.1778116 L168.945289,74.6762918 L169.045593,74.6762918 C169.488602,74.6762918 169.714286,74.5759878 169.722644,74.4673252 C169.662462,74.1756079 169.560486,73.893921 169.421733,73.631459 L169.028875,72.7955927 L165.718845,72.8290274 L165.718845,72.8290274 Z" id="Fill-9" fill="#000000"></path>
                    <path d="M176.367781,71.2241641 L176.651976,71.2241641 C177.142629,71.2484043 177.619073,71.0636778 177.964286,70.7142857 C178.30114,70.3389818 178.475,69.8458207 178.449088,69.343465 C178.449088,68.3069909 177.947568,67.7887538 176.952888,67.7887538 L176.367781,67.7887538 L176.367781,71.2241641 Z M176.367781,71.7507599 L176.367781,73.6983283 C176.348556,73.9800152 176.379483,74.2633739 176.459726,74.5341945 C176.518237,74.6428571 176.693769,74.7013678 176.986322,74.7180851 L177.078267,74.7180851 L177.078267,75.2196049 L173.977204,75.2196049 L173.977204,74.7180851 L174.077508,74.7180851 C174.428571,74.7180851 174.637538,74.6344985 174.704407,74.5341945 C174.801368,74.2675532 174.838982,73.9816869 174.81307,73.6983283 L174.81307,68.8168693 C174.838146,68.5343465 174.803875,68.2493161 174.712766,67.981003 C174.645897,67.8806991 174.428571,67.8221884 174.077508,67.7887538 L173.977204,67.7887538 L173.977204,67.2788754 L177.671733,67.2788754 C179.276596,67.2788754 180.079027,67.9559271 180.079027,69.3016717 C180.094909,69.7965046 179.964514,70.2854863 179.702888,70.7059271 C179.426216,71.1046353 179.035866,71.4105623 178.582827,71.5835866 L180.095745,73.7651976 C180.309726,74.0836626 180.547112,74.3854103 180.806231,74.6679331 C180.987614,74.7657295 181.192401,74.8150456 181.400532,74.8100304 L181.5,74.8100304 L181.5,75.3115502 L179.18465,75.3115502 L177.036474,71.8009119 L176.367781,71.7507599 L176.367781,71.7507599 Z" id="Fill-10" fill="#000000"></path>
                    <path d="M186.12234,67.7887538 L184.860182,67.7887538 C184.642021,67.7594985 184.420517,67.8071429 184.233283,67.9224924 C184.106231,68.1816109 184.053571,68.4708207 184.082827,68.7583587 L184.082827,68.9088146 L183.305471,68.9088146 L183.305471,67.2370821 L190.577508,67.2370821 L190.577508,68.9088146 L189.800152,68.9088146 L189.800152,68.7583587 C189.828571,68.4708207 189.776748,68.1816109 189.649696,67.9224924 C189.462462,67.8071429 189.240957,67.7594985 189.022796,67.7887538 L187.760638,67.7887538 L187.760638,73.6899696 C187.745593,73.9984043 187.788222,74.3076748 187.886018,74.6010638 C187.93617,74.6679331 188.18693,74.7180851 188.638298,74.7515198 L188.730243,74.7515198 L188.730243,75.2530395 L185.169453,75.2530395 L185.169453,74.7515198 L185.261398,74.7515198 C185.52804,74.7690729 185.793009,74.7055471 186.022036,74.5676292 C186.125684,74.3018237 186.165805,74.0159574 186.139058,73.7317629 L186.12234,67.7887538" id="Fill-11" fill="#000000"></path>
                    <path d="M198.518237,75.3784195 L194.213526,69.3183891 L194.213526,73.6983283 C194.190957,73.9808511 194.224392,74.2650456 194.31383,74.5341945 C194.380699,74.6344985 194.598024,74.6930091 194.957447,74.7180851 L195.049392,74.7180851 L195.049392,75.2196049 L192.608663,75.2196049 L192.608663,74.7180851 L192.700608,74.7180851 C193.06003,74.7180851 193.268997,74.6344985 193.335866,74.5341945 C193.432827,74.2675532 193.470441,73.9816869 193.444529,73.6983283 L193.444529,68.8168693 C193.469605,68.5343465 193.435334,68.2493161 193.344225,67.981003 C193.277356,67.8806991 193.06003,67.8221884 192.700608,67.7887538 L192.608663,67.7887538 L192.608663,67.2788754 L194.547872,67.2788754 L198.827508,73.3221884 L198.827508,68.8168693 C198.851748,68.5343465 198.817477,68.2493161 198.727204,67.981003 C198.660334,67.8806991 198.443009,67.8221884 198.083587,67.7887538 L197.991641,67.7887538 L197.991641,67.2788754 L200.432371,67.2788754 L200.432371,67.7887538 L200.340426,67.7887538 C199.981003,67.7887538 199.772036,67.8806991 199.696809,67.981003 C199.605699,68.2493161 199.572264,68.5343465 199.596505,68.8168693 L199.596505,75.3784195 L198.518237,75.3784195" id="Fill-12" fill="#000000"></path>
                    <path d="M208.607143,75.2613982 L202.680851,75.2613982 L202.680851,74.7598784 L202.781155,74.7598784 C203.132219,74.7598784 203.341185,74.6762918 203.416413,74.5759878 C203.505851,74.3068389 203.539286,74.0226444 203.516717,73.7401216 L203.516717,68.8168693 C203.541793,68.5343465 203.507523,68.2493161 203.416413,67.981003 C203.349544,67.8806991 203.132219,67.8221884 202.781155,67.7887538 L202.680851,67.7887538 L202.680851,67.2788754 L208.381459,67.2788754 L208.381459,68.7165653 L207.604103,68.7165653 L207.604103,68.6162614 C207.604103,68.4323708 207.604103,68.3237082 207.604103,68.2902736 C207.625836,68.1431611 207.57234,67.9968845 207.462006,67.8974164 C207.262234,67.8230243 207.047416,67.793769 206.835106,67.8138298 L205.163374,67.8138298 L205.163374,70.8480243 L206.25,70.8480243 C206.48655,70.8647416 206.723936,70.8647416 206.960486,70.8480243 C207.027356,70.8480243 207.06079,70.6557751 207.069149,70.3465046 L207.069149,70.2462006 L207.620821,70.2462006 L207.620821,71.9764438 L207.069149,71.9764438 L207.069149,71.8761398 C207.069149,71.5919453 207.018997,71.4331307 206.918693,71.399696 C206.700532,71.3453647 206.474848,71.3261398 206.25,71.3411854 L205.138298,71.3411854 L205.138298,73.7401216 C205.138298,74.3419453 205.205167,74.6595745 205.338906,74.7013678 C205.617249,74.724772 205.896429,74.724772 206.174772,74.7013678 L206.826748,74.7013678 C207.124316,74.7281155 207.423556,74.7030395 207.712766,74.6261398 C207.814742,74.3862462 207.860714,74.1262918 207.846505,73.8655015 L207.846505,73.7568389 L208.62386,73.7568389 L208.607143,75.2613982" id="Fill-13" fill="#000000"></path>
                    <path d="M213.145897,71.2241641 L213.430091,71.2241641 C213.918237,71.2534195 214.394681,71.0661854 214.734043,70.7142857 C215.07424,70.3406535 215.248936,69.8466565 215.218845,69.343465 C215.218845,68.3069909 214.725684,67.7887538 213.731003,67.7887538 L213.145897,67.7887538 L213.145897,71.2241641 Z M213.145897,71.7507599 L213.145897,73.6983283 C213.125836,73.9800152 213.154255,74.262538 213.229483,74.5341945 C213.296353,74.6428571 213.471884,74.7013678 213.764438,74.7180851 L213.856383,74.7180851 L213.856383,75.2196049 L210.74696,75.2196049 L210.74696,74.7180851 L210.847264,74.7180851 C211.206687,74.7180851 211.415653,74.6344985 211.482523,74.5341945 C211.579483,74.2675532 211.617097,73.9816869 211.591185,73.6983283 L211.591185,68.8168693 C211.616261,68.5343465 211.581991,68.2493161 211.490881,67.981003 C211.415653,67.8806991 211.206687,67.8221884 210.847264,67.7887538 L210.74696,67.7887538 L210.74696,67.2788754 L214.449848,67.2788754 C216.054711,67.2788754 216.848784,67.9559271 216.848784,69.3016717 C216.862994,69.7956687 216.735106,70.2829787 216.481003,70.7059271 C216.20266,71.1021277 215.81231,71.4088906 215.360942,71.5835866 L216.87386,73.7651976 C217.087842,74.0836626 217.325228,74.3854103 217.584347,74.6679331 C217.765729,74.7674012 217.970517,74.8167173 218.177812,74.8100304 L218.278116,74.8100304 L218.278116,75.3115502 L215.962766,75.3115502 L213.806231,71.8009119 L213.145897,71.7507599 L213.145897,71.7507599 Z" id="Fill-14" fill="#000000"></path>
                    <g id="Group-18" stroke-width="1" transform="translate(0.000000, 0.250760)">
                        <path d="M220.384498,74.9103343 L220.384498,73.2386018 L221.161854,73.2386018 L221.161854,73.3723404 C221.161854,73.8487842 221.270517,74.149696 221.429331,74.275076 C221.742781,74.5433891 222.145669,74.6863222 222.557751,74.6762918 C222.935562,74.693845 223.302508,74.5509119 223.569149,74.2834347 C223.829939,74.0059271 223.967857,73.6356383 223.953647,73.2553191 C223.973708,72.9594225 223.894301,72.6643617 223.727964,72.4194529 C223.493921,72.143617 223.210562,71.9145897 222.892097,71.7424012 L222.365502,71.449848 C221.069909,70.7142857 220.426292,69.9118541 220.426292,69.0425532 C220.39035,68.4072948 220.649468,67.7895897 221.128419,67.3708207 C221.648328,66.9344985 222.314514,66.7096505 222.992401,66.743921 C223.702052,66.7606383 224.405851,66.8784954 225.082067,67.0949848 L225.082067,68.7082067 L224.304711,68.7082067 L224.304711,68.6162614 C224.3231,68.287766 224.25038,67.9609422 224.095745,67.6717325 C223.837462,67.4117781 223.483891,67.268845 223.117781,67.2788754 C222.800152,67.2805471 222.497568,67.4134498 222.281915,67.6466565 C222.054559,67.8949088 221.932523,68.2217325 221.93921,68.5577508 C221.930015,68.8085106 222.009422,69.0542553 222.164894,69.2515198 C222.406459,69.5173252 222.688146,69.7430091 223.00076,69.9202128 L223.527356,70.2294833 C224.114134,70.5446049 224.644909,70.9533435 225.098784,71.4406535 C225.385486,71.8151216 225.532599,72.2756839 225.516717,72.7454407 C225.544301,73.4233283 225.24924,74.0736322 224.722644,74.5007599 C224.108283,74.9629939 223.350988,75.193693 222.582827,75.1527356 C221.843085,75.1585866 221.105015,75.0775076 220.384498,74.9103343" id="Fill-15" fill="#000000"></path>
                        <path d="M76.7492401,5.49164134 L76.7492401,76.7492401 L0,76.7492401 L0,0 L72.0683891,0 L57.7416413,14.3267477 L55.0668693,11.6603343 C54.4441489,11.043465 53.4411094,11.043465 52.8183891,11.6603343 L52.2165653,12.2705167 C51.5955167,12.8832067 51.5896657,13.8837386 52.2023556,14.5047872 C52.206535,14.5098024 52.2115502,14.5139818 52.2165653,14.518997 C51.6038754,13.8979483 50.6033435,13.8912614 49.9822948,14.5047872 C49.9772796,14.5098024 49.9731003,14.5139818 49.9680851,14.518997 L49.3495441,15.1208207 C48.7410334,15.7468845 48.7410334,16.7432371 49.3495441,17.3693009 L52.0243161,20.0440729 L36.9787234,35.0896657 C35.6179331,27.1079787 28.0441489,21.7408815 20.0616261,23.1016717 C12.0799392,24.462462 6.71284195,32.0362462 8.07363222,40.018769 C8.4556231,42.2555471 9.35083587,44.3744681 10.6907295,46.2066869 C9.74703647,46.7951368 8.87522796,47.4905775 8.09118541,48.2796353 C2.37803951,54.0111702 2.39308511,63.2892857 8.12462006,69.0024316 C13.856155,74.7147416 23.1342705,74.699696 28.8465805,68.9681611 C29.6164134,68.1966565 30.2976444,67.3407295 30.8768997,66.4179331 C37.3590426,71.2701368 46.5468845,69.9494681 51.399924,63.4673252 C56.2521277,56.9860182 54.931459,47.7973404 48.4493161,42.9451368 C46.562766,41.5316869 44.3619301,40.5946809 42.0357143,40.2135258 L57.081307,25.1261398 L59.756079,27.8009119 C60.3754559,28.4169453 61.3768237,28.4169453 61.9962006,27.8009119 L62.606383,27.1823708 C63.2224164,26.5780395 63.2324468,25.5883739 62.6281155,24.9723404 C62.6205927,24.9648176 62.6139058,24.9572948 62.606383,24.9506079 C63.2257599,25.5666413 64.2271277,25.5666413 64.8465046,24.9506079 L65.4650456,24.3320669 C66.081079,23.71269 66.081079,22.7113222 65.4650456,22.0919453 L62.7902736,19.4171733 L76.7492401,5.49164134" id="Fill-17" fill="#0065A1"></path>
                    </g>
                    <path d="M26.3214286,61.0098784 C25.9628419,62.3882219 25.2448328,63.6453647 24.2401216,64.6542553 C21.0588146,67.8380699 15.8990122,67.8405775 12.7143617,64.6592705 C9.53054711,61.4787994 9.52803951,56.318997 12.7093465,53.1343465 C13.706535,52.1354863 14.9469605,51.4132979 16.3077508,51.0379939 C18.750152,50.3475684 21.3739362,50.8365502 23.4042553,52.3586626 C23.6984802,52.5885258 23.9776596,52.8367781 24.2401216,53.1025836 C24.5393617,53.3951368 24.818541,53.7085866 25.0759878,54.0387538 C26.5412614,56.0364742 27.0177052,58.5933891 26.3715805,60.9848024" id="Fill-19" fill="#0065A1"></path>
                    <path d="M28.243921,43.5068389 C27.250076,44.5082067 26.0104863,45.2320669 24.649696,45.6048632 C22.2031155,46.2860942 19.5801672,45.7887538 17.5531915,44.2591185 C17.2539514,44.0325988 16.974772,43.781003 16.7173252,43.5068389 C13.5351824,40.3238602 13.5351824,35.1640578 16.7181611,31.981079 C19.9019757,28.7989362 25.0617781,28.799772 28.243921,31.9827508 C31.4260638,35.1648936 31.4260638,40.3238602 28.243921,43.5068389" id="Fill-20" fill="#0065A1"></path>
                    <g id="Group-24" stroke-width="1" transform="translate(31.493726, -0.000000)">
                        <mask id="mask-2" fill="white">
                            <use xlink:href="#path-1"></use>
                        </mask>
                        <g id="Clip-22"></g>
                        <path d="M13.927247,60.7173252 C10.7492835,63.8977964 5.59449629,63.8994681 2.4131893,60.7215046 C2.41151757,60.7206687 2.4106817,60.718997 2.40900997,60.7173252 C2.10308292,60.4306231 1.82306772,60.1171733 1.57314371,59.7803191 C-1.08491101,56.1484802 -0.294181522,51.0488602 3.33765738,48.3916413 C6.97033216,45.7344225 12.0699522,46.5243161 14.7271711,50.1569909 C17.096016,53.3943009 16.7566543,57.8737082 13.927247,60.7173252" id="Fill-21" fill="#0065A1" mask="url(#mask-2)"></path>
                        <path d="M79.4675206,40.7735562 C79.4675206,47.7229483 76.0371255,51.2026596 69.1780069,51.2127194 C62.3180525,51.2243921 58.8943443,47.7446809 58.9051848,40.7735562 L58.9051848,10.4232523 C58.9051848,3.48054711 62.3297546,0.00585106383 69.1780069,-7.37706224e-06 C76.0262592,-0.00585106383 79.4566543,3.46884498 79.4675206,10.4232523 L79.4675206,17.1101824 L72.3125054,17.1101824 L72.3125054,10.4232523 C72.3125054,8.19399696 71.2760312,7.07978723 69.2030829,7.07978723 L69.1529309,7.07978723 C67.0966999,7.07978723 66.0685844,8.20820669 66.0685844,10.4232523 L66.0685844,40.7735562 C66.0685844,43.0019757 67.1050586,44.1170213 69.1780069,44.1170213 C71.2509553,44.1170213 72.2957881,43.0019757 72.3125054,40.7735562 L72.3125054,34.0866261 L79.4675206,34.0866261 L79.4675206,40.7735562" id="Fill-23" fill="#000000" mask="url(#mask-2)"></path>
                    </g>
                    <polyline id="Fill-25" fill="#000000" points="116.778875 50.4027356 116.778875 0.785714286 123.933891 0.785714286 123.933891 43.3480243 135.343465 43.3480243 135.343465 50.4027356 116.778875 50.4027356"></polyline>
                    <path d="M152.361702,32.8077508 L149.620061,12.1702128 L146.895137,32.8077508 L152.361702,32.8077508 Z M159.591945,32.8077508 L161.924012,50.3609422 L154.693769,50.3609422 L153.297872,39.887538 L145.992401,39.887538 L144.604863,50.4027356 L137.399696,50.4027356 L139.723404,32.8495441 L144.788754,0.752279635 L154.593465,0.752279635 L159.591945,32.8077508 L159.591945,32.8077508 Z" id="Fill-26" fill="#000000"></path>
                    <polyline id="Fill-27" fill="#000000" points="180.003799 50.4027356 170.190729 50.4027356 165.133739 18.3389058 162.81003 0.785714286 170.040274 0.785714286 175.055471 39.0265957 180.129179 0.785714286 187.367781 0.785714286 185.035714 18.3890578 180.003799 50.4027356"></polyline>
                    <g id="Group-32" stroke-width="1" transform="translate(90.164894, -0.000000)">
                        <mask id="mask-4" fill="white">
                            <use xlink:href="#path-3"></use>
                        </mask>
                        <g id="Clip-29"></g>
                        <polyline id="Fill-28" fill="#000000" mask="url(#mask-4)" points="101.62462 0.785714286 108.771277 0.785714286 108.771277 50.4027356 101.616261 50.4027356 101.62462 0.785714286"></polyline>
                        <path d="M114.981737,10.4232523 C114.981737,3.48054711 118.402964,0.00585106383 125.246201,-7.37706224e-06 C132.088602,-0.00585106383 135.513146,3.46884498 135.518997,10.4232523 L135.518997,17.1101824 L128.363982,17.1101824 L128.363982,10.4232523 C128.363982,8.19399696 127.327508,7.07978723 125.254559,7.07978723 L125.204407,7.07978723 C123.148176,7.07978723 122.120061,8.20820669 122.120061,10.4232523 L122.120061,14.9202128 C122.120061,17.1352584 124.351824,19.8351064 128.806991,23.0448328 C133.262158,26.2545593 135.493921,30.0493921 135.493921,34.4962006 L135.493921,40.7735562 C135.493921,47.7329787 132.07272,51.21269 125.229483,51.21269 C118.386246,51.21269 114.970897,47.7329787 114.981737,40.7735562 L114.981737,34.0866261 L122.145137,34.0866261 L122.145137,40.7735562 C122.145137,43.0019757 123.18997,44.1170213 125.279635,44.1170213 C127.369301,44.1170213 128.405775,43.0019757 128.389058,40.7735562 L128.389058,35.106383 C128.389058,32.7158055 126.160638,29.9298632 121.702128,26.7477204 C117.244453,23.5655775 115.015198,19.6905015 115.015198,15.1208207 L114.981737,10.4232523" id="Fill-30" fill="#000000" mask="url(#mask-4)"></path>
                        <line x1="0" y1="58.8867781" x2="135.43541" y2="58.8867781" id="Stroke-31" stroke="#D0AF21" stroke-width="1.854" mask="url(#mask-4)"></line>
                    </g>
                </g>
            </g>
        </g>
    </g>
</svg>