<?xml version="1.0" encoding="UTF-8"?>
<svg width="80px" height="70px" viewBox="0 0 80 70" version="1.1" xmlns="http://www.w3.org/2000/svg" xmlns:xlink="http://www.w3.org/1999/xlink">
    <title>708C6957-6A97-4ACB-9EF0-220E9F70BC38</title>
    <g id="4_Investment-Focus" stroke="none" stroke-width="1" fill="none" fill-rule="evenodd">
        <g id="04_Investment-Focus_v4" transform="translate(-194.000000, -2028.000000)" fill="#0065A1" fill-rule="nonzero">
            <g id="BODY" transform="translate(159.000000, 1472.000000)">
                <g id="CRITERIA" transform="translate(1.000000, 0.000000)">
                    <g id="Criteria_4" transform="translate(0.000000, 506.000000)">
                        <g id="008-management" transform="translate(34.000000, 50.000000)">
                            <path d="M77.4106066,50.79076 L68.9347443,50.79076 L68.9347443,42.3695885 C68.9347443,41.1518061 67.9442327,40.1619023 66.7270581,40.1619023 L40.9913797,40.1619023 L40.9913797,33.4002934 L57.5766757,33.4002934 C59.3073364,33.4002934 60.715929,31.991701 60.715929,30.2610403 L60.715929,19.4225343 C60.715929,18.7783981 60.1933278,18.2557967 59.5491914,18.2557967 C58.9044474,18.2557967 58.3824539,18.7783981 58.3824539,19.4225343 L58.3824539,30.2610403 C58.3824539,30.6973514 58.0135946,31.0662107 57.5766757,31.0662107 L22.0726086,31.0662107 C21.6283976,31.0662107 21.2668304,30.7052512 21.2668304,30.2610403 L21.2668304,3.13925333 C21.2668304,2.69504227 21.6283976,2.33347513 22.0726086,2.33347513 L57.5766757,2.33347513 C58.0135946,2.33347513 58.3824539,2.70294202 58.3824539,3.13925333 L58.3824539,13.9771514 C58.3824539,14.6218955 58.9044474,15.1444966 59.5491914,15.1444966 C60.1939354,15.1444966 60.715929,14.6218955 60.715929,13.9771514 L60.715929,3.13925333 C60.715929,1.40859261 59.3079442,0 57.5766757,0 L22.0726086,0 C20.3413401,0 18.9333553,1.40798482 18.9333553,3.13925333 L18.9333553,30.2604325 C18.9333553,31.991701 20.3413401,33.3996858 22.0726086,33.3996858 L38.6579046,33.3996858 L38.6579046,40.1612945 L12.9222261,40.1612945 C11.7050516,40.1612945 10.71454,41.1518061 10.71454,42.3695885 L10.71454,50.79076 L2.23807006,50.79076 C1.00388044,50.79076 0,51.795248 0,53.0294375 L0,67.7619301 C0,68.9961196 1.00388044,70 2.23807006,70 L21.524485,70 C22.7586746,70 23.7631627,68.9961196 23.7631627,67.7619301 L23.7631627,53.0294375 C23.7631627,51.795248 22.7586746,50.79076 21.524485,50.79076 L13.0480151,50.79076 L13.0480151,42.4953774 L38.6579046,42.4953774 L38.6579046,50.79076 L30.1814347,50.79076 C28.9472451,50.79076 27.9433646,51.795248 27.9433646,53.0294375 L27.9433646,67.7619301 C27.9433646,68.9961196 28.9472451,70 30.1814347,70 L37.1022545,70 C37.7463909,70 38.2689921,69.4773988 38.2689921,68.8332624 C38.2689921,68.1891261 37.7463909,67.6665249 37.1022545,67.6665249 L30.2768398,67.6665249 L30.2768398,53.1248427 L49.3724445,53.1248427 L49.3724445,67.6665249 L42.5470298,67.6665249 C41.9022858,67.6665249 41.3802922,68.1891261 41.3802922,68.8332624 C41.3802922,69.4773988 41.9022858,70 42.5470298,70 L49.4678496,70 C50.7020392,70 51.7059197,68.9961196 51.7059197,67.7619301 L51.7059197,53.0294375 C51.7059197,51.795248 50.7020392,50.79076 49.4678496,50.79076 L40.9913797,50.79076 L40.9913797,42.4953774 L66.6006616,42.4953774 L66.6006616,50.79076 L58.1247993,50.79076 C56.8900021,50.79076 55.8861216,51.795248 55.8861216,53.0294375 L55.8861216,67.7619301 C55.8861216,68.9961196 56.8900021,70 58.1247993,70 L77.4106066,70 C78.6454038,70 79.6492843,68.9961196 79.6492843,67.7619301 L79.6492843,53.0294375 C79.6492843,51.795248 78.6454038,50.79076 77.4106066,50.79076 L77.4106066,50.79076 Z M21.4290799,67.6665249 L2.33347513,67.6665249 L2.33347513,53.1248427 L21.4290799,53.1248427 L21.4290799,67.6665249 Z M77.3158092,67.6665249 L58.2202044,67.6665249 L58.2202044,53.1248427 L77.3158092,53.1248427 L77.3158092,67.6665249 Z" id="Shape"></path>
                            <path d="M53.3028917,7.46529734 L26.3463926,7.46529734 C25.7016486,7.46529734 25.179655,7.98789854 25.179655,8.6320349 C25.179655,9.2767789 25.7016486,9.79877246 26.3463926,9.79877246 L53.3028917,9.79877246 C53.9476357,9.79877246 54.4696293,9.2767789 54.4696293,8.6320349 C54.4696293,7.98789854 53.9476357,7.46529734 53.3028917,7.46529734 Z" id="Path"></path>
                            <path d="M53.3028917,12.843836 L26.3463926,12.843836 C25.7016486,12.843836 25.179655,13.3664372 25.179655,14.0105736 C25.179655,14.6553176 25.7016486,15.1773111 26.3463926,15.1773111 L53.3028917,15.1773111 C53.9476357,15.1773111 54.4696293,14.6553176 54.4696293,14.0105736 C54.4696293,13.3664372 53.9476357,12.843836 53.3028917,12.843836 Z" id="Path"></path>
                            <path d="M53.3028917,18.2223747 L26.3463926,18.2223747 C25.7016486,18.2223747 25.179655,18.7449759 25.179655,19.3891122 C25.179655,20.0338562 25.7016486,20.5564574 26.3463926,20.5564574 L53.3028917,20.5564574 C53.9476357,20.5564574 54.4696293,20.0338562 54.4696293,19.3891122 C54.4696293,18.7449759 53.9476357,18.2223747 53.3028917,18.2223747 Z" id="Path"></path>
                            <path d="M53.3028917,23.6009133 L26.3463926,23.6009133 C25.7016486,23.6009133 25.179655,24.1235144 25.179655,24.7676509 C25.179655,25.4123949 25.7016486,25.9349961 26.3463926,25.9349961 L53.3028917,25.9349961 C53.9476357,25.9349961 54.4696293,25.4123949 54.4696293,24.7676509 C54.4696293,24.1235144 53.9476357,23.6009133 53.3028917,23.6009133 Z" id="Path"></path>
                            <path d="M65.6113653,59.8609291 C65.1677619,59.3936264 64.4288281,59.3747884 63.9621331,59.8177841 C63.4942228,60.2619951 63.4753848,61.0003213 63.9189881,61.4676239 L65.4794996,63.111387 C65.9279644,63.5841588 66.676621,63.59692 67.141493,63.1417708 L71.586034,58.794458 C72.0466521,58.3435626 72.0551597,57.6046288 71.6042641,57.1440105 C71.1539764,56.6839999 70.4150426,56.6748848 69.9544244,57.1257803 L66.3563758,60.6454386 L65.6113653,59.8609291 Z" id="Path"></path>
                            <path d="M43.643277,58.794458 C44.1038951,58.3435626 44.1117951,57.6046288 43.6608995,57.1440105 C43.2112194,56.6839999 42.471678,56.6748848 42.0110598,57.1257803 L38.4130112,60.6454386 L37.6680007,59.8609291 C37.2243973,59.3936264 36.4860711,59.3747884 36.0187685,59.8177841 C35.5514658,60.2613875 35.5320202,61.0003213 35.9756235,61.4676239 L37.536135,63.111387 C37.9839921,63.5829434 38.732041,63.5981353 39.1981283,63.1417708 L43.643277,58.794458 Z" id="Path"></path>
                            <path d="M9.72524373,59.8609291 C9.28103267,59.3936264 8.54270652,59.3747884 8.07540385,59.8177841 C7.60810119,60.2619951 7.58865556,61.0003213 8.03286662,61.4676239 L9.59277032,63.111387 C10.0406275,63.5829434 10.7892841,63.5981353 11.2553713,63.1417708 L15.6999123,58.794458 C16.1605305,58.3435626 16.1684304,57.6046288 15.7181425,57.1440105 C15.2678548,56.6839999 14.528921,56.6748848 14.0683028,57.1257803 L10.4702544,60.6454386 L9.72524373,59.8609291 Z" id="Path"></path>
                        </g>
                    </g>
                </g>
            </g>
        </g>
    </g>
</svg>