<?xml version="1.0" encoding="UTF-8"?>
<svg width="47px" height="70px" viewBox="0 0 47 70" version="1.1" xmlns="http://www.w3.org/2000/svg" xmlns:xlink="http://www.w3.org/1999/xlink">
    <!-- Generator: Sketch 63.1 (92452) - https://sketch.com -->
    <title>031-hourglass</title>
    <desc>Created with Sketch.</desc>
    <g id="3_What-We-Believe" stroke="none" stroke-width="1" fill="none" fill-rule="evenodd">
        <g id="03_What-We-Believe_v4" transform="translate(-751.000000, -1549.000000)" fill="#0065A1" fill-rule="nonzero">
            <g id="BODY">
                <g id="GUIDING-PRINCIPLES" transform="translate(160.000000, 1333.000000)">
                    <g id="Principle_2" transform="translate(550.000000, 164.000000)">
                        <g id="031-hourglass" transform="translate(41.000000, 52.000000)">
                            <path d="M14.431839,44.3839264 C11.8325806,45.5983734 9.84375,46.1644745 8.47068783,48.1020355 C7.47467041,49.5082093 6.83433529,51.6812897 6.56730648,54.5609284 C6.51176449,55.1628112 6.98600766,55.6808472 7.58842465,55.6808472 L39.4102477,55.6808472 C40.0121307,55.6808472 40.4869079,55.1628112 40.4313659,54.5609284 C40.1605988,51.6401673 39.5378875,49.5274352 38.5279847,48.1020355 C37.1538543,46.1628724 35.1612855,45.5967712 32.5689697,44.3849945 C32.3836517,44.297943 32.1785736,44.2520142 31.9740296,44.2520142 L15.0241089,44.2520142 C14.820633,44.2520142 14.6150208,44.297943 14.431839,44.3839264 Z M31.8293,46.3027954 C34.2982484,47.4451447 35.8726501,47.901764 36.8547821,49.2876434 C37.5180817,50.2238464 37.9896546,51.6818237 38.2604217,53.6300659 L8.73825066,53.6300659 C9.00901791,51.6823578 9.48059082,50.2243805 10.1438903,49.2876434 C11.122818,47.9065705 12.6769256,47.4558258 15.1693726,46.3027954 L31.8293,46.3027954 Z" id="Shape"></path>
                            <path d="M13.0982972,25.017929 C14.4649505,25.6166077 16.0137176,26.2953949 17.4797057,27.3779297 C19.3991089,28.7947845 20.9222412,30.3617096 22.0095825,32.0391846 C22.0111847,32.0407868 22.0122528,32.042923 22.013321,32.0445251 C22.338562,32.5524139 22.8923797,32.8562927 23.4958649,32.8573608 L23.4990692,32.8573608 C24.1009521,32.8573608 24.655304,32.5556183 24.9869538,32.042389 L24.98909,32.0391846 C26.0737611,30.3649139 27.5979614,28.7963867 29.5195007,27.3773957 C30.9849548,26.2953949 32.5331878,25.6171418 33.9014435,25.017395 L33.906784,25.0152588 C33.9110565,25.0131226 33.9153289,25.0115204 33.9196014,25.0093841 C35.3049469,24.4016266 34.8686218,22.3262787 33.3567047,22.3262787 L13.6419678,22.3262787 C12.058487,22.3262787 11.7492676,24.526062 13.0844116,25.0115204 M23.4996032,30.5764007 C21.8045044,28.1015778 19.1651917,25.7789613 16.544571,24.3770599 L30.4541016,24.3770599 C27.8457642,25.7725524 25.2080536,28.0834198 23.4996032,30.5764007 Z" id="Shape"></path>
                            <path d="M3.00888055,57.0512389 L2.66761783,57.0512389 C1.19682309,57.0512389 0,58.247528 0,59.7183228 L0,63.6180114 C0,65.0888062 1.19682309,66.2856292 2.66761783,66.2856292 L2.99819953,66.2856292 L2.99819953,67.3323822 C2.99819953,68.8037109 4.19448859,70 5.6652832,70 L41.3333893,70 C42.8041839,70 44.0010071,68.8037109 44.0010071,67.3323822 L44.0010071,66.2856292 L44.3310547,66.2856292 C45.8023835,66.2856292 46.9986725,65.0888062 46.9986725,63.6180114 L46.9986725,59.7183228 C46.9986725,58.247528 45.8023835,57.0512389 44.3310547,57.0512389 L43.9897918,57.0512389 C43.6250306,39.6062469 34.3858337,44.7668457 28.3328247,36.7736053 C27.9910278,36.3223267 27.3480225,36.233139 26.8962096,36.57547 C26.444931,36.9172669 26.3562775,37.5602721 26.6980744,38.012085 C33.470459,46.9554137 41.6036224,40.8826447 41.9395446,57.0512389 L5.05912777,57.0512389 C5.3427124,43.4194183 11.3652801,45.4344177 16.6658021,41.5203094 C18.454895,40.199585 19.8658753,38.7517547 20.8597565,37.2163392 C21.7313385,35.8699798 21.7313385,34.1300202 20.8597565,32.7836608 C19.8658753,31.2482453 18.454895,29.800415 16.6658021,28.4791566 C11.3652801,24.5655823 5.3427124,26.5805817 5.05912777,12.9487611 L41.9395446,12.9487611 C41.6036224,29.1130829 33.4656525,23.0504608 26.6980744,31.987915 C26.3557435,32.4397279 26.444931,33.0827331 26.8962096,33.42453 C27.3480225,33.766861 27.9910278,33.6776733 28.3328247,33.2263947 C30.7414245,30.0455475 33.7374878,28.8236237 35.2739715,28.1507111 C39.4428254,26.324234 43.749466,24.4363403 43.9897918,12.9487611 L44.3310547,12.9487611 C45.8023835,12.9487611 46.9986725,11.7519378 46.9986725,10.2811432 L46.9986725,6.38198859 C46.9986725,4.91119385 45.8023835,3.71437076 44.3310547,3.71437076 L44.0010071,3.71437076 L44.0010071,2.66761783 C44.0010071,1.19682309 42.8041839,0 41.3333893,0 L25.8921813,0 C25.3255462,0 24.8667907,0.458755527 24.8667907,1.02539062 C24.8667907,1.59202572 25.3255462,2.05078125 25.8921813,2.05078125 L41.3333893,2.05078125 C41.6677093,2.05078125 41.9502259,2.3332977 41.9502259,2.66761783 L41.9502259,3.71437076 L5.04898078,3.71437076 L5.04898078,2.66761783 C5.04898078,2.3332977 5.3309632,2.05078125 5.6652832,2.05078125 L21.1064911,2.05078125 C21.6731263,2.05078125 22.1324157,1.59202572 22.1324157,1.02539062 C22.1324157,0.458755527 21.6731263,0 21.1064911,0 L5.6652832,0 C4.19448859,0 2.99819953,1.19682309 2.99819953,2.66761783 L2.99819953,3.71437076 L2.66761783,3.71437076 C1.19682309,3.71437076 0,4.91119385 0,6.38198859 L0,10.2816772 C0,11.752472 1.19682309,12.9487611 2.66761783,12.9487611 L3.00888055,12.9487611 C3.38539127,30.9662629 13.3770752,25.0013734 19.1379547,33.8982391 C19.5716095,34.5679474 19.5716095,35.4325866 19.1384888,36.1017609 C13.366394,45.0141144 3.38592529,39.0155793 3.00888055,57.0512389 L3.00888055,57.0512389 Z M41.9502259,67.3323822 C41.9502259,67.6667023 41.6677093,67.9492188 41.3333893,67.9492188 L5.6652832,67.9492188 C5.3309632,67.9492188 5.04898078,67.6667023 5.04898078,67.3323822 L5.04898078,66.2856292 L41.9502259,66.2856292 L41.9502259,67.3323822 Z M44.3310547,59.1020202 C44.6653747,59.1020202 44.9478913,59.3840026 44.9478913,59.7183228 L44.9478913,63.6180114 C44.9478913,63.9523315 44.6653747,64.234848 44.3310547,64.234848 C43.480835,64.234848 3.21395867,64.234848 2.66761783,64.234848 C2.3332977,64.234848 2.05078125,63.9523315 2.05078125,63.6180114 L2.05078125,59.7183228 C2.05078125,59.3845368 2.3332977,59.1020202 2.66761783,59.1020202 L44.3310547,59.1020202 Z M2.05078125,10.2816772 L2.05078125,6.38198859 C2.05078125,6.04766846 2.3332977,5.76568604 2.66761783,5.76568604 L44.3310547,5.76568604 C44.6653747,5.76568604 44.9478913,6.04766846 44.9478913,6.38198859 L44.9478913,10.2816772 C44.9478913,10.6159974 44.6653747,10.8979798 44.3310547,10.8979798 C43.480835,10.8979798 3.21395867,10.8979798 2.66761783,10.8979798 C2.3332977,10.8979798 2.05078125,10.6159974 2.05078125,10.2816772 Z" id="Shape"></path>
                        </g>
                    </g>
                </g>
            </g>
        </g>
    </g>
</svg>