<?xml version="1.0" encoding="UTF-8"?>
<svg width="67px" height="71px" viewBox="0 0 67 71" version="1.1" xmlns="http://www.w3.org/2000/svg" xmlns:xlink="http://www.w3.org/1999/xlink">
    <!-- Generator: Sketch 63.1 (92452) - https://sketch.com -->
    <title>049-teamwork</title>
    <desc>Created with Sketch.</desc>
    <g id="2_Who-We-Are" stroke="none" stroke-width="1" fill="none" fill-rule="evenodd">
        <g id="02.1_Who-We-Are_v4" transform="translate(-1446.000000, -3692.000000)" fill="#0065A1" fill-rule="nonzero">
            <g id="BODY" transform="translate(0.000000, 1437.000000)">
                <g id="CULTURE" transform="translate(160.000000, 2038.000000)">
                    <g id="Pillar_4" transform="translate(1237.000000, 165.000000)">
                        <g id="049-teamwork" transform="translate(49.972391, 52.407843)">
                            <path d="M63.2439435,30.9744601 C63.2439435,28.137902 60.9557027,25.8304402 58.1427731,25.8304402 C55.3303774,25.8304402 53.0421367,28.137902 53.0421367,30.9744601 C53.0421367,32.2377242 53.4969024,33.3954919 54.2489741,34.2916721 C52.0477367,34.9768596 50.4443135,37.0469548 50.4443135,39.4884401 L50.4443135,42.9348312 C50.4443135,43.9182072 51.2374848,44.7180412 52.2126693,44.7180412 L64.072877,44.7180412 C65.0480615,44.7180412 65.8417666,43.9182072 65.8417666,42.9348312 L65.8417666,41.7964402 C65.8417666,41.2258992 65.3827308,40.7630073 64.8169422,40.7630073 C64.2506199,40.7630073 63.7921177,41.2258992 63.7921177,41.7964402 L63.7921177,42.6511754 L62.4843991,42.6511754 L62.4843991,39.330734 C62.4843991,38.7596547 62.0253632,38.297301 61.459041,38.297301 C60.8932525,38.297301 60.4342166,38.7596547 60.4342166,39.330734 L60.4342166,42.6511754 L55.8513298,42.6511754 L55.8513298,39.330734 C55.8513298,38.7596547 55.3928276,38.297301 54.8265053,38.297301 C54.2607169,38.297301 53.8016809,38.7596547 53.8016809,39.330734 L53.8016809,42.6511754 L52.4939623,42.6511754 L52.4939623,39.4884401 C52.4939623,37.6298756 53.9933018,36.1179418 55.8363844,36.1179418 L60.4496956,36.1179418 C61.5348352,36.1179418 62.5585922,36.6594175 63.1889659,37.5663625 C63.5134937,38.0340986 64.1524076,38.1476685 64.6162474,37.8198765 C65.0795535,37.4926228 65.1921774,36.848342 64.8676496,36.380606 C64.1684205,35.3740853 63.1654804,34.6479911 62.034971,34.2943633 C62.7881101,33.3976449 63.2439435,32.2388006 63.2439435,30.9744601 L63.2439435,30.9744601 Z M58.1427731,27.8978442 C59.8251932,27.8978442 61.1942947,29.2779078 61.1942947,30.9744601 C61.1942947,32.6645535 59.8326659,34.051076 58.1401043,34.051076 C56.4592855,34.0499994 55.0917855,32.6699359 55.0917855,30.9744601 C55.0917855,29.2779078 56.460353,27.8978442 58.1427731,27.8978442 L58.1427731,27.8978442 Z" id="Shape"></path>
                            <path d="M1.76888959,44.7185794 L13.6296311,44.7185794 C14.6048155,44.7185794 15.3985207,43.9187455 15.3985207,42.9353694 L15.3985207,39.4889784 C15.3985207,37.0474932 13.79403,34.9768596 11.5933263,34.2916721 C12.3453979,33.3954919 12.8001638,32.2377242 12.8001638,30.9739218 C12.8001638,28.137902 10.5119231,25.8299019 7.69899348,25.8299019 C4.88659774,25.8299019 2.5978232,28.137902 2.5978232,30.9739218 C2.5978232,32.2377242 3.05312276,33.3954919 3.8051944,34.2916721 C1.60395694,34.9768596 0,37.0474932 0,39.4889784 L0,42.9353694 C0,43.9187455 0.793171471,44.7185794 1.76888959,44.7185794 L1.76888959,44.7185794 Z M7.69899348,27.897306 C9.38194731,27.897306 10.7505149,29.2773694 10.7505149,30.9739218 C10.7505149,32.6710125 9.38141358,34.051076 7.69899348,34.051076 C6.01657339,34.051076 4.64800562,32.6710125 4.64800562,30.9739218 C4.64747204,29.2773694 6.01657339,27.897306 7.69899348,27.897306 Z M2.04964885,39.4889784 C2.04964885,37.6304138 3.5489883,36.1179418 5.39207107,36.1179418 L10.0059159,36.1179418 C11.8495324,36.1179418 13.3488718,37.6304138 13.3488718,39.4889784 L13.3488718,42.6517136 L12.0406195,42.6517136 L12.0406195,39.330734 C12.0406195,38.7601929 11.5821173,38.297301 11.0157951,38.297301 C10.4500065,38.297301 9.99097067,38.7601929 9.99097067,39.330734 L9.99097067,42.6517136 L5.40755016,42.6517136 L5.40755016,39.330734 C5.40755016,38.7601929 4.94851422,38.297301 4.38272573,38.297301 C3.81640352,38.297301 3.35790131,38.7601929 3.35790131,39.330734 L3.35790131,42.6517136 L2.04964885,42.6517136 L2.04964885,39.4889784 Z" id="Shape"></path>
                            <path d="M25.3377164,13.4389337 L25.3377164,16.8250413 C25.3377164,17.80142 26.1255501,18.5958715 27.0937957,18.5958715 L38.7479709,18.5958715 C39.7162165,18.5958715 40.5040503,17.80142 40.5040503,16.8250413 L40.5040503,13.4389337 C40.5040503,11.0410464 38.9353216,9.00647538 36.7783865,8.32344085 C37.5096414,7.44233169 37.9510632,6.30824669 37.9510632,5.07243317 C37.9510632,2.27570537 35.6948481,0 32.9208833,0 C30.1474522,0 27.8907034,2.27570537 27.8907034,5.07243317 C27.8907034,6.30824669 28.3321252,7.44233169 29.0633801,8.32344085 C26.906445,9.00647538 25.3377164,11.0410464 25.3377164,13.4389337 L25.3377164,13.4389337 Z M32.9208833,2.06686581 C34.5643387,2.06686581 35.9014143,3.41517277 35.9014143,5.07243317 C35.9014143,6.72323462 34.5718113,8.07800054 32.9182145,8.07800054 C31.2763604,8.07638576 29.9403523,6.72861702 29.9403523,5.07243317 C29.9403523,3.41517277 31.277428,2.06686581 32.9208833,2.06686581 L32.9208833,2.06686581 Z M27.3873653,13.4389337 C27.3873653,11.6223524 28.8530776,10.1448663 30.6539931,10.1448663 L35.1872399,10.1448663 C36.9886889,10.1448663 38.4538677,11.6223524 38.4538677,13.4389337 L38.4538677,16.5284675 L37.2043292,16.5284675 L37.2043292,13.2833806 C37.2043292,12.7128395 36.745827,12.2499477 36.1795048,12.2499477 C35.6131825,12.2499477 35.1546804,12.7128395 35.1546804,13.2833806 L35.1546804,16.5284675 L30.6870863,16.5284675 L30.6870863,13.2833806 C30.6870863,12.7128395 30.2280504,12.2499477 29.6617282,12.2499477 C29.0959397,12.2499477 28.6369038,12.7128395 28.6369038,13.2833806 L28.6369038,16.5284675 L27.3873653,16.5284675 L27.3873653,13.4389337 Z" id="Shape"></path>
                            <path d="M25.3307774,68.777651 C25.3307774,69.7545681 26.1186112,70.5490196 27.0873905,70.5490196 L38.7543762,70.5490196 C39.7231554,70.5490196 40.5109892,69.7545681 40.5109892,68.777651 L40.5109892,65.3877758 C40.5109892,62.9877355 38.9401255,60.9504733 36.7805216,60.2669004 C37.5133777,59.385253 37.9553333,58.2500916 37.9553333,57.012125 C37.9553333,55.4151483 37.195789,53.8919112 35.9238324,52.9376005 C35.470134,52.5968907 34.8280175,52.691622 34.4901457,53.1496695 C34.1522739,53.6077171 34.2462162,54.2546893 34.7004483,54.5959374 C35.4658639,55.1702462 35.9056844,56.0513554 35.9056844,57.012125 C35.9056844,58.6715384 34.5664738,60.0219983 32.9208833,60.0219983 C31.2747591,60.0219983 29.9360822,58.6720767 29.9360822,57.012125 C29.9360822,56.0513554 30.3753689,55.1702462 31.1413184,54.5959374 C31.5950167,54.2546893 31.6894927,53.6077171 31.3516209,53.1496695 C31.0137491,52.691622 30.3716325,52.5968907 29.9174004,52.9370623 C28.645444,53.8919112 27.8858996,55.4151483 27.8858996,57.012125 C27.8858996,58.2495533 28.3283888,59.3847147 29.0607113,60.2669004 C26.9011074,60.9504733 25.3307774,62.9871973 25.3307774,65.3877758 L25.3307774,68.777651 Z M27.3804262,65.3877758 C27.3804262,63.5685033 28.8477401,62.0888641 30.6518579,62.0888641 L35.1899086,62.0888641 C36.9940266,62.0888641 38.4613403,63.5690415 38.4613403,65.3877758 L38.4613403,68.4821538 L37.2080655,68.4821538 L37.2080655,65.2322225 C37.2080655,64.6611432 36.7490295,64.1987896 36.183241,64.1987896 C35.6169188,64.1987896 35.1584166,64.6611432 35.1584166,65.2322225 L35.1584166,68.4821538 L30.68335,68.4821538 L30.68335,65.2322225 C30.68335,64.6611432 30.2248478,64.1987896 29.6585255,64.1987896 C29.0922033,64.1987896 28.6337011,64.6611432 28.6337011,65.2322225 L28.6337011,68.4821538 L27.3804262,68.4821538 L27.3804262,65.3877758 Z" id="Shape"></path>
                            <path d="M50.6295292,21.5998241 L55.9063074,24.2049362 C56.8382571,24.6656751 57.9794418,23.9325837 57.9618276,22.8867711 L57.8609464,16.9639087 C57.8433322,15.90464 56.6685205,15.3206428 55.75205,15.9084078 L53.8091537,17.1539098 C51.0949703,13.97718 47.678355,11.4345045 43.8747619,9.77078513 C43.354877,9.54418347 42.7517251,9.78424125 42.5270109,10.307955 C42.3017631,10.8316686 42.5403551,11.439887 43.0591725,11.6670269 C46.4885979,13.1671194 49.5774828,15.44121 52.0584119,18.2766915 L50.5766866,19.2266962 C49.6575472,19.8160759 49.6885055,21.1353177 50.6295292,21.5998241 Z M55.8337156,18.3057567 L55.8950984,21.8980126 L52.6946571,20.3182597 L55.8337156,18.3057567 Z" id="Shape"></path>
                            <path d="M43.0447608,61.5710713 L48.9145494,61.8078996 C49.961792,61.8504211 50.6108474,60.7039564 50.0797535,59.7453398 L49.0180995,57.82703 C52.4464573,55.3338731 55.2887439,52.0554148 57.2700711,48.2952262 C57.5358849,47.7908894 57.3458654,47.1654472 56.8457297,46.8974004 C56.3455941,46.6293538 55.7258955,46.8209695 55.4600817,47.3253063 C53.6623689,50.7361732 51.0992404,53.7169812 48.0108892,56.0077574 L47.0901485,54.3451146 C46.5590546,53.3848832 45.2518697,53.3418235 44.7378562,54.262763 L41.856605,59.4261598 C41.3484629,60.3379489 42.0071261,61.529088 43.0447608,61.5710713 Z M45.8886486,56.4152099 L47.7018405,59.6904386 L44.1416433,59.5467269 L45.8886486,56.4152099 Z" id="Shape"></path>
                            <path d="M10.0117873,46.4587298 C9.06969615,46.022212 7.94612566,46.780601 7.98882667,47.8269518 L8.23222247,53.7460465 C8.27545722,54.8074681 9.46574816,55.3575559 10.365672,54.7493377 L12.1559123,53.53936 C14.8492789,56.6477323 18.223193,59.1408892 21.9664709,60.7782345 C22.4863559,61.0053744 23.0895077,60.76424 23.3147556,60.2410646 C23.5394697,59.717351 23.3014116,59.1091326 22.7820604,58.8819927 C19.3969373,57.4012771 16.3395444,55.163249 13.8746281,52.3772862 L15.4593697,51.3056377 C16.3640974,50.6947281 16.3021811,49.3760248 15.3494145,48.9346628 L10.0117873,46.4587298 Z M10.22636,52.3552181 L10.0790415,48.7651152 L13.3163124,50.2662841 C10.0811765,52.4531789 13.4689684,50.1629408 10.22636,52.3552181 Z" id="Shape"></path>
                            <path d="M8.45853787,22.4717833 C8.19752793,22.978273 8.39288502,23.6021004 8.89515571,23.8653029 C9.39689266,24.1290435 10.0160574,23.9315073 10.2770675,23.4255556 C12.0571661,19.9732439 14.6176258,16.9515292 17.7161185,14.6257668 L18.8487629,16.4041326 C19.4391046,17.3304546 20.7462894,17.2895477 21.2021227,16.3400814 C21.2021227,16.3400814 21.2021227,16.3400814 21.2021227,16.339543 L23.7609813,11.0065986 C24.2082744,10.074356 23.4973026,8.93973284 22.4740793,8.93973284 C22.4644717,8.93973284 22.4543301,8.93973284 22.4447223,8.94027105 L16.5711975,9.06945016 C15.5234212,9.09205657 14.9464236,10.2761984 15.5346302,11.2003673 L16.605892,12.8823871 C13.2084922,15.4046092 10.4030354,18.7013678 8.45853787,22.4717833 Z M21.473808,11.0286667 L19.9216261,14.2629889 L17.9114756,11.1072507 L21.473808,11.0286667 Z" id="Shape"></path>
                        </g>
                    </g>
                </g>
            </g>
        </g>
    </g>
</svg>