<?xml version="1.0" encoding="UTF-8"?>
<svg width="115px" height="101px" viewBox="0 0 115 101" version="1.1" xmlns="http://www.w3.org/2000/svg" xmlns:xlink="http://www.w3.org/1999/xlink">
    <title>Logo</title>
    <g id="5_Portfolio" stroke="none" stroke-width="1" fill="none" fill-rule="evenodd">
        <g id="05.1_Portfolio_v4" transform="translate(-237.000000, -924.000000)">
            <g id="PORTFOLIO" transform="translate(159.000000, 447.000000)">
                <g id="Company_1" transform="translate(1.000000, 0.000000)">
                    <g id="Logo" transform="translate(44.000000, 438.000000)">
                        <g transform="translate(33.000000, 39.000000)">
                            <polygon id="Fill-1" fill="#E6E7E9" points="0 0 0 101 86.7427198 101 115 76.1717609 115 0"></polygon>
                            <g id="Group-10" transform="translate(20.909091, 23.610390)">
                                <path d="M18.0821052,11.9474506 C18.0821052,7.83886216 15.299986,4.95596104 11.1771066,4.95596104 L7.28255708,4.95596104 L7.28255708,18.9389402 L11.1771066,18.9389402 C15.299986,18.9389402 18.0821052,16.1219726 18.0821052,12.0133841 L18.0821052,11.9474506 Z M11.1771066,23.5441433 L2.24385324,23.5441433 L2.24385324,0.350757901 L11.1771066,0.350757901 C18.3759705,0.350757901 23.3508087,5.3540981 23.3508087,11.8815171 L23.3508087,11.9474506 C23.3508087,18.474447 18.3759705,23.5441433 11.1771066,23.5441433 L11.1771066,23.5441433 Z" id="Fill-2" fill="#595A5C"></path>
                                <path d="M36.8025325,23.8244031 C30.1079147,23.8244031 25.135581,18.5928314 25.135581,11.9775011 L25.135581,11.9115676 C25.135581,5.36343868 30.0098205,0 36.9978861,0 C41.2881519,0 43.8548812,1.44715635 45.9678726,3.5540706 L42.7825235,7.27255235 C41.027263,5.65971689 39.239861,4.67240462 36.9649098,4.67240462 C33.1300517,4.67240462 30.3675513,7.89765289 30.3675513,11.845634 L30.3675513,11.9115676 C30.3675513,15.860394 33.0645164,19.1519985 36.9649098,19.1519985 C39.5650329,19.1519985 41.1574987,18.09833 42.9444833,16.4533731 L46.1302499,19.7111655 C43.7897634,22.2453797 41.1896403,23.8244031 36.8025325,23.8244031" id="Fill-4" fill="#595A5C"></path>
                                <path d="M58.3329629,23.7063567 C51.3181822,23.7063567 46.4919462,18.7211905 46.4919462,11.9777969 L46.4919462,11.9118634 C46.4919462,5.42840011 51.4793071,0.118215429 58.3008214,0.118215429 C62.3552436,0.118215429 64.8009204,1.22513788 67.149338,3.24498606 L64.0282719,7.0572963 C62.2901257,5.59196597 60.7464982,4.74412846 58.1396964,4.74412846 C54.5356728,4.74412846 51.6725736,7.96979938 51.6725736,11.8467752 L51.6725736,11.9118634 C51.6725736,16.0817362 54.5035313,19.1451092 58.4940878,19.1451092 C60.2960997,19.1451092 61.904845,18.6886464 63.1591988,17.7765659 L63.1591988,14.5187736 L59.1799126,14.5187736 L59.1799126,10.1853349 L67.9545455,10.1853349 L67.9545455,20.0897338 C65.6365998,22.0774605 62.4525029,23.7063567 58.3329629,23.7063567" id="Fill-6" fill="#595A5C"></path>
                                <path d="M11.881924,47.4189686 C8.07294609,47.4189686 4.98485637,44.292198 4.98485637,40.4359321 C4.98485637,36.5796662 8.07294609,33.4537408 11.881924,33.4537408 C15.6904845,33.4537408 18.7764871,36.5796662 18.7764871,40.4359321 C18.7764871,44.292198 15.6904845,47.4189686 11.881924,47.4189686 L11.881924,47.4189686 Z M11.881924,28.405177 C5.31754189,28.405177 0,33.7931294 0,40.4359321 C0,47.07958 5.31754189,52.4675325 11.881924,52.4675325 C18.4438016,52.4675325 23.7625958,47.07958 23.7625958,40.4359321 C23.7625958,33.7931294 18.4438016,28.405177 11.881924,28.405177 L11.881924,28.405177 Z M51.0962387,51.5715128 L51.0962387,28.7648528 L67.738446,28.7648528 L67.738446,33.2280453 L56.019734,33.2280453 L56.019734,37.8552263 L65.7815705,37.8552263 L65.7815705,42.3184188 L56.019734,42.3184188 L56.019734,47.1078976 L67.8995709,47.1078976 L67.8995709,51.5715128 L51.0962387,51.5715128 Z M42.5269776,51.5715128 L31.3500798,37.0728996 L31.3500798,51.5715128 L26.3397606,51.5715128 L26.3397606,28.7648528 L31.0211511,28.7648528 L41.8348916,42.8070031 L41.8348916,28.7648528 L46.8464629,28.7648528 L46.8464629,51.5715128 L42.5269776,51.5715128 Z" id="Fill-8" fill="#009ADE"></path>
                            </g>
                        </g>
                    </g>
                </g>
            </g>
        </g>
    </g>
</svg>