<?xml version="1.0" encoding="UTF-8"?>
<svg width="20px" height="20px" viewBox="0 0 20 20" version="1.1" xmlns="http://www.w3.org/2000/svg" xmlns:xlink="http://www.w3.org/1999/xlink">
    <!-- Generator: Sketch 63.1 (92452) - https://sketch.com -->
    <title>phone-square</title>
    <desc>Created with Sketch.</desc>
    <g id="_Symbols" stroke="none" stroke-width="1" fill="none" fill-rule="evenodd">
        <g id="phone-square" fill="#0065A1" fill-rule="nonzero">
            <g id="Shape">
                <path d="M17.8571429,0 L2.14285714,0 C0.959375,0 0,0.959375 0,2.14285714 L0,17.8571429 C0,19.040625 0.959375,20 2.14285714,20 L17.8571429,20 C19.040625,20 20,19.040625 20,17.8571429 L20,2.14285714 C20,0.959375 19.040625,0 17.8571429,0 Z M4.19642857,17.1428571 C3.88245536,17.1428571 3.61352679,16.9253125 3.54392857,16.6237946 L2.874375,13.7220089 C2.80150508,13.4062362 2.96521227,13.0835974 3.26308036,12.9559375 L6.38799107,11.6166964 C6.66222223,11.499177 6.98112209,11.5772545 7.17004464,11.8081696 L8.55383929,13.4994643 C10.7388393,12.4743304 12.4956696,10.6933036 13.4994196,8.55392857 L11.8080804,7.17013393 C11.5771785,6.98120296 11.4991034,6.66231281 11.6166071,6.38808036 L12.9558929,3.26316964 C13.0835528,2.96530156 13.4061915,2.80159436 13.7219643,2.87446429 L16.62375,3.54401786 C16.9276013,3.61406691 17.1428571,3.88460737 17.1428571,4.19642857 C17.1428571,11.3523214 11.3417411,17.1428571 4.19642857,17.1428571 Z"></path>
            </g>
        </g>
    </g>
</svg>