<?xml version="1.0" encoding="iso-8859-1"?>
<!-- Generator: Adobe Illustrator 19.0.0, SVG Export Plug-In . SVG Version: 6.00 Build 0)  -->
<svg version="1.1" id="Layer_1" xmlns="http://www.w3.org/2000/svg" xmlns:xlink="http://www.w3.org/1999/xlink" x="0px" y="0px"
	 viewBox="0 0 512 512" style="enable-background:new 0 0 512 512;" xml:space="preserve">
<g>
	<g>
		<g>
			<path d="M491.209,65.438c-16.081-28.031-35.704-44.115-53.868-44.125c-11.769,0-21.331,9.573-21.331,21.333v64
				c0,7.794,4.407,14.332,10.665,18.056v303.122c-12.774,2.747-21.331,10.337-21.331,20.155s8.556,17.408,21.331,20.155v33.178
				c0,5.896,4.77,10.667,10.665,10.667c5.895,0,10.665-4.771,10.665-10.667v-33.178c12.776-2.747,21.331-10.337,21.331-20.155
				s-8.555-17.408-21.331-20.155V157.971c8.603,8.233,19.257,12.585,31.809,12.674c0.104,0,0.208,0,0.292,0
				c11.644,0,21.018-5.115,26.455-14.427c3.838-6.57,5.506-14.846,5.437-23.98C511.837,111.079,502.602,85.308,491.209,65.438z
				 M488.147,145.458c-1.167,2.021-2.916,4.052-8.166,3.854c-7.353-0.052-13.248-2.448-17.998-7.323
				c-4.958-5.076-8.167-12.37-10.293-19.775c4.233-3.901,6.981-9.372,6.981-15.569V56.223c4.774,5.339,9.57,12.04,14.04,19.829
				C488.001,102.719,494.938,133.844,488.147,145.458z"/>
			<path d="M85.385,427.824V124.702c6.258-3.724,10.665-10.262,10.665-18.056v-64c0-11.76-9.561-21.333-21.331-21.333
				c-18.164,0.01-37.808,16.094-53.868,44.125C8.802,86.419-0.868,113.988,0.062,135.755c0.33,7.736,2.1,14.739,5.437,20.453
				c5.437,9.323,14.811,14.438,26.455,14.438c0.083,0,0.188,0,0.292,0c12.552-0.09,23.205-4.441,31.809-12.674v269.853
				c-12.774,2.747-21.331,10.337-21.331,20.155s8.556,17.408,21.331,20.155v33.178c0,5.896,4.77,10.667,10.665,10.667
				s10.665-4.771,10.665-10.667v-33.178c12.776-2.747,21.331-10.337,21.331-20.155S98.16,430.572,85.385,427.824z M50.076,141.99
				c-4.749,4.875-10.644,7.271-17.998,7.323c-0.042,0-0.104,0-0.146,0c-5.062,0-6.853-1.854-8.02-3.854
				c-6.791-11.615,0.146-42.75,15.436-69.406c4.464-7.794,9.263-14.499,14.04-19.839v50.432c0,6.197,2.748,11.668,6.981,15.569
				C58.243,129.62,55.034,136.914,50.076,141.99z"/>
			<path d="M316.082,274.723c-5.769-13.592-13.505-32.972-22.095-54.972c24.973-53.401,54.989-115.891,75.256-157.849
				c5.187-10.749,5.77-23.258,1.583-34.33c-4.145-11.009-12.374-19.602-23.185-24.175c-5.712-2.422-11.72-3.53-17.706-3.364
				c-5.365,0.148-10.712,1.316-15.812,3.531c-11.02,4.76-19.415,13.624-23.602,24.966c-8.076,21.825-20.67,55.742-34.369,92.16
				c-13.337-35.423-25.79-68.903-34.395-92.17c-4.187-11.332-12.582-20.196-23.581-24.956c-10.832-4.687-22.768-4.76-33.559-0.167
				C153.828,7.98,145.6,16.573,141.455,27.593c-4.166,11.061-3.604,23.57,1.583,34.319c18.061,37.372,49.174,102.118,75.26,157.908
				c-8.575,21.968-16.283,41.237-22.099,54.903c-15.936,37.402-59.848,126.07-84.595,175.596c-5.312,10.624-6.02,23.06-1.937,34.101
				c4.083,11.041,12.27,19.633,23.06,24.216c5.312,2.239,10.874,3.364,16.436,3.364c5.77,0,11.561-1.208,17.04-3.625
				c10.791-4.739,19.248-13.874,23.227-25.07c14.543-41.048,49.685-139.264,66.713-179.978
				c16.356,39.062,48.637,129.018,66.731,179.989c3.958,11.186,12.415,20.321,23.206,25.06c5.479,2.416,11.27,3.625,17.04,3.625
				c5.562,0,11.124-1.125,16.436-3.364c10.811-4.583,18.998-13.197,23.081-24.237c4.062-11.051,3.354-23.477-1.958-34.09
				C375.93,400.793,332.018,312.125,316.082,274.723z M162.25,52.583c-2.688-5.583-2.979-11.813-0.833-17.521
				c2.063-5.51,6.167-9.802,11.521-12.073c5.417-2.292,11.354-2.229,16.771,0.104c5.625,2.427,9.896,6.969,12.063,12.781
				c10.427,28.225,26.529,71.432,42.992,114.988c-5.305,14-10.618,27.931-15.796,41.396C204.895,141.09,178.38,85.93,162.25,52.583z
				 M169.333,476.167c-2.062,5.76-6.208,10.26-11.708,12.688c-5.354,2.365-11.25,2.385-16.563,0.135
				c-5.333-2.26-9.375-6.5-11.375-11.958c-2.083-5.625-1.729-11.729,1-17.188c13.944-27.889,33.854-68.01,51.577-104.688
				l26.691,11.277C194.828,404.616,179.725,446.853,169.333,476.167z M237.646,292.271c-5.501,12.931-13.012,32.281-21.233,54.165
				l-24.906-10.523c10.055-21.076,18.858-40.01,24.327-52.861c1.464-3.44,3.052-7.247,4.734-11.335l21.956,9.301
				C240.753,285.048,239.103,288.846,237.646,292.271z M251.236,261.533l-22.676-9.605c25.467-63.854,64.385-168.471,81.982-216.042
				c2.167-5.823,6.438-10.365,12.063-12.792c5.417-2.333,11.375-2.396,16.75-0.104c5.375,2.271,9.479,6.552,11.542,12.063
				c2.167,5.708,1.854,11.938-0.833,17.531C322.781,109.057,277.924,202.563,251.236,261.533z M283.767,251.93l-5.841,2.474
				c1.194-2.602,2.422-5.267,3.664-7.957C282.324,248.302,283.053,250.138,283.767,251.93z M274.667,292.271
				c-1.444-3.391-3.115-7.221-4.884-11.241l21.97-9.307c1.677,4.078,3.272,7.915,4.727,11.329
				c5.469,12.85,14.272,31.785,24.327,52.861l-24.905,10.522C287.674,324.54,280.164,305.186,274.667,292.271z M382.646,477.021
				c-2.021,5.458-6.063,9.708-11.396,11.969c-5.313,2.25-11.208,2.229-16.563-0.135c-5.5-2.427-9.646-6.927-11.688-12.677
				c-10.401-29.324-25.512-71.565-39.639-109.745l26.688-11.276c17.723,36.677,37.633,76.798,51.577,104.688
				C384.354,465.292,384.708,471.396,382.646,477.021z"/>
		</g>
	</g>
</g>
<g>
</g>
<g>
</g>
<g>
</g>
<g>
</g>
<g>
</g>
<g>
</g>
<g>
</g>
<g>
</g>
<g>
</g>
<g>
</g>
<g>
</g>
<g>
</g>
<g>
</g>
<g>
</g>
<g>
</g>
</svg>
