<svg height="512pt" viewBox="0 -161 512.00112 512" width="512pt" xmlns="http://www.w3.org/2000/svg"><path d="m485.675781 110.03125c-25.121093-19.078125-53.925781-32.0625-87.976562-39.621094-29.492188-6.546875-62.550781-9.058594-104.03125-7.90625-3.6875.105469-7.019531 2.226563-8.667969 5.527344l-7.238281 14.46875h-88.8125v-72.5c0-5.519531-4.476563-10-10-10-42.199219 0-54.421875 18.230469-78.980469 61.867188-.328125-5.226563-4.660156-9.367188-9.96875-9.367188-5.523438 0-10 4.476562-10 10v27.296875h-44.015625l-9.984375-18.617187c3.007812-1.722657 5.03125-4.964844 5.03125-8.679688 0-5.523438-4.476562-10-10-10h-11.03125c-3.515625 0-6.773438 1.847656-8.582031 4.863281-1.804688 3.019531-1.894531 6.765625-.230469 9.863281l20 37.296876c1.742188 3.246093 5.128906 5.273437 8.8125 5.273437h20.027344c-6.292969 8.363281-10.027344 18.753906-10.027344 30 0 27.570313 22.429688 50 50 50 16.324219 0 30.839844-7.863281 39.972656-20h192.058594c9.128906 12.136719 23.648438 20 39.96875 20 16.324219 0 30.84375-7.863281 39.972656-20h.027344 100c5.523438 0 10-4.480469 10-10v-20c0-15.296875-11.511719-27.945313-26.324219-29.765625zm-316.726562-89.613281v65.695312l-42.378907 19.636719c-5.644531-6.058594-12.773437-10.714844-20.804687-13.390625 2.816406-4.96875 5.441406-9.652344 7.878906-13.996094 24.046875-42.902343 31.183594-55.632812 55.304688-57.945312zm-78.949219 149.378906c-16.542969 0-30-13.457031-30-30 0-16.527344 13.4375-29.976563 29.957031-30 .011719 0 .023438.003906.03125.003906.011719 0 .023438-.003906.035157-.003906 16.53125.015625 29.972656 13.46875 29.972656 30 .003906 16.542969-13.457032 30-29.996094 30zm48.992188-20c.660156-3.230469 1.007812-6.574219 1.007812-10 0-5.917969-1.039062-11.59375-2.9375-16.867187l44.089844-20.429688h102.792968c3.785157 0 7.25-2.136719 8.941407-5.527344l7.308593-14.613281c64.121094-1.230469 110.621094 7.203125 148.300782 27.441406h-46.496094c-.007812 0-.019531 0-.027344 0-9.128906-12.136719-23.648437-20.003906-39.972656-20.003906s-30.84375 7.867187-39.972656 20.003906h-38.078125c-5.523438 0-10 4.476563-10 10 0 5.519531 4.476562 10 10 10h29.058593c-.660156 3.230469-1.007812 6.574219-1.007812 9.996094 0 3.425781.347656 6.769531 1.007812 10.003906zm223.007812 20c-16.542969 0-30-13.457031-30-30s13.457031-30 30-30c16.527344 0 29.976562 13.4375 30 29.960937v.078126c-.023438 16.523437-13.472656 29.960937-30 29.960937zm130-20h-80v-9.960937c0-.011719 0-.027344 0-.039063s0-.027344 0-.039063v-9.960937h69.96875c.007812 0 .015625.003906.027344.003906.003906 0 .007812-.003906.011718-.003906 5.507813.003906 9.992188 4.488281 9.992188 10zm0 0"/><path d="m90 129.796875c-5.507812 0-10 4.492187-10 10s4.492188 10 10 10 10-4.492187 10-10-4.492188-10-10-10zm0 0"/><path d="m362 129.796875c-5.507812 0-10 4.492187-10 10s4.492188 10 10 10 10-4.492187 10-10-4.492188-10-10-10zm0 0"/><path d="m255.214844 109.800781h-.234375c-5.523438 0-10 4.480469-10 10 0 5.523438 4.476562 10 10 10h.234375c5.523437 0 10-4.476562 10-10 0-5.519531-4.476563-10-10-10zm0 0"/><path d="m49.765625 72.5h.269531c5.519532 0 10-4.476562 10-10s-4.480468-10-10-10h-.269531c-5.523437 0-10 4.476562-10 10s4.476563 10 10 10zm0 0"/></svg>