<?xml version="1.0" encoding="UTF-8"?>
<svg width="63px" height="70px" viewBox="0 0 63 70" version="1.1" xmlns="http://www.w3.org/2000/svg" xmlns:xlink="http://www.w3.org/1999/xlink">
    <title>69721453-E314-4FD4-9DC4-0CB305EB0909</title>
    <g id="2_Who-We-Are" stroke="none" stroke-width="1" fill="none" fill-rule="evenodd">
        <g id="02.1_Who-We-Are_v4" transform="translate(-751.000000, -1982.000000)" fill="#0065A1" fill-rule="nonzero">
            <g id="BODY" transform="translate(0.000000, 1646.000000)">
                <g id="WHAT-WE-DO" transform="translate(160.000000, 0.000000)">
                    <g id="Principle_2" transform="translate(550.000000, 284.000000)">
                        <g id="023-chart-1" transform="translate(41.000000, 52.000000)">
                            <path d="M2.59979248,50.8556366 L13.8523864,50.8556366 L13.8523864,51.5921021 C13.8523864,53.1536865 15.1229095,54.4242096 16.684494,54.4242096 L18.2316589,54.4242096 L13.5394287,67.3163605 C13.0651855,68.6194611 14.0323639,70 15.4182435,70 L19.8375702,70 C20.6749725,70 21.429596,69.4712829 21.7163849,68.684082 L26.9068909,54.4242096 L28.6137389,54.4242096 C29.1803742,54.4242096 29.6396637,53.9649201 29.6396637,53.398819 C29.6396637,52.8321839 29.1803742,52.3734284 28.6137389,52.3734284 C27.1952819,52.3734284 18.1077575,52.3734284 16.684494,52.3734284 C16.2540436,52.3734284 15.9031677,52.0230866 15.9031677,51.5921021 L15.9031677,50.8556366 L46.1698151,50.8556366 L46.1698151,51.5921021 C46.1698151,52.0230866 45.8189391,52.3734284 45.3884888,52.3734284 C44.2701722,52.3734284 34.8718262,52.3734284 33.3994294,52.3734284 C32.8327943,52.3734284 32.3740387,52.8321839 32.3740387,53.398819 C32.3740387,53.9649201 32.8327943,54.4242096 33.3994294,54.4242096 L35.166092,54.4242096 L40.356598,68.684082 C40.6428529,69.4712829 41.3980103,70 42.2354126,70 L46.6547394,70 C48.041153,70 49.0072632,68.6189271 48.533554,67.3163605 L43.8407897,54.4242096 L45.3884888,54.4242096 C46.9500732,54.4242096 48.2205963,53.1536865 48.2205963,51.5921021 L48.2205963,50.8556366 L59.4731903,50.8556366 C60.9066009,50.8556366 62.0729828,49.6892547 62.0729828,48.2558441 L62.0729828,45.3041077 C62.0729828,44.0047454 61.1138153,42.9280853 59.8667907,42.7374268 L59.8667907,27.8206634 C59.8667907,27.2540283 59.4075013,26.7952728 58.8414001,26.7952728 C58.274765,26.7952728 57.8154754,27.2540283 57.8154754,27.8206634 L57.8154754,42.7043151 L4.2569733,42.7043151 L4.2569733,8.15132145 L57.8154754,8.15132145 L57.8154754,23.0349731 C57.8154754,23.6016082 58.274765,24.0603638 58.8414001,24.0603638 C59.4075013,24.0603638 59.8667907,23.6016082 59.8667907,23.0349731 L59.8667907,8.1182098 C61.1138153,7.92755127 62.0729828,6.85089111 62.0729828,5.55152896 L62.0729828,2.59979248 C62.0729828,1.16638184 60.9066009,0 59.4731903,0 L2.59979248,0 C1.16638184,0 -1.55431223e-14,1.16638184 -1.55431223e-14,2.59979248 L-1.55431223e-14,5.55152896 C-1.55431223e-14,6.85089111 0.95916748,7.92755127 2.20619205,8.1182098 L2.20619205,42.7368927 C0.95916748,42.9275513 -1.55431223e-14,44.0047454 -1.55431223e-14,45.3035736 L-1.55431223e-14,48.2553101 C-1.55431223e-14,49.6892547 1.16638184,50.8556366 2.59979248,50.8556366 Z M24.7241974,54.4242096 L19.8012542,67.9492188 L15.4919434,67.9492188 L20.4143524,54.4242096 L24.7241974,54.4242096 Z M46.5810394,67.9492188 L42.2717285,67.9492188 L37.3487855,54.4242096 L41.6586304,54.4242096 L46.5810394,67.9492188 Z M2.05078125,2.59979248 C2.05078125,2.30232242 2.30232242,2.05078125 2.59979248,2.05078125 L59.4731903,2.05078125 C59.7706605,2.05078125 60.0222015,2.30232242 60.0222015,2.59979248 L60.0222015,5.55152896 C60.0222015,5.84899902 59.7706605,6.1005402 59.4731903,6.1005402 C58.4114837,6.1005402 2.97630307,6.1005402 2.59979248,6.1005402 C2.30232242,6.1005402 2.05078125,5.84899902 2.05078125,5.55152896 L2.05078125,2.59979248 Z M2.05078125,45.3041077 C2.05078125,45.0066375 2.30232242,44.7550964 2.59979248,44.7550964 L59.4731903,44.7550964 C59.7706605,44.7550964 60.0222015,45.0066375 60.0222015,45.3041077 L60.0222015,48.2558441 C60.0222015,48.5533141 59.7706605,48.8048553 59.4731903,48.8048553 C57.9078675,48.8048553 4.10263055,48.8048553 2.59979248,48.8048553 C2.30232242,48.8048553 2.05078125,48.5533141 2.05078125,48.2558441 L2.05078125,45.3041077 Z" id="Shape"></path>
                            <path d="M51.7507171,17.8108216 C51.7507171,15.7215882 50.0513459,14.0222168 47.9626465,14.0222168 C45.687027,14.0222168 43.8984681,16.0324097 44.2103577,18.3235169 L36.3127136,28.7557983 L29.1392516,22.0752716 C29.0644837,20.0522614 27.3960876,18.4287262 25.3543854,18.4287262 C23.3132171,18.4287262 21.6448211,20.0522614 21.5700531,22.0758057 L14.1781616,28.9587402 C12.0205688,28.8877106 10.2619171,30.6212616 10.2619171,32.7436066 C10.2619171,34.83284 11.9618226,36.5322113 14.0505218,36.5322113 C16.0916901,36.5322113 17.7600861,34.9086761 17.8348542,32.8851318 L25.2267456,26.0016632 C25.3549194,26.0059357 25.3490448,26.0064697 25.4825592,26.0016632 L32.8739167,32.8851318 C32.9486847,34.9086761 34.6170807,36.5322113 36.6587829,36.5322113 C38.9338685,36.5322113 40.7229614,34.5220184 40.4110718,32.2309113 L48.4876252,21.5615081 C50.3290558,21.3051605 51.7507171,19.7211457 51.7507171,17.8108216 Z M47.9626465,16.0735321 C48.9207458,16.0735321 49.6999359,16.8527222 49.6999359,17.8108216 C49.6999359,18.7470246 48.9458465,19.5475768 47.9546356,19.5475768 C47.0082855,19.5433044 46.2253571,18.7630462 46.2253571,17.8108216 C46.2253571,16.8527222 47.0045472,16.0735321 47.9626465,16.0735321 Z M25.3543854,20.4800415 C26.3124847,20.4800415 27.0916748,21.2592316 27.0916748,22.2173309 C27.0916748,23.1781006 26.2996673,23.9546204 25.3543854,23.9546204 C24.4192505,23.9546204 23.617096,23.1882477 23.617096,22.2173309 C23.617096,21.2592316 24.396286,20.4800415 25.3543854,20.4800415 Z M14.0505218,34.480896 C13.0924225,34.480896 12.3132324,33.7017059 12.3132324,32.7436066 C12.3132324,31.6824341 13.2702637,30.8450317 14.3501282,31.0340882 C14.3527985,31.0346222 14.3549347,31.0356903 14.357071,31.0356903 C15.1688385,31.1804199 15.7878112,31.8955231 15.7878112,32.7436066 C15.7878112,33.7017059 15.0080872,34.480896 14.0505218,34.480896 Z M17.2132111,30.6618499 C16.9792938,30.3077698 16.6876984,29.995346 16.3517761,29.7379303 L22.1916961,24.2990876 C22.4256134,24.6531677 22.7172088,24.9655915 23.0536652,25.2235413 L17.2132111,30.6618499 Z M28.5170746,24.2990876 L34.3575287,29.7379303 C34.0216064,29.995346 33.7300111,30.3083039 33.4960937,30.6623841 L27.6556396,25.2235413 C27.9915619,24.9655915 28.2831574,24.6531677 28.5170746,24.2990876 Z M36.6587829,34.480896 C35.7006836,34.480896 34.9214935,33.7017059 34.9214935,32.7436066 C34.9214935,31.8896484 35.5447388,31.1798859 36.3516999,31.0356903 C36.3543701,31.0356903 36.3565063,31.0346222 36.3586426,31.0340882 C37.4342347,30.8460999 38.3960724,31.6856384 38.3960724,32.7436066 C38.3960724,33.7017059 37.6163483,34.480896 36.6587829,34.480896 L36.6587829,34.480896 Z M38.4083558,29.3854523 L45.2063752,20.4052734 C45.4958343,20.7128906 45.835495,20.9713745 46.2125397,21.1689759 L39.4150544,30.1491546 C39.1255951,29.8420716 38.7854004,29.5830536 38.4083558,29.3854523 Z" id="Shape"></path>
                        </g>
                    </g>
                </g>
            </g>
        </g>
    </g>
</svg>