<?xml version="1.0" encoding="UTF-8"?>
<svg width="75px" height="70px" viewBox="0 0 75 70" version="1.1" xmlns="http://www.w3.org/2000/svg" xmlns:xlink="http://www.w3.org/1999/xlink">
    <title>A590DCE2-1B37-4FDC-8E27-5A6346B83AD8</title>
    <g id="4_Investment-Focus" stroke="none" stroke-width="1" fill="none" fill-rule="evenodd">
        <g id="04_Investment-Focus_v4" transform="translate(-742.000000, -1688.000000)" fill="#0065A1" fill-rule="nonzero">
            <g id="BODY" transform="translate(159.000000, 1472.000000)">
                <g id="CRITERIA" transform="translate(1.000000, 0.000000)">
                    <g id="Criteria_2" transform="translate(550.000000, 164.000000)">
                        <g id="usa" transform="translate(32.000000, 52.000000)">
                            <path d="M24.8083724,29.2471769 L22.6183416,29.2471769 L22.6183416,27.0571461 L24.8083724,27.0571461 L24.8083724,29.2471769 Z M21.158321,29.2471769 L18.9682902,29.2471769 L18.9682902,27.0571461 L21.158321,27.0571461 L21.158321,29.2471769 Z" id="Shape"></path>
                            <path d="M21.8883313,44.7342306 C25.905669,38.8046082 36.7491731,21.9773013 36.7491731,14.8608418 C36.7491731,6.66647653 30.0826965,-8.29925587e-15 21.8883313,-8.29925587e-15 C13.6945363,-8.29925587e-15 7.02805981,6.66647653 7.02805981,14.8608418 C7.02805981,21.9773013 17.8709936,38.8046082 21.8883313,44.7342306 Z M9.21809061,14.8608418 C9.21809061,7.87384518 14.9019048,2.1900308 21.8883313,2.1900308 C28.8747576,2.1900308 34.5591423,7.87384518 34.5591423,14.8608418 C34.5591423,20.8269648 25.1682445,35.786472 21.8883313,40.7995893 C18.6249572,35.8115661 9.21809061,20.8320977 9.21809061,14.8608418 Z" id="Shape"></path>
                            <path d="M28.9494696,14.8608418 C28.9494696,10.9672637 25.7819095,7.79970344 21.8883313,7.79970344 C17.9953234,7.79970344 14.8277633,10.9672637 14.8277633,14.8608418 C14.8277633,18.7538497 17.9953234,21.9214098 21.8883313,21.9214098 C25.7819095,21.9214098 28.9494696,18.7538497 28.9494696,14.8608418 Z M17.0177941,14.8608418 C17.0177941,12.1746322 19.202692,9.98973424 21.8883313,9.98973424 C24.5745409,9.98973424 26.7594388,12.1746322 26.7594388,14.8608418 C26.7594388,17.5464812 24.5745409,19.731379 21.8883313,19.731379 C19.202692,19.731379 17.0177941,17.5464812 17.0177941,14.8608418 Z" id="Shape"></path>
                            <polygon id="Path" points="69.8591309 21.3117372 58.8182959 32.3525722 54.5317669 32.3525722 45.3079732 23.0004562 36.4354969 23.0004562 36.4354969 25.190487 44.3920383 25.190487 53.6158321 34.542603 59.7256759 34.542603 69.8591309 24.409148 72.5630205 27.1124673 72.5630205 30.3843961 69.9532338 32.9941828 69.9532338 50.6729782 66.5307404 54.0954717 66.5318809 59.069237 69.0532681 61.590624 69.0532681 63.6306604 67.4689176 65.2150109 61.8940345 59.6395575 44.3937493 59.6395575 42.6257557 63.9084066 44.4490704 65.7317214 42.3708224 67.8099692 39.7872705 67.8099692 31.6168587 59.6395575 17.5972397 59.6395575 2.1900308 44.2323486 2.1900308 25.190487 7.34116574 25.190487 7.34116574 23.0004562 0 23.0004562 0 45.1397286 16.6898597 61.8295883 30.7100491 61.8295883 38.8798905 70 43.2776321 70 47.5459109 65.7317214 45.2087373 63.3939775 45.8571919 61.8295883 60.9866546 61.8295883 67.4689176 68.3118513 71.2432989 64.5380404 71.2432989 60.6838144 68.7213415 58.161857 68.7213415 55.0022813 72.1432646 51.5803582 72.1432646 33.9009923 74.7530513 31.291776 74.7530513 26.2056576"></polygon>
                        </g>
                    </g>
                </g>
            </g>
        </g>
    </g>
</svg>