<svg id="Capa_1" enable-background="new 0 0 512 512" height="512" viewBox="0 0 512 512" width="512" xmlns="http://www.w3.org/2000/svg"><g><path d="m497 482h-204.499c6.413-53.227 40.405-99.432 89.591-121.293 5.417-2.407 8.908-7.779 8.908-13.707v-32c0-8.284-6.716-15-15-15h-25.242c42.45-29.885 70.242-79.255 70.242-135 0-90.981-74.019-165-165-165s-165 74.019-165 165c0 55.745 27.792 105.115 70.242 135h-25.242c-8.284 0-15 6.716-15 15v32c0 5.928 3.491 11.3 8.908 13.707 49.186 21.861 83.178 68.066 89.591 121.293h-204.499c-8.284 0-15 6.716-15 15s6.716 15 15 15h482c8.284 0 15-6.716 15-15s-6.716-15-15-15zm-376-317c0-74.439 60.561-135 135-135s135 60.561 135 135-60.561 135-135 135-135-60.561-135-135zm128.69 317c-6.22-61.908-43.6-116.315-98.69-144.457v-7.543h210v7.543c-55.091 28.142-92.471 82.549-98.69 144.457z"/><circle cx="226" cy="140" r="15"/><circle cx="196" cy="90" r="15"/><circle cx="166" cy="140" r="15"/></g></svg>