<?xml version="1.0" encoding="UTF-8"?>
<svg width="469px" height="426px" viewBox="0 0 469 426" version="1.1" xmlns="http://www.w3.org/2000/svg" xmlns:xlink="http://www.w3.org/1999/xlink">
    <!-- Generator: Sketch 63.1 (92452) - https://sketch.com -->
    <title>Key</title>
    <desc>Created with Sketch.</desc>
    <defs>
        <rect id="path-1" x="0" y="0" width="473" height="426"></rect>
        <path d="M438.915235,0 L347.049255,91.8369441 L329.857961,74.6510832 C326.097365,70.8916762 319.65063,70.8916762 315.352806,74.6510832 L311.592211,78.4104903 C307.831615,82.1698974 307.294387,88.6145952 311.592211,92.9110604 C311.592211,92.9110604 311.592211,92.9110604 311.592211,92.9110604 C307.831615,89.1516534 301.38488,88.6145952 297.087056,92.9110604 C297.087056,92.9110604 297.087056,92.9110604 297.087056,92.9110604 L292.789233,97.2075257 C289.028637,100.966933 289.028637,107.411631 292.789233,111.708096 L309.980527,128.893957 L213.279496,225.564424 C204.683849,174.5439 155.796105,139.63512 104.75945,148.765108 C53.185567,157.358039 18.8029782,205.693273 27.3986254,257.250855 C30.0847652,271.751425 35.4570447,285.177879 44.0526919,296.993158 C38.1431844,300.752566 32.233677,305.049031 27.3986254,310.419612 C-9.13287514,347.476625 -9.13287514,407.09008 27.3986254,443.610034 C63.930126,480.129989 124.099656,480.129989 160.631157,443.610034 C165.466208,438.776511 169.764032,433.405929 173.524628,426.961231 C215.428408,458.110604 273.986254,449.517674 305.682703,408.164196 C337.379152,366.810718 328.246277,307.734322 286.879725,276.047891 C274.523482,266.917902 260.555556,261.010262 245.513173,258.324971 L342.214204,161.117446 L359.405498,178.303307 C363.166094,182.062714 369.612829,182.062714 373.910653,178.303307 L377.671249,174.5439 C381.431844,170.784493 381.431844,164.339795 377.671249,160.580388 C377.671249,160.580388 377.671249,160.580388 377.671249,160.580388 C381.431844,164.339795 387.87858,164.339795 392.176403,160.580388 L395.936999,156.820981 C399.697595,153.061574 399.697595,146.616876 395.936999,142.32041 L378.745704,125.13455 L469,35.4458381 L469,0 L438.915235,0 Z" id="path-3"></path>
    </defs>
    <g id="_Symbols" stroke="none" stroke-width="1" fill="none" fill-rule="evenodd" opacity="0.2">
        <g id="Footer_1" transform="translate(-142.000000, 0.000000)">
            <g id="Key" transform="translate(140.000000, 0.000000)">
                <g>
                    <mask id="mask-2" fill="white">
                        <use xlink:href="#path-1"></use>
                    </mask>
                    <g id="Mask"></g>
                    <g id="Path-+-Path-+-Path-Mask" mask="url(#mask-2)">
                        <g transform="translate(2.000000, -26.000000)">
                            <mask id="mask-4" fill="white">
                                <use xlink:href="#path-3"></use>
                            </mask>
                            <use id="Mask" stroke="none" fill="#002E5A" fill-rule="nonzero" xlink:href="#path-3"></use>
                            <path d="M145.132303,389.862111 C142.465663,398.396464 138.19904,406.39742 131.799104,412.798184 C111.532642,433.067272 78.4663089,433.067272 58.1998467,412.798184 C37.9333844,392.529096 37.9333844,359.45848 58.1998467,339.189392 C64.5997821,332.788627 72.5997014,327.988054 81.1329486,325.854466 L81.1329486,325.854466 C96.5994593,321.587289 113.665954,324.787672 126.465825,334.388818 C128.599136,335.98901 130.19912,337.589201 131.799104,339.189392 C133.932416,341.32298 135.5324,342.923171 137.132384,345.056759 C146.198959,357.858288 149.398927,374.393597 145.132303,389.862111" id="Path" stroke="none" fill="#0065A1" fill-rule="nonzero" mask="url(#mask-4)"></path>
                            <path d="M157.8,275.810608 C151.4,282.211373 143.4,287.011946 134.866667,289.145534 C119.4,293.412711 102.333333,290.212328 89.5333333,280.611182 C87.4,279.01099 85.8,277.410799 84.2,275.810608 C63.9333333,255.54152 63.9333333,222.470904 84.2,202.201816 C104.466667,181.932728 137.533333,181.932728 157.8,202.201816 C178.066667,223.004301 178.066667,255.54152 157.8,275.810608" id="Path" stroke="none" fill="#0065A1" fill-rule="nonzero" mask="url(#mask-4)"></path>
                            <path d="M268.881023,387.746535 C248.634352,408.084488 215.600309,408.084488 195.353637,387.746535 C195.353637,387.746535 195.353637,387.746535 195.353637,387.746535 C193.222408,386.140907 191.623987,384.000069 190.025566,381.859232 C172.975737,358.845232 178.303808,326.197464 201.214516,309.070766 C224.125223,291.944068 256.626459,297.296161 273.676287,320.310161 C289.127695,341.183325 286.996466,369.549418 268.881023,387.746535" id="Path" stroke="none" fill="#0065A1" fill-rule="nonzero" mask="url(#mask-4)"></path>
                        </g>
                    </g>
                </g>
            </g>
        </g>
    </g>
</svg>