<?xml version="1.0" encoding="UTF-8"?>
<svg width="81px" height="70px" viewBox="0 0 81 70" version="1.1" xmlns="http://www.w3.org/2000/svg" xmlns:xlink="http://www.w3.org/1999/xlink">
    <title>87D38CFF-3759-4926-8A71-1CD9F7AC1D19</title>
    <g id="4_Investment-Focus" stroke="none" stroke-width="1" fill="none" fill-rule="evenodd">
        <g id="04_Investment-Focus_v4" transform="translate(-742.000000, -2030.000000)" fill="#0065A1" fill-rule="nonzero">
            <g id="BODY" transform="translate(159.000000, 1472.000000)">
                <g id="CRITERIA" transform="translate(1.000000, 0.000000)">
                    <g id="Criteria_5" transform="translate(550.000000, 506.000000)">
                        <g id="043-plan" transform="translate(32.000000, 52.000000)">
                            <path d="M37.0150277,34.9996926 C37.0150277,36.8066083 38.4850294,38.2766101 40.2919452,38.2766101 C42.0988609,38.2766101 43.5688626,36.8066083 43.5688626,34.9996926 C43.5688626,33.1927769 42.0988609,31.7233899 40.2919452,31.7233899 C38.4850294,31.7233899 37.0150277,33.1927769 37.0150277,34.9996926 Z M40.2919452,34.0842461 C40.7967011,34.0842461 41.2073917,34.4949367 41.2073917,34.9996926 C41.2073917,35.5050635 40.7967011,35.9157539 40.2919452,35.9157539 C39.7871893,35.9157539 39.3758839,35.5050635 39.3758839,34.9996926 C39.3758839,34.4949367 39.7871893,34.0842461 40.2919452,34.0842461 L40.2919452,34.0842461 Z" id="Shape"></path>
                            <path d="M21.0067014,54.4122013 C20.354392,54.4122013 19.8262733,54.9403198 19.8262733,55.5926294 L19.8262733,64.5644976 L8.34107701,64.5644976 C7.82832848,62.7913963 6.19109944,61.4904661 4.25445954,61.4904661 C1.90835873,61.4904661 0,63.3994396 0,65.7455405 C0,68.0910265 1.90835873,70 4.25445954,70 C6.19109944,70 7.82832848,68.6990699 8.34107701,66.9259685 L21.0067014,66.9259685 C21.6590108,66.9259685 22.1871295,66.3972351 22.1871295,65.7455405 L22.1871295,55.5926294 C22.1871295,54.9409348 21.6590108,54.4122013 21.0067014,54.4122013 Z M4.25445954,67.6391438 C3.21051854,67.6391438 2.36085616,66.7894816 2.36085616,65.7455405 C2.36085616,64.7009847 3.21051854,63.8519371 4.25445954,63.8519371 C5.29901547,63.8519371 6.14806292,64.7009847 6.14806292,65.7455405 C6.14806292,66.7894816 5.29901547,67.6391438 4.25445954,67.6391438 Z" id="Shape"></path>
                            <path d="M76.3294308,0 C74.3927909,0 72.7555619,1.30093011 72.2421986,3.07403146 L59.577189,3.07403146 C58.9248795,3.07403146 58.3967609,3.60215011 58.3967609,4.25445954 L58.3967609,14.4067558 C58.3967609,15.0590654 58.9248795,15.5877987 59.577189,15.5877987 C60.2294984,15.5877987 60.757617,15.0590654 60.757617,14.4067558 L60.757617,5.43488763 L72.2421986,5.43488763 C72.7555619,7.20798897 74.3927909,8.50891909 76.3294308,8.50891909 C78.6749169,8.50891909 80.5838904,6.60056036 80.5838904,4.25445954 C80.5838904,1.90835873 78.6755316,0 76.3294308,0 Z M76.3294308,6.14806292 C75.2848749,6.14806292 74.4358274,5.29901547 74.4358274,4.25445954 C74.4358274,3.21051854 75.2848749,2.36085616 76.3294308,2.36085616 C77.3733718,2.36085616 78.2230342,3.21051854 78.2230342,4.25445954 C78.2230342,5.29901547 77.3733718,6.14806292 76.3294308,6.14806292 Z" id="Shape"></path>
                            <path d="M76.3294308,61.4904661 C74.3927909,61.4904661 72.7555619,62.7913963 72.2421986,64.5644976 L60.757617,64.5644976 L60.757617,55.5926294 C60.757617,54.9403198 60.2294984,54.4122013 59.577189,54.4122013 C58.9248795,54.4122013 58.3967609,54.9403198 58.3967609,55.5926294 L58.3967609,65.7455405 C58.3967609,66.3972351 58.9248795,66.9259685 59.577189,66.9259685 L72.2421986,66.9259685 C72.7555619,68.6990699 74.3927909,70 76.3294308,70 C78.6749169,70 80.5838904,68.0910265 80.5838904,65.7455405 C80.5838904,63.3994396 78.6755316,61.4904661 76.3294308,61.4904661 Z M76.3294308,67.6391438 C75.2848749,67.6391438 74.4358274,66.7894816 74.4358274,65.7455405 C74.4358274,64.7009847 75.2848749,63.8519371 76.3294308,63.8519371 C77.3733718,63.8519371 78.2230342,64.7009847 78.2230342,65.7455405 C78.2230342,66.7894816 77.3733718,67.6391438 76.3294308,67.6391438 Z" id="Shape"></path>
                            <path d="M4.25445954,8.50891909 C6.19109944,8.50891909 7.82832848,7.20860374 8.34107701,5.43488763 L19.8262733,5.43488763 L19.8262733,14.4073706 C19.8262733,15.0590654 20.354392,15.5877987 21.0067014,15.5877987 C21.6590108,15.5877987 22.1871295,15.0590654 22.1871295,14.4073706 L22.1871295,4.25445954 C22.1871295,3.60215011 21.6590108,3.07403146 21.0067014,3.07403146 L8.34107701,3.07403146 C7.82832848,1.30093011 6.19109944,0 4.25445954,0 C1.90835873,0 0,1.90835873 0,4.25445954 C0,6.60056036 1.90835873,8.50891909 4.25445954,8.50891909 Z M4.25445954,2.36085616 C5.29901547,2.36085616 6.14806292,3.21051854 6.14806292,4.25445954 C6.14806292,5.29840055 5.29901547,6.14806292 4.25445954,6.14806292 C3.21051854,6.14806292 2.36085616,5.29840055 2.36085616,4.25445954 C2.36085616,3.21051854 3.21051854,2.36085616 4.25445954,2.36085616 Z" id="Shape"></path>
                            <path d="M76.3294308,30.7452331 C74.3927909,30.7452331 72.7555619,32.0461632 72.2421986,33.8192645 L68.686159,33.8192645 C68.0338496,33.8192645 67.5057309,34.3479979 67.5057309,34.9996926 C67.5057309,35.6520021 68.0338496,36.1801207 68.686159,36.1801207 L72.2421986,36.1801207 C72.7555619,37.9538368 74.3927909,39.2541522 76.3294308,39.2541522 C78.6749169,39.2541522 80.5838904,37.3457934 80.5838904,34.9996926 C80.5838904,32.6542066 78.6755316,30.7452331 76.3294308,30.7452331 Z M76.3294308,36.893296 C75.2848749,36.893296 74.4358274,36.0442485 74.4358274,35.0003074 C74.4358274,33.9557516 75.2848749,33.106704 76.3294308,33.106704 C77.3733718,33.106704 78.2230342,33.9557516 78.2230342,35.0003074 C78.2230342,36.0442485 77.3733718,36.893296 76.3294308,36.893296 Z" id="Shape"></path>
                            <path d="M4.25445954,39.2547669 C6.19109944,39.2547669 7.82832848,37.9538368 8.34107701,36.1807355 L11.8977314,36.1807355 C12.549426,36.1807355 13.0781595,35.6520021 13.0781595,35.0003074 C13.0781595,34.3479979 12.549426,33.8192645 11.8977314,33.8192645 L8.34107701,33.8192645 C7.82832848,32.0461632 6.19109944,30.7452331 4.25445954,30.7452331 C1.90835873,30.7452331 0,32.6542066 0,34.9996926 C0,37.3457934 1.90835873,39.2547669 4.25445954,39.2547669 Z M4.25445954,33.1060892 C5.29901547,33.1060892 6.14806292,33.9557516 6.14806292,34.9996926 C6.14806292,36.0442485 5.29901547,36.893296 4.25445954,36.893296 C3.21051854,36.893296 2.36085616,36.0442485 2.36085616,34.9996926 C2.36085616,33.9557516 3.21051854,33.1060892 4.25445954,33.1060892 Z" id="Shape"></path>
                            <path d="M37.537613,27.5236481 L37.4847396,27.5236481 C36.5539229,27.5236481 35.6870461,28.0247153 35.2210229,28.8307264 L32.4138173,33.6932293 C31.9484089,34.4992402 31.9484089,35.5007598 32.4138173,36.3067709 L35.2210229,41.1692738 C35.6870461,41.9752847 36.5539229,42.4757371 37.4847396,42.4757371 L43.0991508,42.4757371 C44.0299674,42.4757371 44.8974592,41.9752847 45.3628675,41.1692738 L48.1700731,36.3061559 C48.6348665,35.5007598 48.6348665,34.4992402 48.1700731,33.6932293 L45.3628675,28.8307264 C44.8974592,28.0247153 44.0299674,27.5236481 43.0991508,27.5236481 L43.0462774,27.5236481 C42.3939679,27.5236481 41.8658493,28.0523815 41.8658493,28.7040762 C41.8658493,29.3563856 42.3939679,29.885119 43.0462774,29.885119 L43.0991508,29.885119 C43.1889124,29.885119 43.2731409,29.933074 43.3180217,30.0111544 L46.1252273,34.8730424 C46.1701081,34.9511229 46.1701081,35.0482624 46.1252273,35.1263428 L43.3180217,39.9888457 C43.2731409,40.0663112 43.1895272,40.114881 43.0991508,40.114881 L37.4847396,40.114881 C37.3943632,40.114881 37.3107495,40.0663112 37.2658687,39.9888457 L34.4586631,35.1263428 C34.4131675,35.0482624 34.4131675,34.9517376 34.4586631,34.8736574 L37.2652538,30.0117692 C37.3107495,29.9336888 37.3943632,29.885119 37.4847396,29.885119 L37.537613,29.885119 C38.1893077,29.885119 38.7180411,29.3563856 38.7180411,28.7040762 C38.7180411,28.0523815 38.1893077,27.5236481 37.537613,27.5236481 L37.537613,27.5236481 Z" id="Path"></path>
                            <path d="M59.4935753,47.5773997 L57.1032084,45.1870328 C58.142231,43.4747973 58.9082797,41.6273044 59.3822954,39.6845166 L62.7631152,39.6845166 C64.1704068,39.6845166 65.3151761,38.5397473 65.3151761,37.1324556 L65.3151761,32.8675444 C65.3151761,31.4608676 64.1704068,30.3154834 62.7631152,30.3154834 L59.3822954,30.3154834 C58.907665,28.3726956 58.142231,26.5252027 57.1032084,24.8129672 L59.4935753,22.4226003 C60.4889467,21.4278437 60.4889467,19.808444 59.4935753,18.8136873 L56.4779505,15.7980625 C55.4831938,14.803306 53.8644089,14.803306 52.8690375,15.7980625 L50.4786706,18.1890441 C48.7670499,17.1494068 46.919557,16.3839728 44.9761544,15.9093424 L44.9761544,12.5285225 C44.9761544,11.121231 43.831385,9.97646175 42.4240934,9.97646175 L38.159797,9.97646175 C36.7525054,9.97646175 35.607736,11.121231 35.607736,12.5285225 L35.607736,15.9093424 C33.6649481,16.3839728 31.8168405,17.1494068 30.1052198,18.1890441 L27.7142381,15.7980625 C26.7194815,14.803306 25.1006965,14.803306 24.1053251,15.7980625 L21.0903151,18.8136873 C20.0949436,19.808444 20.0949436,21.4272289 21.0903151,22.4226003 L23.4806819,24.8129672 C22.4416594,26.5252027 21.6756106,28.3726956 21.201595,30.3154834 L17.8207751,30.3154834 C16.4134836,30.3154834 15.2687143,31.4602528 15.2687143,32.8675444 L15.2687143,37.1318408 C15.2687143,38.5391324 16.4134836,39.6839018 17.8207751,39.6839018 L21.201595,39.6839018 C21.6762254,41.6273044 22.4416594,43.4747973 23.4806819,45.186418 L21.0903151,47.5773997 C20.0949436,48.5721563 20.0949436,50.1909413 21.0903151,51.1863127 L24.1053251,54.2019375 C25.1006965,55.1966942 26.7194815,55.1966942 27.7142381,54.2013227 L30.1052198,51.8109559 C31.8168405,52.8499784 33.6643333,53.6154124 35.607736,54.0906576 L35.607736,57.4714775 C35.607736,58.8781542 36.7525054,60.0229235 38.159797,60.0229235 L42.4240934,60.0229235 C43.831385,60.0229235 44.9761544,58.8781542 44.9761544,57.4714775 L44.9761544,54.0906576 C46.919557,53.6154124 48.7670499,52.8499784 50.4786706,51.8109559 L52.8690375,54.2019375 C53.8644089,55.1966942 55.4831938,55.1966942 56.4779505,54.2019375 L59.4935753,51.1863127 C60.4889467,50.1915562 60.4889467,48.5721563 59.4935753,47.5773997 L59.4935753,47.5773997 Z M57.8243762,49.5164988 L54.8087514,52.5321236 C54.7343598,52.6065153 54.6138578,52.6071301 54.5388514,52.5321236 L51.8748957,49.868168 C51.2496378,49.2435248 50.29054,49.1390078 49.5423207,49.6130233 C47.8608255,50.6797123 46.0243991,51.4408426 44.0840704,51.874281 C43.2190379,52.0679448 42.6146833,52.8204677 42.6146833,53.7045593 L42.6146833,57.4714775 C42.6146833,57.5766092 42.5292253,57.6620673 42.4240934,57.6620673 L38.159797,57.6620673 C38.054665,57.6620673 37.9685922,57.5766092 37.9685922,57.4714775 L37.9685922,53.7045593 C37.9685922,52.8204677 37.3642377,52.0679448 36.49982,51.874281 C34.5594913,51.4408426 32.7230649,50.6797123 31.0409549,49.6130233 C30.7280185,49.414441 30.3781938,49.3173016 30.0308282,49.3173016 C29.5488201,49.3173016 29.0717304,49.5048174 28.7083799,49.8687828 L26.045039,52.5321236 C25.9706473,52.6065153 25.8495305,52.6071301 25.775139,52.5321236 L22.7595142,49.5164988 C22.6851225,49.4421073 22.6851225,49.3216052 22.7595142,49.2465988 L25.4234698,46.5832579 C26.048113,45.958 26.1532449,44.9982874 25.6779997,44.2500682 C24.6119255,42.5685729 23.8514102,40.7321465 23.4167421,38.7918178 C23.223693,37.9267853 22.4711701,37.3230456 21.5870785,37.3230456 L17.8207751,37.3230456 C17.7150286,37.3230456 17.6295705,37.2375875 17.6295705,37.1318408 L17.6295705,32.8675444 C17.6295705,32.7624125 17.7150286,32.6763396 17.8207751,32.6763396 L21.5870785,32.6763396 C22.4711701,32.6763396 23.223693,32.0725999 23.4173568,31.2075674 C23.8514102,29.2672387 24.6119255,27.4308123 25.6779997,25.7493171 C26.1532449,25.0010978 26.048113,24.042 25.422855,23.4161273 L22.7595142,20.7527864 C22.6851225,20.6783948 22.6851225,20.557278 22.7595142,20.4828864 L25.775139,17.4672616 C25.8495305,17.3928699 25.9706473,17.3928699 26.045039,17.4672616 L28.7083799,20.1312172 C29.3342526,20.7564752 30.2939652,20.8616071 31.0415696,20.3863619 C32.7230649,19.3196729 34.5594913,18.5591576 36.4992052,18.1251043 C37.3642377,17.9314404 37.9685922,17.1789175 37.9685922,16.294826 L37.9685922,12.5285225 C37.9685922,12.4233908 38.054665,12.3373179 38.159797,12.3373179 L42.4240934,12.3373179 C42.5292253,12.3373179 42.6146833,12.4233908 42.6146833,12.5285225 L42.6146833,16.294826 C42.6146833,17.1789175 43.2190379,17.9314404 44.0840704,18.1251043 C46.0243991,18.5591576 47.8608255,19.3196729 49.5417058,20.3857471 C50.2899252,20.8609923 51.2496378,20.7564752 51.8755105,20.1312172 L54.5388514,17.4672616 C54.613243,17.3934849 54.7343598,17.3928699 54.8087514,17.4672616 L57.8243762,20.4828864 C57.8987679,20.557278 57.8987679,20.6783948 57.8243762,20.7527864 L55.1604206,23.4167421 C54.5351626,24.042 54.4306455,25.0010978 54.9052759,25.7493171 C55.9719649,27.4308123 56.7324802,29.2672387 57.1665335,31.2081822 C57.3601974,32.0725999 58.1127203,32.6763396 58.9968118,32.6763396 L62.7631152,32.6763396 C62.868247,32.6763396 62.9543199,32.7624125 62.9543199,32.8675444 L62.9543199,37.1318408 C62.9543199,37.2375875 62.868247,37.3230456 62.7631152,37.3230456 L58.9968118,37.3230456 C58.1127203,37.3230456 57.3601974,37.9267853 57.1665335,38.7918178 C56.7324802,40.7321465 55.9719649,42.5685729 54.9052759,44.2500682 C54.4306455,44.9982874 54.5351626,45.958 55.1604206,46.5832579 L57.8243762,49.2465988 C57.8987679,49.3216052 57.8987679,49.4421073 57.8243762,49.5164988 Z" id="Shape"></path>
                            <path d="M52.2597644,32.4869793 C52.3931775,33.1251483 53.0190502,33.5339944 53.6566043,33.4011963 C54.2947733,33.2677833 54.7042342,32.6425254 54.5708213,32.0043564 C53.1678334,25.2869827 47.1630203,20.4115689 40.2919452,20.4115689 C32.2478197,20.4115689 25.7038215,26.9561819 25.7038215,35.0003074 C25.7038215,43.0444329 32.2478197,49.5884311 40.2919452,49.5884311 C47.1630203,49.5884311 53.1678334,44.7130173 54.5708213,37.9962584 C54.7042342,37.3580896 54.2947733,36.7322167 53.6566043,36.5994185 C53.0190502,36.4672353 52.3931775,36.8754667 52.2597644,37.5136355 C51.0842548,43.1421872 46.0508358,47.2275749 40.2919452,47.2275749 C33.5499793,47.2275749 28.0646776,41.7422733 28.0646776,35.0003074 C28.0646776,28.2583417 33.5499793,22.7730398 40.2919452,22.7730398 C46.0508358,22.7724251 51.0842548,26.8578128 52.2597644,32.4869793 Z" id="Path"></path>
                        </g>
                    </g>
                </g>
            </g>
        </g>
    </g>
</svg>