<svg id="Layer_1" enable-background="new 0 0 512.002 512.002" height="512" viewBox="0 0 512.002 512.002" width="512" xmlns="http://www.w3.org/2000/svg"><g><g><path d="m502.002 351.004c-6.725 0-9.906-2.252-14.722-5.662-5.877-4.16-13.191-9.338-26.278-9.338s-20.401 5.178-26.278 9.338c-4.815 3.41-7.997 5.662-14.722 5.662s-9.906-2.252-14.723-5.662c-3.85-2.725-8.328-5.878-14.629-7.735 6.359-5.597 11.743-11.616 15.807-17.771 9.177-13.899 10.927-27.276 4.928-37.668-9.264-16.045-33.824-19.169-62.231-8.388l-42.179-50.592c-10.414-12.524-21.141-14.375-31.21-14.375-.261 0-.521-.004-.785.007l-49.867 1.654-6.862-34.629h71.984v10.078c0 3.569 1.902 6.867 4.991 8.655 1.549.896 3.278 1.345 5.009 1.345 1.72 0 3.439-.443 4.981-1.329l67.312-38.671h129.475c5.522 0 10-4.478 10-10s-4.478-10-10-10h-129.476l-67.312-38.671c-3.094-1.779-6.902-1.771-9.99.016-3.089 1.788-4.991 5.086-4.991 8.655v10.078h-77.623c6.292-8.363 10.028-18.753 10.028-30.001 0-27.57-22.431-50-50.001-50s-50 22.43-50 50c0 13.248 5.188 25.3 13.628 34.256-12.705 7.614-18.116 23.696-12.047 37.621l3.069 7.061-36.943 64.653c-3.978 6.951-5.009 15.035-2.905 22.763s7.09 14.173 14.04 18.148c4.596 2.63 9.686 3.972 14.841 3.972 2.643 0 5.304-.354 7.922-1.066 7.728-2.104 14.174-7.09 18.152-14.046l14.727-25.774 15.906 36.6c5.48 14.429 20.792 22.286 35.767 18.277l61.002-16.437 30.046 36.04c-8.088 9.874-12.593 19.996-13.09 29.153-7.052 1.779-11.901 5.197-16.03 8.12-4.815 3.41-7.997 5.662-14.722 5.662s-9.906-2.252-14.722-5.662c-5.877-4.16-13.191-9.338-26.278-9.338s-20.401 5.178-26.278 9.338c-4.815 3.41-7.997 5.662-14.722 5.662s-9.906-2.252-14.722-5.662c-5.877-4.16-13.191-9.338-26.278-9.338-13.088 0-20.401 5.178-26.278 9.339-4.816 3.409-7.997 5.661-14.722 5.661s-9.906-2.252-14.723-5.662c-5.877-4.16-13.19-9.338-26.278-9.338-13.087 0-20.4 5.178-26.277 9.338-4.816 3.41-7.998 5.662-14.723 5.662-2.652 0-5.195 1.054-7.071 2.929-1.875 1.877-2.929 4.42-2.929 7.072v104.997c0 5.522 4.478 10 10 10h492.002c5.522 0 10-4.478 10-10v-104.997c0-5.523-4.478-10-10-10zm-107.938-58.836c1.926 3.337.279 9.716-4.298 16.648-6.053 9.169-16.625 18.525-29.004 25.673-12.008 6.932-24.822 11.309-35.568 12.196-.617-.424-1.25-.871-1.916-1.342-4.214-2.984-9.18-6.48-16.47-8.225.476-3.519 2.423-8.168 6.234-13.437 4.908 4.848 11.286 7.825 18.247 8.465.935.086 1.865.129 2.791.129 6.967 0 13.653-2.408 19.076-6.918 6.144-5.109 9.93-12.306 10.661-20.263.461-5.012-.328-9.947-2.25-14.449 17.558-5.45 29.812-3.129 32.497 1.523zm-102.46-56.183 50.049 60.031c3.495 4.203 2.919 10.467-1.285 13.963-2.035 1.694-4.601 2.493-7.247 2.25-2.638-.242-5.023-1.497-6.725-3.543l-43.138-51.744-.914-27.524c3.401.83 6.029 2.682 9.26 6.567zm-149.046-86.088c-2.19-5.026.116-10.897 5.141-13.088 1.422-.62 2.927-.9 4.448-.819.164.008.328.012.492.012h54.814v.001 19.843h-1.379c-2.993 0-5.828 1.341-7.728 3.653s-2.663 5.354-2.082 8.29l9.314 47.002-29.287 12.729zm84.895-13.895h62.859c5.471 0 9.922 4.451 9.922 9.922s-4.451 9.922-9.922 9.922h-62.859zm122.332 9.922-39.551 22.722v-.421c6.132-5.483 10-13.447 10-22.301s-3.868-16.818-10-22.301v-.421zm-177.146-89.923c16.543 0 30.001 13.458 30.001 30 0 16.543-13.458 30.001-30.001 30.001-16.542 0-30-13.458-30-30.001 0-16.542 13.458-30 30-30zm-47.607 193.436c-1.323 2.313-3.469 3.974-6.042 4.674-2.569.7-5.264.357-7.578-.968-2.313-1.323-3.974-3.469-4.674-6.041s-.357-5.263.97-7.582l29.531-51.683 9.932 22.854zm78.579 19.712c-4.93 1.316-10.167-1.392-11.925-6.166-.065-.179-.137-.355-.213-.529l-7.211-16.592 34.929-15.18 43.137-1.431.792 23.865zm-183.611 186.852v-25.923c7.71-1.676 12.859-5.328 17.212-8.422 4.786-3.402 7.949-5.65 14.622-5.65 6.674 0 9.836 2.248 14.623 5.65 5.86 4.166 13.153 9.35 26.211 9.35 13.057 0 20.35-5.184 26.21-9.35 4.787-3.402 7.949-5.65 14.623-5.65s9.836 2.248 14.623 5.65c5.86 4.166 13.153 9.35 26.21 9.35 13.058 0 20.351-5.184 26.211-9.348 4.002-2.844 6.893-4.898 11.664-5.48 5.482-.669 9.384-5.655 8.715-11.138-.668-5.482-5.653-9.383-11.137-8.716-9.803 1.196-15.916 5.541-20.827 9.031-4.788 3.402-7.951 5.65-14.626 5.65-6.673 0-9.836-2.248-14.622-5.65-5.86-4.165-13.153-9.35-26.211-9.35s-20.351 5.185-26.211 9.35c-4.786 3.402-7.949 5.65-14.622 5.65-6.674 0-9.836-2.248-14.623-5.65-5.86-4.166-13.153-9.35-26.211-9.35-13.057 0-20.35 5.184-26.21 9.35-2.037 1.448-3.78 2.683-5.624 3.629v-39.127c7.193-1.76 12.099-5.233 16.278-8.192 4.816-3.409 7.997-5.661 14.722-5.661s9.906 2.252 14.723 5.662c5.877 4.16 13.19 9.338 26.278 9.338 13.087 0 20.4-5.178 26.277-9.338 4.816-3.41 7.998-5.662 14.723-5.662s9.906 2.252 14.722 5.662c5.877 4.16 13.191 9.338 26.278 9.338s20.401-5.178 26.278-9.338c4.815-3.41 7.997-5.662 14.722-5.662s9.906 2.252 14.722 5.662c5.877 4.16 13.191 9.338 26.278 9.338s20.401-5.178 26.278-9.338c4.815-3.41 7.997-5.662 14.722-5.662s9.906 2.252 14.723 5.662c5.877 4.16 13.19 9.338 26.277 9.338 13.088 0 20.401-5.178 26.278-9.338 4.816-3.41 7.998-5.662 14.723-5.662s9.905 2.252 14.722 5.661c5.877 4.161 13.19 9.339 26.278 9.339 13.087 0 20.401-5.178 26.278-9.338 4.815-3.41 7.997-5.662 14.722-5.662s9.906 2.252 14.722 5.662c4.18 2.958 9.086 6.432 16.278 8.191v39.127c-1.844-.946-3.587-2.181-5.624-3.629-5.86-4.166-13.153-9.35-26.21-9.35-13.058 0-20.351 5.184-26.211 9.35-4.787 3.402-7.949 5.65-14.623 5.65-6.673 0-9.836-2.248-14.622-5.65-5.86-4.165-13.153-9.35-26.211-9.35s-20.351 5.185-26.21 9.35c-4.787 3.402-7.949 5.65-14.623 5.65-6.675 0-9.838-2.248-14.625-5.65-4.913-3.492-11.027-7.838-20.836-9.032-5.476-.666-10.468 3.235-11.136 8.718s3.235 10.468 8.718 11.136c4.773.581 7.666 2.637 11.668 5.48 5.86 4.165 13.153 9.349 26.211 9.349s20.351-5.185 26.21-9.35c4.787-3.402 7.949-5.65 14.623-5.65s9.836 2.248 14.623 5.65c5.86 4.166 13.153 9.35 26.21 9.35 13.058 0 20.351-5.184 26.211-9.35 4.787-3.402 7.949-5.65 14.623-5.65 6.673 0 9.836 2.248 14.622 5.65 4.353 3.094 9.502 6.746 17.212 8.422v25.923z"/><path d="m256.001 411.006h-.007c-5.522 0-9.996 4.478-9.996 10s4.48 10 10.003 10 10-4.478 10-10-4.478-10-10-10z"/></g></g></svg>