<?xml version="1.0" encoding="UTF-8"?>
<svg width="70px" height="70px" viewBox="0 0 70 70" version="1.1" xmlns="http://www.w3.org/2000/svg" xmlns:xlink="http://www.w3.org/1999/xlink">
    <title>E50B48D9-AB8E-4E2B-9ACC-91600C208F15</title>
    <g id="4_Investment-Focus" stroke="none" stroke-width="1" fill="none" fill-rule="evenodd">
        <g id="04_Investment-Focus_v4" transform="translate(-1294.000000, -1688.000000)" fill="#0065A1" fill-rule="nonzero">
            <g id="BODY" transform="translate(159.000000, 1472.000000)">
                <g id="CRITERIA" transform="translate(1.000000, 0.000000)">
                    <g id="Criteria_3" transform="translate(1100.000000, 164.000000)">
                        <g id="018-wrench" transform="translate(34.000000, 52.000000)">
                            <path d="M30.1034776,44.1934747 L44.1994467,30.0975054 C45.3060183,28.9909339 45.3060183,27.191153 44.1994467,26.0845815 L43.914793,25.7999278 C42.8087555,24.6938904 41.0079065,24.6933563 39.901335,25.7999278 L25.8058999,39.8958971 C24.6998624,41.0019345 24.6998624,42.8022494 25.8058999,43.9088209 L26.0905536,44.1934747 C27.1971251,45.2995121 28.9974401,45.2995121 30.1034776,44.1934747 Z M27.2558718,41.3458688 L41.3518409,27.2498996 C41.656255,26.9449516 42.1598732,26.9454857 42.4642871,27.2498996 L42.749475,27.5345534 C43.0560252,27.8416377 43.0560252,28.3404493 42.749475,28.6475336 L28.6535057,42.7435029 C28.3469556,43.050053 27.8476098,43.050053 27.5405255,42.7435029 L27.2558718,42.4588491 C26.9493215,42.1517648 26.9493215,41.6524191 27.2558718,41.3458688 Z" id="Shape"></path>
                            <path d="M22.1972592,57.1636462 L20.4813257,50.7576012 C20.3189716,50.154114 19.8441925,49.679335 19.2412392,49.5180489 L12.8357283,47.8015813 C12.232775,47.6402954 11.5838925,47.8138647 11.1422254,48.255532 L8.92320765,50.4745497 C8.52266302,50.8750944 8.52266302,51.5245108 8.92320765,51.9245214 C9.32321827,52.3250662 9.97263475,52.3250662 10.3731795,51.9245214 L12.4709656,49.8267353 L18.5448255,51.454549 L20.1721052,57.528409 L10.9595769,66.7409371 C9.97103267,67.7294815 10.4831957,69.4251208 11.8509225,69.7001615 C22.017281,71.7493482 31.0225941,62.9864982 29.3670094,52.8276163 C29.2302901,51.9886086 29.4967859,51.1399879 30.0794448,50.5573289 L50.563301,30.0740068 C51.1459601,29.4908137 51.9945808,29.224852 52.8335884,29.3615712 C56.3749377,29.9383556 59.9958618,29.216307 63.0277182,27.3268042 C63.5083718,27.0271968 63.6552382,26.3948702 63.3556308,25.9142166 C63.0560233,25.4335629 62.4236967,25.2866965 61.9430431,25.5863039 C59.3330938,27.2125154 56.2147198,27.8346949 53.1631032,27.3374854 C51.6746791,27.0944882 50.1606201,27.5756759 49.1127951,28.6235009 L28.6294731,49.1073571 C27.5816481,50.155182 27.1009944,51.6697751 27.3434575,53.1576652 C28.7304103,61.6705753 21.4063168,69.1335242 12.8111616,67.7892962 L21.7443766,58.8566153 C22.1849758,58.4149479 22.3590791,57.7660655 22.1972592,57.1636462 L22.1972592,57.1636462 Z" id="Path"></path>
                            <path d="M69.7066675,11.8454844 C69.4305588,10.4772236 67.7354536,9.96506052 66.7469093,10.9536049 L57.534381,20.166133 L51.4605211,18.5388534 L49.8327075,12.4649935 L59.0457698,3.25193121 C60.03378,2.26445503 59.5232191,0.568815751 58.1549583,0.292706969 C53.3809995,-0.669668508 48.4452207,0.772826589 44.9519367,4.15182175 C41.486958,7.50251164 39.8805067,12.3672606 40.6548932,17.1652521 C40.7889422,17.9962488 40.5219124,18.839529 39.9403214,19.4211198 L19.427092,39.9343493 C18.8455011,40.5159402 18.002755,40.78297 17.1706902,40.648921 C6.88630439,38.9895979 -1.73181557,48.0776902 0.298679119,58.1489862 C0.576924139,59.5263259 2.27576771,60.0213992 3.25843738,59.0392636 L6.98937786,55.3083231 C7.38992249,54.9077785 7.38992249,54.258362 6.98937786,53.8583514 C6.58883308,53.4572726 5.9394166,53.4578066 5.53940599,53.8583514 L2.21007834,57.1876789 C0.877599731,48.6592811 8.23373667,41.283918 16.8443797,42.673541 C18.3237249,42.9122657 19.8313751,42.4305439 20.8770638,41.3843211 L41.3908274,20.8710917 C42.435982,19.8254029 42.9182377,18.3177528 42.6795132,16.8384076 C42.0119386,12.702116 43.394619,8.51028215 46.3773419,5.62582626 C49.2505826,2.8471141 53.2565636,1.58940369 57.193651,2.20357231 L48.2615042,11.1362532 C47.8198368,11.5773865 47.6462675,12.226803 47.8075534,12.8297562 L49.5240211,19.2352671 C49.685841,19.8387545 50.1606201,20.3135335 50.7641074,20.4753536 L57.1696184,22.1918211 C57.7731057,22.3536412 58.4214541,22.1795377 58.8631213,21.7378705 L67.7952683,12.8051894 C68.3410772,16.2931328 67.4256991,19.8424928 65.2440656,22.621205 C64.8947906,23.0671448 64.9727632,23.7112207 65.418169,24.0610297 C65.8635747,24.4108388 66.5081846,24.332866 66.8574596,23.8874603 C69.5256214,20.4876368 70.5638333,16.0987351 69.7066675,11.8454844 Z" id="Path"></path>
                        </g>
                    </g>
                </g>
            </g>
        </g>
    </g>
</svg>