<?xml version="1.0" encoding="UTF-8"?>
<svg width="71px" height="53px" viewBox="0 0 71 53" version="1.1" xmlns="http://www.w3.org/2000/svg" xmlns:xlink="http://www.w3.org/1999/xlink">
    <!-- Generator: Sketch 63.1 (92452) - https://sketch.com -->
    <title>hard-hat</title>
    <desc>Created with Sketch.</desc>
    <g id="2_Who-We-Are" stroke="none" stroke-width="1" fill="none" fill-rule="evenodd">
        <g id="02.1_Who-We-Are_v4" transform="translate(-195.000000, -3708.000000)" fill="#0065A1" fill-rule="nonzero">
            <g id="BODY" transform="translate(0.000000, 1437.000000)">
                <g id="CULTURE" transform="translate(160.000000, 2038.000000)">
                    <g id="Pillar_1" transform="translate(0.000000, 165.000000)">
                        <g id="hard-hat" transform="translate(35.980121, 68.533333)">
                            <path d="M65.447712,37.5503324 L65.447712,31.338605 C65.447712,14.5172154 52.1640833,0.463167915 35.8360076,0.0114266121 C27.5185061,-0.212737208 19.6817068,2.86752402 13.7361207,8.70147279 C7.78827773,14.5354216 4.51363531,22.3561217 4.51363531,30.7230079 L4.51363531,37.5503324 L0,37.5503324 L0,43.9839478 L4.25748651,45.861462 C14.0035536,50.1626765 24.3397784,52.3428687 34.9806737,52.3428687 C45.6215689,52.3428687 55.9577938,50.1626765 65.7038608,45.8625999 L69.9613473,43.9839478 L69.9613473,37.5503324 L65.447712,37.5503324 Z M55.7704779,11.8056296 C54.7154156,16.0761211 54.1636237,20.4626771 54.1636237,24.8617498 L54.1636237,28.4472331 L49.6499884,28.4472331 L49.6499884,22.6940743 C49.6499884,17.7772628 50.4985519,12.963999 52.1595697,8.36124445 C53.4583682,9.40013566 54.6635088,10.5562293 55.7704779,11.8056296 Z M35.7739451,2.28720144 C37.024222,2.32133806 38.2530593,2.45105723 39.4593283,2.6524633 L37.327764,28.4472331 L32.6335833,28.4472331 L30.4997622,2.63084344 C32.2239709,2.35547468 33.9876739,2.23372073 35.7739451,2.28720144 Z M15.3091226,10.3332033 C16.0854678,9.57081877 16.900179,8.86532857 17.7431004,8.20649176 C19.4413557,12.8547618 20.3113589,17.7192305 20.3113589,22.6940743 L20.3113589,28.4472331 L15.7977236,28.4472331 L15.7977236,24.8617498 C15.7977236,20.3773355 15.2267487,15.9111274 14.1299353,11.5678112 C14.5113375,11.1479307 14.9006386,10.7337397 15.3091226,10.3332033 Z M67.7045297,42.4955911 L64.8000053,43.7779902 C55.3405541,47.9517612 45.3078713,50.0670939 34.9806737,50.0670939 C24.6534761,50.0670939 14.6207932,47.9517612 5.16134198,43.7779902 L2.25681766,42.4955911 L2.25681766,39.8261072 L5.64204414,39.8261072 L6.77045297,39.8261072 L56.4204414,39.8261072 L56.4204414,37.5503324 L6.77045297,37.5503324 L6.77045297,30.7230079 C6.77045297,24.5192457 8.72034342,18.6420572 12.3222244,13.7718991 C13.1154958,17.4131388 13.5409059,21.130617 13.5409059,24.8617498 L13.5409059,30.7230079 L22.5681766,30.7230079 L22.5681766,22.6940743 C22.5681766,17.2413178 21.5751768,11.913729 19.6410841,6.8376132 C22.29623,5.0932318 25.2075248,3.82903888 28.2734116,3.07917108 L30.5573111,30.7230079 L39.4040363,30.7230079 L41.6845505,3.12013502 C44.7718771,3.908691 47.6651173,5.2286404 50.2672281,6.97984913 C48.368116,12.0150009 47.3931708,17.2936606 47.3931708,22.6940743 L47.3931708,30.7230079 L56.4204414,30.7230079 L56.4204414,24.8617498 C56.4204414,21.2296132 56.8221549,17.6065797 57.575932,14.0540952 C61.0954392,18.9094608 63.1908944,24.9038517 63.1908944,31.338605 L63.1908944,37.5503324 L58.677259,37.5503324 L58.677259,39.8261072 L63.1908944,39.8261072 L64.3193032,39.8261072 L67.7045297,39.8261072 L67.7045297,42.4955911 Z" id="Shape"></path>
                        </g>
                    </g>
                </g>
            </g>
        </g>
    </g>
</svg>