<?xml version="1.0" encoding="utf-8"?>
<!-- Generator: Adobe Illustrator 25.3.1, SVG Export Plug-In . SVG Version: 6.00 Build 0)  -->
<svg version="1.1" id="Capa_1" xmlns="http://www.w3.org/2000/svg" xmlns:xlink="http://www.w3.org/1999/xlink" x="0px" y="0px"
	 viewBox="0 0 512 254.9" style="enable-background:new 0 0 512 254.9;" xml:space="preserve">
<g>
	<circle cx="393.2" cy="85.1" r="10"/>
	<path d="M507.8,148.8l-30.6-21.7l31-23.8c5.2-4,5.1-12.2-0.2-16.1c-1.2-0.9-30.1-22-69.8-43.4C384.2,14.7,338.5,0,302.2,0
		c-84.3,0-158,49.5-199.6,84.4C84.8,54.3,49.4,34.8,10.2,34.8c-8.7,0-13,10.8-8.2,17.5c21.4,30,27.9,64.6,19.5,102.6
		C15.1,184,1.9,204.3,1.8,204.5c-4.3,6.6,0.6,15.6,8.4,15.6c39.2,0,74.6-19.5,92.4-49.7c41.6,35,115.3,84.4,199.6,84.4
		c90.7,0,201.4-86.3,206-90C513.4,160.9,513.2,152.6,507.8,148.8L507.8,148.8z M106,146.8c-5.2-4.6-13.6-2.6-16.1,3.8
		c-9.6,24.6-33.5,42.5-62,47.7c4.5-9.6,9.6-22.8,13.1-38.4c8.3-37,3.9-72.3-12.7-103.3c28.4,5.4,52,23.2,61.6,47.6
		c2.5,6.4,10.9,8.4,16.1,3.8c36.9-32.9,111.3-88,196.2-88c11.5,0,23.8,1.8,36.4,4.8c-5.5,9.7-13,24.8-19.1,43.7
		c-0.9,0.3-70.3,50.7-70.3,50.7c-2.6,1.9-4.1,4.9-4.1,8.1c0,3.2,1.5,6.2,4.1,8.1l67,48.8c4.9,16.1,12.1,31.5,21.7,46
		c-12.1,2.8-24.1,4.4-35.6,4.4C217.3,234.8,142.8,179.7,106,146.8z M311.8,98.6c-3.5,19.3-4.1,38.2-1.9,56.4l-37.8-27.5L311.8,98.6z
		 M358.3,224.7c-27.9-39.1-36.1-83.9-24.4-133.2c6.8-28.4,18.6-50.7,24.7-60.9c51.7,17,104.1,50.1,126.4,65.1l-30.9,23.7
		c-5.3,4.1-5.1,12.4,0.3,16.2l30.4,21.5C462.9,173,411.2,207.5,358.3,224.7L358.3,224.7z"/>
	<path d="M206,167.4c-31.9-15.7-51.3-34.6-51.5-34.8c-4-3.9-10.3-3.9-14.2,0.1c-3.9,4-3.9,10.3,0.1,14.2
		c0.9,0.9,21.7,21.3,56.8,38.5c1.4,0.7,2.9,1,4.4,1c3.7,0,7.3-2.1,9-5.6C213.1,175.9,211,169.9,206,167.4L206,167.4z"/>
	<circle cx="243.9" cy="192.7" r="10"/>
</g>
</svg>
