<?xml version="1.0" encoding="UTF-8"?>
<svg width="55px" height="70px" viewBox="0 0 55 70" version="1.1" xmlns="http://www.w3.org/2000/svg" xmlns:xlink="http://www.w3.org/1999/xlink">
    <title>E2DD0776-CDAE-47FA-86BE-F3AAA422CF45</title>
    <g id="4_Investment-Focus" stroke="none" stroke-width="1" fill="none" fill-rule="evenodd">
        <g id="04_Investment-Focus_v4" transform="translate(-194.000000, -1687.000000)" fill="#0065A1" fill-rule="nonzero">
            <g id="BODY" transform="translate(159.000000, 1472.000000)">
                <g id="CRITERIA" transform="translate(1.000000, 0.000000)">
                    <g id="Criteria_1" transform="translate(0.000000, 164.000000)">
                        <g id="046-chart-5" transform="translate(34.000000, 51.000000)">
                            <path d="M54.5240784,13.5848236 L41.2393952,0.300140313 C41.0583496,0.119628906 40.7950592,0 40.5141449,0 L3.14453125,0 C1.41044613,0 0,1.41044613 0,3.14453125 L0,66.8554688 C0,68.5895539 1.41044613,70 3.14453125,70 L25.0195312,70 C25.5856323,70 26.0449219,69.5412445 26.0449219,68.9746094 C26.0449219,68.4079743 25.5856323,67.9492188 25.0195312,67.9492188 L3.14453125,67.9492188 C2.54158023,67.9492188 2.05078125,67.4584198 2.05078125,66.8554688 L2.05078125,3.14453125 C2.05078125,2.54158023 2.54158023,2.05078125 3.14453125,2.05078125 L39.4887542,2.05078125 L39.4887542,12.1909333 C39.4887542,13.9244842 40.8992005,15.3354645 42.6332855,15.3354645 L52.7734375,15.3354645 L52.7734375,32.6074219 C52.7734375,33.1735229 53.232193,33.6328125 53.7988281,33.6328125 C54.3649292,33.6328125 54.8242188,33.1735229 54.8242188,32.6074219 L54.8242188,14.3100739 C54.8242188,14.0248871 54.7056579,13.7664032 54.5240784,13.5848236 Z M42.6332855,13.2841491 C42.0303345,13.2841491 41.5395355,12.7938843 41.5395355,12.1909333 L41.5395355,3.50128174 L51.322937,13.2841491 L42.6332855,13.2841491 Z" id="Shape"></path>
                            <path d="M37.8347778,44.2787171 C47.5807953,34.5508576 40.6022643,17.8145599 26.8876647,17.8145599 C18.343277,17.8145599 11.3919831,24.766388 11.3919831,33.3107757 C11.3919831,41.8551636 18.343277,48.8069915 26.8876647,48.8069915 C30.9566497,48.8069915 34.8910522,47.216568 37.8347778,44.2787171 L37.8347778,44.2787171 Z M40.2946471,32.2853851 L27.9135895,32.2853851 L27.9135895,19.9043275 C33.8800812,20.2770996 39.6703338,25.1071167 40.2946471,32.2853851 Z M37.0796204,42.0703888 L29.3603516,34.3361663 L40.2946471,34.3361663 C40.0756836,37.2142028 38.940277,39.9085236 37.0796204,42.0703888 Z M35.6275177,43.5192871 C34.7938538,44.2338561 33.8715363,44.8485565 32.8803254,45.344162 L29.7470093,37.6270295 L35.6275177,43.5192871 Z M13.4427643,33.3107757 C13.4427643,26.2419891 18.9264679,20.4298402 25.8628083,19.9043275 L25.8628083,33.3107757 C25.8628083,33.4394837 25.888443,33.5783386 25.944519,33.7123871 L30.9812165,46.1180114 C29.6898651,46.5319061 28.3146667,46.7556763 26.8881989,46.7556763 C19.474411,46.7556763 13.4427643,40.7245636 13.4427643,33.3107757 Z" id="Shape"></path>
                            <path d="M12.3458099,53.6722565 L11.3711548,53.6722565 C10.8045197,53.6722565 10.3457642,54.131012 10.3457642,54.6976471 C10.3457642,55.2637482 10.8045197,55.7230378 11.3711548,55.7230378 L12.3458099,55.7230378 C12.911911,55.7230378 13.3712005,55.2637482 13.3712005,54.6976471 C13.3712005,54.131012 12.911911,53.6722565 12.3458099,53.6722565 Z" id="Path"></path>
                            <path d="M24.0400696,53.6722565 L16.2438965,53.6722565 C15.6772614,53.6722565 15.2185059,54.131012 15.2185059,54.6976471 C15.2185059,55.2637482 15.6772614,55.7230378 16.2438965,55.7230378 L24.0400696,55.7230378 C24.6067047,55.7230378 25.0654603,55.2637482 25.0654603,54.6976471 C25.0654603,54.131012 24.6067047,53.6722565 24.0400696,53.6722565 Z" id="Path"></path>
                            <path d="M30.7862855,11.0886383 C31.3529206,11.0886383 31.8116761,10.6293488 31.8116761,10.0627136 C31.8116761,9.49661262 31.3529206,9.03732293 30.7862855,9.03732293 L22.9901123,9.03732293 C22.4234772,9.03732293 21.9647217,9.49661262 21.9647217,10.0627136 C21.9647217,10.6293488 22.4234772,11.0886383 22.9901123,11.0886383 L30.7862855,11.0886383 Z" id="Path"></path>
                            <path d="M12.3458099,58.1551361 L11.3711548,58.1551361 C10.8045197,58.1551361 10.3457642,58.6138916 10.3457642,59.1805267 C10.3457642,59.7466278 10.8045197,60.2059173 11.3711548,60.2059173 L12.3458099,60.2059173 C12.911911,60.2059173 13.3712005,59.7466278 13.3712005,59.1805267 C13.3712005,58.6138916 12.911911,58.1551361 12.3458099,58.1551361 Z" id="Path"></path>
                            <path d="M24.0400696,58.1551361 L16.2438965,58.1551361 C15.6772614,58.1551361 15.2185059,58.6138916 15.2185059,59.1805267 C15.2185059,59.7466278 15.6772614,60.2059173 16.2438965,60.2059173 L24.0400696,60.2059173 C24.6067047,60.2059173 25.0654603,59.7466278 25.0654603,59.1805267 C25.0654603,58.6138916 24.6067047,58.1551361 24.0400696,58.1551361 Z" id="Path"></path>
                            <path d="M29.7357941,53.6722565 C29.169693,53.6722565 28.7104035,54.131012 28.7104035,54.6976471 C28.7104035,55.2637482 29.169693,55.7230378 29.7357941,55.7230378 L30.7104492,55.7230378 C31.2770843,55.7230378 31.7358398,55.2637482 31.7358398,54.6976471 C31.7358398,54.131012 31.2770843,53.6722565 30.7104492,53.6722565 L29.7357941,53.6722565 Z" id="Path"></path>
                            <path d="M42.4052429,53.6722565 L34.6085358,53.6722565 C34.0424347,53.6722565 33.5831452,54.131012 33.5831452,54.6976471 C33.5831452,55.2637482 34.0424347,55.7230378 34.6085358,55.7230378 L42.4052429,55.7230378 C42.9713441,55.7230378 43.4306335,55.2637482 43.4306335,54.6976471 C43.4306335,54.131012 42.9713441,53.6722565 42.4052429,53.6722565 Z" id="Path"></path>
                            <path d="M29.7357941,60.2059173 L30.7104492,60.2059173 C31.2770843,60.2059173 31.7358398,59.7466278 31.7358398,59.1805267 C31.7358398,58.6138916 31.2770843,58.1551361 30.7104492,58.1551361 L29.7357941,58.1551361 C29.169693,58.1551361 28.7104035,58.6138916 28.7104035,59.1805267 C28.7104035,59.7466278 29.169693,60.2059173 29.7357941,60.2059173 Z" id="Path"></path>
                            <path d="M42.4052429,58.1551361 L34.6085358,58.1551361 C34.0424347,58.1551361 33.5831452,58.6138916 33.5831452,59.1805267 C33.5831452,59.7466278 34.0424347,60.2059173 34.6085358,60.2059173 L42.4052429,60.2059173 C42.9713441,60.2059173 43.4306335,59.7466278 43.4306335,59.1805267 C43.4306335,58.6138916 42.9713441,58.1551361 42.4052429,58.1551361 Z" id="Path"></path>
                            <path d="M53.7988281,36.3671875 C53.232193,36.3671875 52.7734375,36.825943 52.7734375,37.3925781 L52.7734375,66.8554688 C52.7734375,67.4584198 52.2826385,67.9492188 51.6796875,67.9492188 L29.8046875,67.9492188 C29.2380524,67.9492188 28.7792969,68.4079743 28.7792969,68.9746094 C28.7792969,69.5412445 29.2380524,70 29.8046875,70 L51.6796875,70 C53.4137726,70 54.8242188,68.5895539 54.8242188,66.8554688 L54.8242188,37.3925781 C54.8242188,36.8264771 54.3649292,36.3671875 53.7988281,36.3671875 Z" id="Path"></path>
                        </g>
                    </g>
                </g>
            </g>
        </g>
    </g>
</svg>