<?xml version="1.0" encoding="UTF-8"?>
<svg width="70px" height="65px" viewBox="0 0 70 65" version="1.1" xmlns="http://www.w3.org/2000/svg" xmlns:xlink="http://www.w3.org/1999/xlink">
    <!-- Generator: Sketch 63.1 (92452) - https://sketch.com -->
    <title>028-statistics</title>
    <desc>Created with Sketch.</desc>
    <g id="3_What-We-Believe" stroke="none" stroke-width="1" fill="none" fill-rule="evenodd">
        <g id="03_What-We-Believe_v4" transform="translate(-203.000000, -1553.000000)" fill="#0065A1" fill-rule="nonzero">
            <g id="BODY">
                <g id="GUIDING-PRINCIPLES" transform="translate(160.000000, 1333.000000)">
                    <g id="Principle_1" transform="translate(0.000000, 164.000000)">
                        <g id="028-statistics" transform="translate(43.000000, 56.000000)">
                            <path d="M68.9746094,62.6102448 L68.3155823,62.6102448 L68.3155823,42.442627 C68.3155823,41.8759919 67.8562927,41.4172363 67.2901917,41.4172363 C66.7235565,41.4172363 66.2642669,41.8759919 66.2642669,42.442627 L66.2642669,62.6102448 L55.2589417,62.6102448 L55.2589417,18.1755829 C55.2589417,17.7974701 55.5665589,17.4898529 55.9446716,17.4898529 L65.578537,17.4898529 C65.9571839,17.4898529 66.2648011,17.7974701 66.2648011,18.1755829 L66.2648011,37.6569367 C66.2648011,38.2235718 66.7235565,38.6823273 67.2901917,38.6823273 C67.8562927,38.6823273 68.3155823,38.2235718 68.3155823,37.6569367 L68.3155823,18.1755829 C68.3155823,16.6663361 67.0877838,15.4390716 65.578537,15.4390716 L55.9446716,15.4390716 C54.4359588,15.4390716 53.2081605,16.6663361 53.2081605,18.1755829 L53.2081605,62.6102448 L51.1408234,62.6102448 L51.1408234,28.9902497 C51.1408234,27.4815368 49.9135589,26.2537384 48.4043122,26.2537384 L45.9802246,26.2537384 C45.4135895,26.2537384 44.954834,26.713028 44.954834,27.2791291 C44.954834,27.8457642 45.4135895,28.3045197 45.9802246,28.3045197 L48.4043122,28.3045197 C48.782425,28.3045197 49.0900421,28.6121369 49.0900421,28.9902497 L49.0900421,62.6102448 L38.0847168,62.6102448 L38.0847168,28.9902497 C38.0847168,28.6121369 38.392334,28.3045197 38.7704468,28.3045197 L41.1945343,28.3045197 C41.7611694,28.3045197 42.219925,27.8457642 42.219925,27.2791291 C42.219925,26.713028 41.7611694,26.2537384 41.1945343,26.2537384 L38.7704468,26.2537384 C37.261734,26.2537384 36.0339355,27.4815368 36.0339355,28.9902497 L36.0339355,62.6102448 L33.9665985,62.6102448 L33.9665985,39.8054505 C33.9665985,38.2962036 32.7388001,37.0684051 31.2300872,37.0684051 L21.596222,37.0684051 C20.0869751,37.0684051 18.8591766,38.2962036 18.8591766,39.8054505 L18.8591766,62.6102448 L16.7918395,62.6102448 L16.7918395,50.6201172 C16.7918395,49.1114045 15.5645752,47.883606 14.0553284,47.883606 L4.42146305,47.883606 C2.91221615,47.883606 1.68495182,49.1114045 1.68495182,50.6201172 L1.68495182,62.6102448 L1.02539062,62.6102448 C0.458755527,62.6102448 0,63.0690003 0,63.6356354 C0,64.2022705 0.458755527,64.661026 1.02539062,64.661026 L68.9746094,64.661026 C69.5412445,64.661026 70,64.2022705 70,63.6356354 C70,63.0690003 69.5407104,62.6102448 68.9746094,62.6102448 Z M3.73573307,62.6102448 L3.73573307,50.6201172 C3.73573307,50.2420044 4.04335025,49.9343872 4.42146305,49.9343872 L14.0553284,49.9343872 C14.4334411,49.9343872 14.7410583,50.2420044 14.7410583,50.6201172 L14.7410583,62.6102448 L3.73573307,62.6102448 Z M20.9099579,62.6102448 L20.9099579,39.8054505 C20.9099579,39.4268036 21.217575,39.1191864 21.596222,39.1191864 L31.2300872,39.1191864 C31.6082,39.1191864 31.9158172,39.4268036 31.9158172,39.8054505 L31.9158172,62.6102448 L20.9099579,62.6102448 Z" id="Shape"></path>
                            <path d="M6.93367008,38.0286408 C7.6722718,39.1469574 9.18205258,39.4551087 10.2993011,38.717041 L57.6990509,7.41485596 L58.2074738,8.18496711 C58.9487458,9.30809018 60.6491852,9.13558953 61.1506654,7.88749691 L63.3477783,2.41928094 C63.7825013,1.33728027 63.0001068,0.151672363 61.8342591,0.126571621 L55.9420013,0.000534057617 C55.9297181,0 55.9179687,0 55.9056854,0 C54.576416,0 53.7806702,1.48254395 54.5128631,2.59017938 L55.021286,3.36082455 L7.62207031,34.6630096 C6.5016175,35.4026794 6.19293213,36.9081878 6.93367008,38.0286408 L6.93367008,38.0286408 Z M8.75213623,36.3741302 L57.0069123,4.50691227 C57.2338867,4.35684211 57.3919678,4.1229248 57.4464417,3.85643002 C57.5014496,3.58993523 57.4475098,3.31275943 57.2979736,3.086319 L56.624527,2.06626889 L61.2393188,2.16560367 L59.5185853,6.44874576 L58.8451385,5.4292298 C58.5327148,4.95658871 57.8966522,4.82627865 57.4240112,5.1381683 L9.1692352,37.0059204 C8.99513248,37.1207428 8.76014713,37.0726776 8.64479068,36.8985749 C8.52943424,36.723938 8.57803352,36.4894867 8.75213623,36.3741302 Z" id="Shape"></path>
                        </g>
                    </g>
                </g>
            </g>
        </g>
    </g>
</svg>