<?xml version="1.0" encoding="UTF-8"?>
<svg width="51px" height="70px" viewBox="0 0 51 70" version="1.1" xmlns="http://www.w3.org/2000/svg" xmlns:xlink="http://www.w3.org/1999/xlink">
    <title>04BE4300-338C-4CA9-8961-45A0008382A8</title>
    <g id="4_Investment-Focus" stroke="none" stroke-width="1" fill="none" fill-rule="evenodd">
        <g id="04_Investment-Focus_v4" transform="translate(-1294.000000, -2028.000000)" fill="#0065A1" fill-rule="nonzero">
            <g id="BODY" transform="translate(159.000000, 1472.000000)">
                <g id="CRITERIA" transform="translate(1.000000, 0.000000)">
                    <g id="Criteria_6" transform="translate(1100.000000, 506.000000)">
                        <g id="005-planning" transform="translate(34.000000, 50.000000)">
                            <path d="M5.67596436,10.9764862 C4.92027279,10.9764862 4.30557258,11.5911865 4.30557258,12.3463441 L4.30557258,64.3245697 C4.30557258,65.0797272 4.92027279,65.6944274 5.67596436,65.6944274 L45.0963592,65.6944274 C45.8520508,65.6944274 46.4667511,65.0797272 46.4667511,64.3245697 L46.4667511,12.3463441 C46.4667511,11.5911865 45.8520508,10.9764862 45.0963592,10.9764862 L35.5607604,10.9764862 L35.5607604,8.72169498 L45.8718109,8.72169498 C47.4430085,8.72169498 48.7215423,9.99969482 48.7215423,11.5714264 L48.7215423,36.0739899 C48.7215423,36.640625 49.1802979,37.0999146 49.7469329,37.0999146 C50.313034,37.0999146 50.7723236,36.640625 50.7723236,36.0739899 L50.7723236,11.5714264 C50.7723236,8.86909488 48.5741424,6.67091373 45.8718109,6.67091373 L35.2862549,6.67091373 C34.9230957,6.03057861 34.2368317,5.59692383 33.4496307,5.59692383 L29.9638366,5.59692383 L29.9638366,4.57740787 C29.9638366,2.0534515 27.9103851,-7.77156117e-15 25.3864289,-7.77156117e-15 C22.8619385,-7.77156117e-15 20.808487,2.0534515 20.808487,4.57740787 L20.808487,5.59745785 L17.3226929,5.59745785 C16.536026,5.59745785 15.8492279,6.03057861 15.4860687,6.67091373 L4.9005127,6.67091373 C2.19818115,6.67091373 -3.10862447e-14,8.86909488 -3.10862447e-14,11.5714264 L-3.10862447e-14,65.0994873 C-3.10862447e-14,67.8018188 2.19818115,70 4.9005127,70 L23.0013275,70 C23.5679626,70 24.0267181,69.5412445 24.0267181,68.9746094 C24.0267181,68.4085083 23.5679626,67.9492187 23.0013275,67.9492187 L4.9005127,67.9492187 C3.32931512,67.9492187 2.05078125,66.6712189 2.05078125,65.0994873 L2.05078125,11.5714264 C2.05078125,9.99969482 3.32931512,8.72169498 4.9005127,8.72169498 L15.2115631,8.72169498 L15.2115631,10.9764862 L5.67596436,10.9764862 Z M44.4159699,63.6436462 L6.35635383,63.6436462 L6.35635383,13.0272674 L15.2468109,13.0272674 C15.4364014,14.0339661 16.3213348,14.7522736 17.3226929,14.7522736 L33.4496307,14.7522736 C34.4707489,14.7522736 35.3439331,14.0099334 35.5255127,13.0272674 L44.4159699,13.0272674 L44.4159699,63.6436462 Z M22.8598022,4.57740787 C22.8598022,3.18458561 23.9930726,2.05078125 25.3864289,2.05078125 C26.7792511,2.05078125 27.9125213,3.18458561 27.9125213,4.57740787 L27.9125213,5.59745785 L22.8598022,5.59745785 L22.8598022,4.57740787 Z M17.3226929,7.6482391 L33.4496307,7.6482391 C33.480072,7.6482391 33.5083771,7.67654426 33.5094452,7.70645148 C33.5094452,7.71392822 33.5094452,7.72087094 33.5099792,7.72834781 L33.5099792,12.6411439 C33.5099792,12.6721191 33.4806061,12.7014923 33.4501647,12.7014923 L17.3226929,12.7014923 C17.2917175,12.7014923 17.2623444,12.6721191 17.2623444,12.6411439 C17.2623444,10.8226776 17.2623444,10.613861 17.2623444,7.7331543 C17.2623444,7.73208625 17.2628784,7.73155209 17.2628784,7.73048404 C17.2628784,7.72781379 17.2623444,7.7251434 17.2623444,7.72300717 L17.2623444,7.70805355 C17.2623444,7.67707828 17.2917175,7.6482391 17.3226929,7.6482391 Z" id="Shape"></path>
                            <path d="M12.1711732,50.9859466 C10.41893,50.9859466 8.99299625,52.4113464 8.99299625,54.1641235 C8.99299625,55.5574798 9.89501953,56.7436218 11.1452484,57.171402 L11.1452484,58.6710358 C11.1452484,59.2371369 11.6045379,59.6964264 12.1711732,59.6964264 C12.7372741,59.6964264 13.1965638,59.2371369 13.1965638,58.6710358 L13.1965638,57.171402 C14.4467926,56.7441559 15.3493499,55.558014 15.3493499,54.1641235 C15.3493499,52.4113464 13.9234162,50.9859466 12.1711732,50.9859466 L12.1711732,50.9859466 Z M12.1711732,55.2915192 C11.54953,55.2915192 11.0437775,54.7857666 11.0437775,54.1641235 C11.0437775,53.5424805 11.54953,53.0367279 12.1711732,53.0367279 C12.7922821,53.0367279 13.2980347,53.5424805 13.2980347,54.1641235 C13.2980347,54.7857666 12.7922821,55.2915192 12.1711732,55.2915192 Z" id="Shape"></path>
                            <path d="M33.0448151,22.8822327 L31.5900421,25.3298187 C31.3566589,25.7223511 31.4175415,26.2275696 31.7214203,26.5528107 L35.0544739,30.1272583 C35.8395386,30.9694671 37.1773529,30.9694671 37.9629517,30.1277923 L41.2960052,26.5528107 C41.6014862,26.2254333 41.6596986,25.7202148 41.4273835,25.3298187 L39.9726105,22.8822327 C39.616394,22.282486 38.9611053,21.9097137 38.2636261,21.9097137 L34.7537995,21.9097137 C34.0563202,21.9097137 33.4015656,22.282486 33.0448151,22.8822327 L33.0448151,22.8822327 Z M36.5087127,28.6794281 L34.8301696,26.8791198 L38.1877899,26.8791198 L36.5087127,28.6794281 Z M38.2278442,23.961029 L38.7432098,24.8283386 L34.2742157,24.8283386 L34.7895814,23.961029 L38.2278442,23.961029 Z" id="Shape"></path>
                            <path d="M21.8498993,20.2295685 L28.9224243,20.2295685 C29.4885254,20.2295685 29.9478149,19.770279 29.9478149,19.2041779 C29.9478149,18.6375427 29.4885254,18.1787873 28.9224243,18.1787873 L21.8498993,18.1787873 C21.2837982,18.1787873 20.8245086,18.6375427 20.8245086,19.2041779 C20.8245086,19.770279 21.2837982,20.2295685 21.8498993,20.2295685 Z" id="Path"></path>
                            <path d="M20.4148864,11.2002563 L30.3734588,11.2002563 C30.9400941,11.2002563 31.3988495,10.7409668 31.3988495,10.1748657 C31.3988495,9.60823062 30.9400941,9.1494751 30.3734588,9.1494751 L20.4148864,9.1494751 C19.8487855,9.1494751 19.3894958,9.60823062 19.3894958,10.1748657 C19.3894958,10.7409668 19.8487855,11.2002563 20.4148864,11.2002563 Z" id="Path"></path>
                            <path d="M37.233963,31.8234253 C36.8334198,31.4234162 36.1840057,31.4234162 35.7834626,31.8234253 L33.1959534,34.4114684 C32.7954102,34.8120117 32.7954102,35.4614258 33.1959534,35.8614349 C33.5964966,36.2619782 34.2459106,36.2619782 34.6459198,35.8614349 L35.4833221,35.0245667 L35.4833221,36.4067077 C35.4833221,37.8305054 34.3249512,38.9883423 32.9016877,38.9883423 L19.1619873,38.9883423 C16.6081237,38.9883423 14.5301056,41.0663605 14.5301056,43.6207581 L14.5301056,45.7356263 C14.5301056,48.2900238 16.6081237,50.368042 19.1619873,50.368042 L32.9016877,50.368042 C34.3249512,50.368042 35.4833221,51.5258789 35.4833221,52.9491424 L35.4833221,55.0640106 C35.4833221,56.4878083 34.3249512,57.6456452 32.9016877,57.6456452 L16.4163971,57.6456452 C15.849762,57.6456452 15.3910065,58.1044007 15.3910065,58.6710358 C15.3910065,59.2371369 15.849762,59.6964264 16.4163971,59.6964264 L32.9016877,59.6964264 C35.4560853,59.6964264 37.5341034,57.6184082 37.5341034,55.0640106 L37.5341034,52.9491424 C37.5341034,50.3947448 35.4560853,48.3167267 32.9016877,48.3167267 L19.1619873,48.3167267 C17.7387238,48.3167267 16.5808869,47.1588898 16.5808869,45.7356263 L16.5808869,43.6207581 C16.5808869,42.1974945 17.7387238,41.0391235 19.1619873,41.0391235 L32.9016877,41.0391235 C35.4560853,41.0391235 37.5341034,38.9611053 37.5341034,36.4067077 L37.5341034,35.0240326 L38.3715057,35.8614349 C38.772049,36.2619782 39.420929,36.2619782 39.8214722,35.8614349 C40.2220153,35.4608918 40.2220153,34.8114777 39.8214722,34.4114684 L37.233963,31.8234253 Z" id="Path"></path>
                            <path d="M27.7870179,70 L45.8718109,70 C48.5741424,70 50.7723236,67.8018188 50.7723236,65.0994873 L50.7723236,40.8596802 C50.7723236,40.2935791 50.313568,39.8342896 49.7469329,39.8342896 C49.1802979,39.8342896 48.7215423,40.2935791 48.7215423,40.8596802 L48.7215423,65.0994873 C48.7215423,66.6706849 47.4430085,67.9492188 45.8718109,67.9492188 L27.7870179,67.9492188 C27.2203827,67.9492188 26.7616273,68.4079743 26.7616273,68.9746094 C26.7616273,69.5407104 27.2203827,70 27.7870179,70 Z" id="Path"></path>
                        </g>
                    </g>
                </g>
            </g>
        </g>
    </g>
</svg>