<?xml version="1.0" encoding="UTF-8"?>
<svg width="30px" height="30px" viewBox="0 0 30 30" version="1.1" xmlns="http://www.w3.org/2000/svg" xmlns:xlink="http://www.w3.org/1999/xlink">
    <!-- Generator: Sketch 63.1 (92452) - https://sketch.com -->
    <title>Path</title>
    <desc>Created with Sketch.</desc>
    <g id="_Symbols" stroke="none" stroke-width="1" fill="none" fill-rule="evenodd">
        <g id="close" fill="#0065A1" fill-rule="nonzero">
            <path d="M16.6573487,15.0000293 L29.6567442,2.00057519 C30.1144186,1.54290075 30.1144186,0.800871677 29.6567442,0.34325583 C29.1990697,-0.114360017 28.4570407,-0.11441861 27.9994248,0.34325583 L14.9999707,13.3427099 L2.00057519,0.34325583 C1.54290075,-0.11441861 0.800871677,-0.11441861 0.34325583,0.34325583 C-0.114360017,0.800930271 -0.11441861,1.54295935 0.34325583,2.00057519 L13.3426513,14.9999707 L0.34325583,27.9994248 C-0.11441861,28.4570992 -0.11441861,29.1991283 0.34325583,29.6567442 C0.572063754,29.8855521 0.872004281,29.9999268 1.17194481,29.9999268 C1.47188534,29.9999268 1.77176727,29.8855521 2.00063379,29.6567442 L14.9999707,16.6573487 L27.9993662,29.6567442 C28.2281741,29.8855521 28.5281147,29.9999268 28.8280552,29.9999268 C29.1279957,29.9999268 29.4278777,29.8855521 29.6567442,29.6567442 C30.1144186,29.1990697 30.1144186,28.4570407 29.6567442,27.9994248 L16.6573487,15.0000293 Z" id="Path"></path>
        </g>
    </g>
</svg>